<svg xmlns="http://www.w3.org/2000/svg" xmlns:xlink="http://www.w3.org/1999/xlink" width="1431" height="862" version="1.1">
<style type="text/css">
.l0{
 fill: #000000;
  stroke: #000000;
  stroke-linecap:round;
  stroke-linejoin:round;
  stroke-width: 0.843954;
}
.l1{
 fill: #00ccee;
  stroke: #00ccee;
  stroke-linecap:round;
  stroke-linejoin:round;
  stroke-width: 0.843954;
}
.l2{
  fill: none;
  stroke: #3f3f3f;
  stroke-linecap:round;
  stroke-linejoin:round;
  stroke-width: 0.843954;
}
.l3{
 fill: #cccccc; fill-opacity: 0.5;
  stroke: #cccccc;
  stroke-linecap:round;
  stroke-linejoin:round;
  stroke-width: 0.843954;
}
.l4{
 fill: #88dd00;
  stroke: #88dd00;
  stroke-linecap:round;
  stroke-linejoin:round;
  stroke-width: 0.843954;
}
.l5{
 fill: #bb2200;
  stroke: #bb2200;
  stroke-linecap:round;
  stroke-linejoin:round;
  stroke-width: 0.843954;
}
.l6{
 fill: #00ccee; fill-opacity: 0.5;
  stroke: #00ccee;
  stroke-linecap:round;
  stroke-linejoin:round;
  stroke-width: 0.843954;
}
.l7{
 fill: #ff0000; fill-opacity: 0.5;
  stroke: #ff0000;
  stroke-linecap:round;
  stroke-linejoin:round;
  stroke-width: 0.843954;
}
.l8{
 fill: #ffff00; fill-opacity: 0.5;
  stroke: #ffff00;
  stroke-linecap:round;
  stroke-linejoin:round;
  stroke-width: 0.843954;
}
.l9{
 fill: #ffffff; fill-opacity: 0.5;
  stroke: #ffffff;
  stroke-linecap:round;
  stroke-linejoin:round;
  stroke-width: 0.843954;
}
.l10{
 fill: #ff00ff;
  stroke: #ff00ff;
  stroke-linecap:round;
  stroke-linejoin:round;
  stroke-width: 0.843954;
}
.l11{
 fill: #00ff00; fill-opacity: 0.5;
  stroke: #00ff00;
  stroke-linecap:round;
  stroke-linejoin:round;
  stroke-width: 0.843954;
}
.l12{
 fill: #0044dd; fill-opacity: 0.5;
  stroke: #0044dd;
  stroke-linecap:round;
  stroke-linejoin:round;
  stroke-width: 0.843954;
}
.l13{
 fill: #aaaa00; fill-opacity: 0.5;
  stroke: #aaaa00;
  stroke-linecap:round;
  stroke-linejoin:round;
  stroke-width: 0.843954;
}
.l14{
  fill: none;
  stroke: #aaccaa;
  stroke-linecap:round;
  stroke-linejoin:round;
  stroke-width: 0.843954;
}
.l15{
 fill: #ff7777; fill-opacity: 0.5;
  stroke: #ff7777;
  stroke-linecap:round;
  stroke-linejoin:round;
  stroke-width: 0.843954;
}
.l16{
 fill: #bfff81; fill-opacity: 0.5;
  stroke: #bfff81;
  stroke-linecap:round;
  stroke-linejoin:round;
  stroke-width: 0.843954;
}
.l17{
  fill: none;
  stroke: #00ffcc;
  stroke-linecap:round;
  stroke-linejoin:round;
  stroke-width: 0.843954;
}
.l18{
 fill: #ce0097; fill-opacity: 0.5;
  stroke: #ce0097;
  stroke-linecap:round;
  stroke-linejoin:round;
  stroke-width: 0.843954;
}
.l19{
  fill: none;
  stroke: #d2d46b;
  stroke-linecap:round;
  stroke-linejoin:round;
  stroke-width: 0.843954;
}
.l20{
  fill: none;
  stroke: #ef6158;
  stroke-linecap:round;
  stroke-linejoin:round;
  stroke-width: 0.843954;
}
.l21{
  fill: none;
  stroke: #fdb200;
  stroke-linecap:round;
  stroke-linejoin:round;
  stroke-width: 0.843954;
}
text {font-family: Sans-Serif;}
</style>
<rect class="l0" x="0" y="0" width="1431" height="862"/>
<text fill="#cccccc"  xml:space="preserve" font-size="40.6348" transform="translate(396.556, 96.7128)" >16 MHz x 32 = 512 MHz PLL</text>
<text fill="#00ccee"  xml:space="preserve" font-size="13.4095" transform="translate(71.1442, 166.742)" >AVDD</text>
<text fill="#00ccee"  xml:space="preserve" font-size="13.4095" transform="translate(88.2528, 799.707)" >AVSS</text>
<text fill="#00ccee"  xml:space="preserve" font-size="13.4095" transform="translate(50.6137, 745.007)" >PWRUP_1V8</text>
<text fill="#00ccee"  xml:space="preserve" font-size="13.4095" transform="translate(63.3099, 424.617)" >CK_REF</text>
<text fill="#00ccee"  xml:space="preserve" font-size="13.4095" transform="translate(1303.03, 440.245)" >CK</text>
<text fill="#00ccee"  xml:space="preserve" font-size="13.4095" transform="translate(399.7, 413.418) rotate(270)" >CP_UP_N</text>
<text fill="#00ccee"  xml:space="preserve" font-size="13.4095" transform="translate(402.382, 509.308) rotate(270)" >CP_DOWN</text>
<text fill="#00ccee"  xml:space="preserve" font-size="13.4095" transform="translate(915.45, 413.418) rotate(270)" >VDD_ROSC</text>
<text fill="#00ccee"  xml:space="preserve" font-size="13.4095" transform="translate(59.188, 580.904)" >IBPSR_1U</text>
<text fill="#00ccee"  xml:space="preserve" font-size="13.4095" transform="translate(626.318, 429.046) rotate(270)" >VLPF</text>
<text fill="#00ccee"  xml:space="preserve" font-size="13.4095" transform="translate(868.564, 600.963) rotate(270)" >CK_FB</text>
<text fill="#00ccee"  xml:space="preserve" font-size="13.4095" transform="translate(613.371, 505.939) rotate(270)" >VLPFZ</text>
<text fill="#00ccee"  xml:space="preserve" font-size="13.4095" transform="translate(504.004, 531.824)" >KICK</text>
<text fill="#00ccee"  xml:space="preserve" font-size="13.4095" transform="translate(433.64, 797.014) rotate(270)" >PWRUP_1V8_N</text>
<text fill="#cccccc"  xml:space="preserve" font-size="10.1587" transform="translate(1146.74, 798.514)" >Updated</text>
<text fill="#cccccc"  xml:space="preserve" font-size="10.1587" transform="translate(41.001, 845.4)" >Library/Cell</text>
<text fill="#cccccc"  xml:space="preserve" font-size="10.1587" transform="translate(1146.74, 782.885)" >Designer</text>
<text fill="#cccccc"  xml:space="preserve" font-size="10.1587" transform="translate(1146.74, 814.143)" >Modified</text>
<text fill="#cccccc"  xml:space="preserve" font-size="10.1587" transform="translate(1150.64, 829.772)" >Copyright</text>
<text fill="#cccccc"  xml:space="preserve" font-size="10.1587" transform="translate(1209.25, 798.514)" >wulff</text>
<text fill="#cccccc"  xml:space="preserve" font-size="10.1587" transform="translate(1209.25, 814.143)" >2023-03-26  19:31:18</text>
<text fill="#cccccc"  xml:space="preserve" font-size="10.1587" transform="translate(1209.25, 829.772)" >Carsten Wulff Software</text>
<text fill="#cccccc"  xml:space="preserve" font-size="10.1587" transform="translate(130.866, 845.4)" >SUN_PLL</text>
<text fill="#cccccc"  xml:space="preserve" font-size="10.1587" transform="translate(1209.25, 782.885)" >Carsten Wulff</text>
<text fill="#cccccc"  xml:space="preserve" font-size="12.1905" transform="translate(1012.33, 503.803)" >SUN_PLL_ROSC</text>
<text fill="#cccccc"  xml:space="preserve" font-size="8.12697" transform="translate(1052.96, 362.58)" >xa5</text>
<text fill="#cccccc"  xml:space="preserve" font-size="8.12697" transform="translate(983.819, 391.064) rotate(270)" >AVDD</text>
<text fill="#cccccc"  xml:space="preserve" font-size="8.12697" transform="translate(1076.84, 439.161)" >CK</text>
<text fill="#cccccc"  xml:space="preserve" font-size="8.12697" transform="translate(970.914, 423.532)" >VDD_ROSC</text>
<text fill="#cccccc"  xml:space="preserve" font-size="8.12697" transform="translate(1010.33, 485.701) rotate(270)" >PWRUP_1V8</text>
<text fill="#cccccc"  xml:space="preserve" font-size="8.12697" transform="translate(986.889, 485.701) rotate(270)" >AVSS</text>
<text fill="#cccccc"  xml:space="preserve" font-size="12.1905" transform="translate(1026.93, 667.905)" >SUN_PLL_DIVN</text>
<text fill="#cccccc"  xml:space="preserve" font-size="8.12697" transform="translate(1047.06, 550.125)" >xaa6</text>
<text fill="#cccccc"  xml:space="preserve" font-size="8.12697" transform="translate(1143.18, 578.61) rotate(270)" >AVDD</text>
<text fill="#cccccc"  xml:space="preserve" font-size="8.12697" transform="translate(1033.43, 611.077)" >CK_FB</text>
<text fill="#cccccc"  xml:space="preserve" font-size="8.12697" transform="translate(1139.36, 603.263)" >CK</text>
<text fill="#cccccc"  xml:space="preserve" font-size="8.12697" transform="translate(1124.48, 649.803) rotate(270)" >PWRUP_1V8</text>
<text fill="#cccccc"  xml:space="preserve" font-size="8.12697" transform="translate(1140.11, 649.803) rotate(270)" >AVSS</text>
<text fill="#cccccc"  xml:space="preserve" font-size="16.2539" transform="translate(1083, 582.51)" >1</text>
<text fill="#cccccc"  xml:space="preserve" font-size="16.2539" transform="translate(1081.77, 613.768)" >32</text>
<text fill="#cccccc"  xml:space="preserve" font-size="12.1905" transform="translate(496.896, 722.606)" >SUN_PLL_BIAS</text>
<text fill="#cccccc"  xml:space="preserve" font-size="8.12697" transform="translate(453.17, 643.898)" >xbb1</text>
<text fill="#cccccc"  xml:space="preserve" font-size="8.12697" transform="translate(557.097, 689.101) rotate(270)" >IBPSR_1U</text>
<text fill="#cccccc"  xml:space="preserve" font-size="8.12697" transform="translate(455.164, 693.966)" >PWRUP_1V8_N</text>
<text fill="#cccccc"  xml:space="preserve" font-size="8.12697" transform="translate(600.913, 704.504) rotate(270)" >AVSS</text>
<text fill="#cccccc"  xml:space="preserve" font-size="40.6348" transform="translate(452.43, 682.792)" >BIAS</text>
<text fill="#cccccc"  xml:space="preserve" font-size="12.1905" transform="translate(789.229, 495.988)" >SUN_PLL_BUF</text>
<text fill="#cccccc"  xml:space="preserve" font-size="8.12697" transform="translate(830.255, 386.023)" >xa4</text>
<text fill="#cccccc"  xml:space="preserve" font-size="8.12697" transform="translate(765.016, 414.507) rotate(270)" >AVDD</text>
<text fill="#cccccc"  xml:space="preserve" font-size="8.12697" transform="translate(845.707, 443.905)" >VFB</text>
<text fill="#cccccc"  xml:space="preserve" font-size="8.12697" transform="translate(744.296, 439.161)" >VI</text>
<text fill="#cccccc"  xml:space="preserve" font-size="8.12697" transform="translate(849.77, 423.532)" >VO</text>
<text fill="#cccccc"  xml:space="preserve" font-size="8.12697" transform="translate(783.715, 477.886) rotate(270)" >VBN</text>
<text fill="#cccccc"  xml:space="preserve" font-size="8.12697" transform="translate(760.271, 477.886) rotate(270)" >AVSS</text>
<text fill="#cccccc"  xml:space="preserve" font-size="12.1905" transform="translate(672.013, 566.318)" >SUN_PLL_LPF</text>
<text fill="#cccccc"  xml:space="preserve" font-size="8.12697" transform="translate(673.967, 448.538)" >xd0</text>
<text fill="#cccccc"  xml:space="preserve" font-size="8.12697" transform="translate(642.709, 509.49)" >VLPFZ</text>
<text fill="#cccccc"  xml:space="preserve" font-size="8.12697" transform="translate(666.499, 548.216) rotate(270)" >AVSS</text>
<text fill="#cccccc"  xml:space="preserve" font-size="8.12697" transform="translate(663.429, 474.769) rotate(270)" >VLPF</text>
<text fill="#cccccc"  xml:space="preserve" font-size="12.1905" transform="translate(519.242, 495.988)" >SUN_PLL_CP</text>
<text fill="#cccccc"  xml:space="preserve" font-size="8.12697" transform="translate(494.236, 362.58)" >xa1</text>
<text fill="#cccccc"  xml:space="preserve" font-size="8.12697" transform="translate(444.626, 391.064) rotate(270)" >AVDD</text>
<text fill="#cccccc"  xml:space="preserve" font-size="8.12697" transform="translate(431.721, 423.532)" >CP_UP_N</text>
<text fill="#cccccc"  xml:space="preserve" font-size="8.12697" transform="translate(510.589, 439.161)" >LPF</text>
<text fill="#cccccc"  xml:space="preserve" font-size="8.12697" transform="translate(431.721, 439.161)" >CP_DOWN</text>
<text fill="#cccccc"  xml:space="preserve" font-size="8.12697" transform="translate(463.325, 477.886) rotate(270)" >VBN</text>
<text fill="#cccccc"  xml:space="preserve" font-size="8.12697" transform="translate(447.696, 477.886) rotate(270)" >AVSS</text>
<text fill="#cccccc"  xml:space="preserve" font-size="10.1587" transform="translate(451.257, 389.431)" >Kcp = Ibp/2pi</text>
<text fill="#cccccc"  xml:space="preserve" font-size="8.12697" transform="translate(505.624, 462.604)" >LPFZ</text>
<text fill="#cccccc"  xml:space="preserve" font-size="8.12697" transform="translate(486.768, 477.886) rotate(270)" >PWRUP_1V8</text>
<text fill="#cccccc"  xml:space="preserve" font-size="8.12697" transform="translate(502.396, 477.886) rotate(270)" >KICK</text>
<text fill="#cccccc"  xml:space="preserve" font-size="12.1905" transform="translate(250.036, 495.988)" >SUN_PLL_PFD</text>
<text fill="#cccccc"  xml:space="preserve" font-size="8.12697" transform="translate(322.319, 370.394)" >xa0</text>
<text fill="#cccccc"  xml:space="preserve" font-size="8.12697" transform="translate(241.451, 398.879) rotate(270)" >AVDD</text>
<text fill="#cccccc"  xml:space="preserve" font-size="8.12697" transform="translate(316.089, 423.532)" >CP_UP_N</text>
<text fill="#cccccc"  xml:space="preserve" font-size="8.12697" transform="translate(228.546, 423.532)" >CK_REF</text>
<text fill="#cccccc"  xml:space="preserve" font-size="8.12697" transform="translate(312.037, 439.161)" >CP_DOWN</text>
<text fill="#cccccc"  xml:space="preserve" font-size="8.12697" transform="translate(228.546, 439.161)" >CK_FB</text>
<text fill="#cccccc"  xml:space="preserve" font-size="8.12697" transform="translate(244.522, 477.886) rotate(270)" >AVSS</text>
<text fill="#cccccc"  xml:space="preserve" font-size="12.1905" transform="translate(285.591, 714.791)" >SUN_PLL_KICK</text>
<text fill="#cccccc"  xml:space="preserve" font-size="8.12697" transform="translate(416.092, 651.712)" >xaa3</text>
<text fill="#cccccc"  xml:space="preserve" font-size="8.12697" transform="translate(291.062, 665.778)" >AVDD</text>
<text fill="#cccccc"  xml:space="preserve" font-size="8.12697" transform="translate(389.309, 665.778)" >KICK</text>
<text fill="#cccccc"  xml:space="preserve" font-size="8.12697" transform="translate(378.92, 681.407)" >KICK_N</text>
<text fill="#cccccc"  xml:space="preserve" font-size="8.12697" transform="translate(291.062, 681.407)" >PWRUP_1V8</text>
<text fill="#cccccc"  xml:space="preserve" font-size="8.12697" transform="translate(291.062, 697.036)" >AVSS</text>
<text fill="#cccccc"  xml:space="preserve" font-size="8.12697" transform="translate(348.658, 697.036)" >PWRUP_1V8_N</text>
<path class="l4" d="M1201.44 786.555L1201.44 802.184"/>
<path class="l4" d="M1099.85 833.441L1099.85 849.07"/>
<path class="l4" d="M1256.14 833.441L1256.14 849.07"/>
<path class="l4" d="M943.563 833.441L943.563 849.07"/>
<path class="l4" d="M126.959 833.441L126.959 849.07"/>
<path class="l4" d="M21.465 833.441L37.0938 833.441"/>
<path class="l4" d="M37.0938 833.441L37.0938 849.07"/>
<path class="l4" d="M1349.91 833.441L1365.54 833.441"/>
<path class="l4" d="M1349.91 833.441L1349.91 849.07"/>
<path class="l4" d="M1201.44 770.926L1201.44 786.555"/>
<path class="l4" d="M1201.44 802.184L1201.44 817.812"/>
<path class="l4" style="fill:none;" d="M1142.83 833.441L1365.54 833.441L1365.54 770.926L1142.83 770.926L1142.83 833.441"/>
<path class="l4" style="fill:none;" d="M21.465 849.07L1365.54 849.07L1365.54 12.93L21.465 12.93L21.465 849.07"/>
<path class="l4" style="fill:none;" d="M1142.83 786.555L1349.91 786.555L1349.91 770.926L1142.83 770.926L1142.83 786.555"/>
<path class="l4" style="fill:none;" d="M21.465 849.07L1365.54 849.07L1365.54 833.441L21.465 833.441L21.465 849.07"/>
<path class="l4" style="fill:none;" d="M1142.83 833.441L1349.91 833.441L1349.91 817.812L1142.83 817.812L1142.83 833.441"/>
<path class="l4" style="fill:none;" d="M1142.83 817.812L1349.91 817.812L1349.91 802.184L1142.83 802.184L1142.83 817.812"/>
<path class="l4" style="fill:none;" d="M1142.83 802.184L1349.91 802.184L1349.91 786.555L1142.83 786.555L1142.83 802.184"/>
<path class="l4" d="M982.635 348.949L982.635 364.578"/>
<path class="l4" d="M1092.04 434.907L1107.67 434.907"/>
<path class="l4" d="M951.378 419.278L967.006 419.278"/>
<path class="l4" d="M1006.08 489.608L1006.08 505.237"/>
<path class="l4" d="M982.635 489.608L982.635 505.237"/>
<path class="l4" d="M1064.69 434.907L1076.41 434.907"/>
<path class="l4" d="M967.006 364.578L967.006 489.608"/>
<path class="l4" d="M967.006 489.608L1092.04 489.608"/>
<path class="l4" d="M1092.04 368.485L1092.04 489.608"/>
<path class="l4" d="M1092.04 364.578L1092.04 368.485"/>
<path class="l4" d="M967.006 364.578L1092.04 364.578"/>
<path class="l4" d="M1017.8 419.278L1029.52 419.278"/>
<path class="l4" d="M1029.52 419.278L1037.34 423.186"/>
<circle class="l4" cx="1049.06" cy="433.605" r="14.8496" style="fill:none;"/>
<path class="l4" style="fill:none;" d="M1049.06 434.907 A3.9072 3.9072 0 0 0 1041.24 434.907"/>
<path class="l4" style="fill:none;" d="M1049.06 434.907 A3.9072 3.9072 0 0 0 1056.87 434.907"/>
<path class="l4" d="M1138.92 536.494L1138.92 552.123"/>
<path class="l4" d="M1013.89 606.824L1029.52 606.824"/>
<path class="l4" d="M1154.55 599.009L1170.18 599.009"/>
<path class="l4" d="M1123.29 653.71L1123.29 669.339"/>
<path class="l4" d="M1138.92 653.71L1138.92 669.339"/>
<path class="l4" d="M1154.55 552.123L1154.55 653.71"/>
<path class="l4" d="M1029.52 653.71L1154.55 653.71"/>
<path class="l4" d="M1029.52 552.123L1029.52 653.71"/>
<path class="l4" d="M1029.52 552.123L1154.55 552.123"/>
<path class="l4" d="M451.257 645.896L623.173 645.896"/>
<path class="l4" d="M451.257 708.411L623.173 708.411"/>
<path class="l4" d="M623.173 645.896L623.173 708.411"/>
<path class="l4" d="M451.257 645.896L451.257 708.411"/>
<path class="l4" d="M552.844 630.267L552.844 645.896"/>
<path class="l4" d="M435.628 692.782L451.257 692.782"/>
<path class="l4" d="M599.73 708.411L599.73 724.04"/>
<path class="l4" d="M763.832 372.392L763.832 388.021"/>
<path class="l4" d="M865.419 442.722L881.048 442.722"/>
<path class="l4" d="M724.76 434.907L740.389 434.907"/>
<path class="l4" d="M865.419 419.278L881.048 419.278"/>
<path class="l4" d="M779.461 481.794L779.461 497.422"/>
<path class="l4" d="M756.018 481.794L756.018 497.422"/>
<path class="l4" d="M740.389 388.021L740.389 481.794"/>
<path class="l4" d="M740.389 481.794L865.419 481.794"/>
<path class="l4" d="M865.419 388.021L865.419 481.794"/>
<path class="l4" d="M740.389 388.021L865.419 388.021"/>
<path class="l4" d="M779.461 419.278L779.461 450.536"/>
<path class="l4" d="M779.461 419.278L826.347 434.907"/>
<path class="l4" d="M779.461 450.536L826.347 434.907"/>
<path class="l4" d="M756.018 434.907L779.461 434.907"/>
<path class="l4" d="M826.347 434.907L834.162 434.907"/>
<path class="l4" d="M638.802 450.536L693.503 450.536"/>
<path class="l4" d="M638.802 552.123L693.503 552.123"/>
<path class="l4" d="M638.802 450.536L638.802 552.123"/>
<path class="l4" d="M693.503 450.536L693.503 552.123"/>
<path class="l4" d="M623.173 505.237L638.802 505.237"/>
<path class="l4" d="M662.245 552.123L662.245 567.752"/>
<path class="l4" d="M654.431 489.608L670.06 489.608"/>
<path class="l4" d="M670.06 489.608L677.874 513.051"/>
<path class="l4" d="M662.245 434.907L662.245 450.536"/>
<path class="l4" d="M443.442 348.949L443.442 364.578"/>
<path class="l4" d="M412.185 419.278L427.813 419.278"/>
<path class="l4" d="M529.401 434.907L545.029 434.907"/>
<path class="l4" d="M412.185 434.907L427.813 434.907"/>
<path class="l4" d="M459.071 481.794L459.071 497.422"/>
<path class="l4" d="M443.442 481.794L443.442 497.422"/>
<path class="l4" d="M427.813 364.578L427.813 481.794"/>
<path class="l4" d="M427.813 481.794L529.401 481.794"/>
<path class="l4" d="M529.401 364.578L529.401 481.794"/>
<path class="l4" d="M427.813 364.578L529.401 364.578"/>
<path class="l4" d="M529.401 458.35L545.029 458.35"/>
<path class="l4" d="M482.514 481.794L482.514 497.422"/>
<path class="l4" d="M498.143 481.794L498.143 497.422"/>
<path class="l4" d="M240.268 356.763L240.268 372.392"/>
<path class="l4" d="M357.484 419.278L373.113 419.278"/>
<path class="l4" d="M209.01 419.278L224.639 419.278"/>
<path class="l4" d="M357.484 434.907L373.113 434.907"/>
<path class="l4" d="M209.01 434.907L224.639 434.907"/>
<path class="l4" d="M240.268 481.794L240.268 497.422"/>
<path class="l4" d="M224.639 372.392L224.639 481.794"/>
<path class="l4" d="M224.639 481.794L349.669 481.794"/>
<path class="l4" d="M349.669 481.794L357.484 481.794"/>
<path class="l4" d="M357.484 372.392L357.484 481.794"/>
<path class="l4" d="M224.639 372.392L357.484 372.392"/>
<path class="l4" d="M287.154 653.71L412.185 653.71"/>
<path class="l4" d="M287.154 700.597L412.185 700.597"/>
<path class="l4" d="M287.154 653.71L287.154 700.597"/>
<path class="l4" d="M412.185 653.71L412.185 700.597"/>
<path class="l4" d="M271.526 661.525L287.154 661.525"/>
<path class="l4" d="M412.185 661.525L427.813 661.525"/>
<path class="l4" d="M412.185 677.153L427.813 677.153"/>
<path class="l4" d="M271.526 677.153L287.154 677.153"/>
<path class="l4" d="M271.526 692.782L287.154 692.782"/>
<path class="l4" d="M412.185 692.782L427.813 692.782"/>
<path class="l5" d="M119.145 161.403L123.052 161.403"/>
<path class="l5" d="M119.145 161.403L116.215 157.496L109.377 157.496L112.307 161.403L109.377 165.311L116.215 165.311L119.145 161.403"/>
<path class="l5" d="M122.075 160.427L124.029 160.427L124.029 162.38L122.075 162.38L122.075 160.427z"/>
<path class="l5" d="M134.774 794.369L138.681 794.369"/>
<path class="l5" d="M134.774 794.369L131.843 790.462L125.006 790.462L127.936 794.369L125.006 798.276L131.843 798.276L134.774 794.369"/>
<path class="l5" d="M137.704 793.392L139.658 793.392L139.658 795.346L137.704 795.346L137.704 793.392z"/>
<path class="l5" d="M142.588 739.669L146.495 739.669"/>
<path class="l5" d="M142.588 739.669L139.658 735.761L132.82 735.761L135.75 739.669L132.82 743.576L139.658 743.576L142.588 739.669"/>
<path class="l5" d="M145.518 738.692L147.472 738.692L147.472 740.645L145.518 740.645L145.518 738.692z"/>
<path class="l5" d="M126.959 419.278L130.866 419.278"/>
<path class="l5" d="M126.959 419.278L124.029 415.371L117.191 415.371L120.122 419.278L117.191 423.186L124.029 423.186L126.959 419.278"/>
<path class="l5" d="M129.89 418.302L131.843 418.302L131.843 420.255L129.89 420.255L129.89 418.302z"/>
<path class="l5" d="M1287.4 434.907L1294.23 434.907"/>
<path class="l5" d="M1301.07 434.907L1298.14 431L1291.3 431L1294.23 434.907L1291.3 438.814L1298.14 438.814L1301.07 434.907"/>
<path class="l5" d="M1286.42 433.93L1288.37 433.93L1288.37 435.884L1286.42 435.884L1286.42 433.93z"/>
<path class="l5" d="M395.579 418.302L397.533 418.302L397.533 420.255L395.579 420.255L395.579 418.302z"/>
<path class="l5" d="M395.579 433.93L397.533 433.93L397.533 435.884L395.579 435.884L395.579 433.93z"/>
<path class="l5" d="M911.329 418.302L913.283 418.302L913.283 420.255L911.329 420.255L911.329 418.302z"/>
<path class="l5" d="M134.774 575.566L138.681 575.566"/>
<path class="l5" d="M134.774 575.566L131.843 571.659L125.006 571.659L127.936 575.566L125.006 579.473L131.843 579.473L134.774 575.566"/>
<path class="l5" d="M137.704 574.589L139.658 574.589L139.658 576.543L137.704 576.543L137.704 574.589z"/>
<path class="l5" d="M980.682 346.995L984.589 346.995L984.589 350.902L980.682 350.902L980.682 346.995z"/>
<path class="l5" d="M1105.71 432.954L1109.62 432.954L1109.62 436.861L1105.71 436.861L1105.71 432.954z"/>
<path class="l5" d="M949.424 417.325L953.331 417.325L953.331 421.232L949.424 421.232L949.424 417.325z"/>
<path class="l5" d="M1004.12 503.283L1008.03 503.283L1008.03 507.19L1004.12 507.19L1004.12 503.283z"/>
<path class="l5" d="M980.682 503.283L984.589 503.283L984.589 507.19L980.682 507.19L980.682 503.283z"/>
<path class="l5" d="M1136.97 534.541L1140.88 534.541L1140.88 538.448L1136.97 538.448L1136.97 534.541z"/>
<path class="l5" d="M1011.94 604.87L1015.85 604.87L1015.85 608.777L1011.94 608.777L1011.94 604.87z"/>
<path class="l5" d="M1168.23 597.056L1172.13 597.056L1172.13 600.963L1168.23 600.963L1168.23 597.056z"/>
<path class="l5" d="M1121.34 667.385L1125.25 667.385L1125.25 671.293L1121.34 671.293L1121.34 667.385z"/>
<path class="l5" d="M1136.97 667.385L1140.88 667.385L1140.88 671.293L1136.97 671.293L1136.97 667.385z"/>
<path class="l5" d="M550.89 628.313L554.797 628.313L554.797 632.221L550.89 632.221L550.89 628.313z"/>
<path class="l5" d="M433.674 690.829L437.581 690.829L437.581 694.736L433.674 694.736L433.674 690.829z"/>
<path class="l5" d="M597.776 722.086L601.684 722.086L601.684 725.993L597.776 725.993L597.776 722.086z"/>
<path class="l5" d="M761.879 370.438L765.786 370.438L765.786 374.346L761.879 374.346L761.879 370.438z"/>
<path class="l5" d="M879.095 440.768L883.002 440.768L883.002 444.675L879.095 444.675L879.095 440.768z"/>
<path class="l5" d="M722.807 432.954L726.714 432.954L726.714 436.861L722.807 436.861L722.807 432.954z"/>
<path class="l5" d="M879.095 417.325L883.002 417.325L883.002 421.232L879.095 421.232L879.095 417.325z"/>
<path class="l5" d="M777.507 495.469L781.415 495.469L781.415 499.376L777.507 499.376L777.507 495.469z"/>
<path class="l5" d="M754.064 495.469L757.971 495.469L757.971 499.376L754.064 499.376L754.064 495.469z"/>
<path class="l5" d="M621.22 503.283L625.127 503.283L625.127 507.19L621.22 507.19L621.22 503.283z"/>
<path class="l5" d="M660.292 565.798L664.199 565.798L664.199 569.705L660.292 569.705L660.292 565.798z"/>
<path class="l5" d="M660.292 432.954L664.199 432.954L664.199 436.861L660.292 436.861L660.292 432.954z"/>
<path class="l5" d="M441.489 346.995L445.396 346.995L445.396 350.902L441.489 350.902L441.489 346.995z"/>
<path class="l5" d="M410.231 417.325L414.138 417.325L414.138 421.232L410.231 421.232L410.231 417.325z"/>
<path class="l5" d="M543.076 432.954L546.983 432.954L546.983 436.861L543.076 436.861L543.076 432.954z"/>
<path class="l5" d="M410.231 432.954L414.138 432.954L414.138 436.861L410.231 436.861L410.231 432.954z"/>
<path class="l5" d="M457.117 495.469L461.025 495.469L461.025 499.376L457.117 499.376L457.117 495.469z"/>
<path class="l5" d="M441.489 495.469L445.396 495.469L445.396 499.376L441.489 499.376L441.489 495.469z"/>
<path class="l5" d="M543.076 456.397L546.983 456.397L546.983 460.304L543.076 460.304L543.076 456.397z"/>
<path class="l5" d="M480.561 495.469L484.468 495.469L484.468 499.376L480.561 499.376L480.561 495.469z"/>
<path class="l5" d="M496.189 495.469L500.097 495.469L500.097 499.376L496.189 499.376L496.189 495.469z"/>
<path class="l5" d="M238.314 354.81L242.222 354.81L242.222 358.717L238.314 358.717L238.314 354.81z"/>
<path class="l5" d="M371.159 417.325L375.066 417.325L375.066 421.232L371.159 421.232L371.159 417.325z"/>
<path class="l5" d="M207.057 417.325L210.964 417.325L210.964 421.232L207.057 421.232L207.057 417.325z"/>
<path class="l5" d="M371.159 432.954L375.066 432.954L375.066 436.861L371.159 436.861L371.159 432.954z"/>
<path class="l5" d="M207.057 432.954L210.964 432.954L210.964 436.861L207.057 436.861L207.057 432.954z"/>
<path class="l5" d="M238.314 495.469L242.222 495.469L242.222 499.376L238.314 499.376L238.314 495.469z"/>
<path class="l5" d="M622.196 433.93L624.15 433.93L624.15 435.884L622.196 435.884L622.196 433.93z"/>
<path class="l5" d="M864.443 605.847L866.396 605.847L866.396 607.801L864.443 607.801L864.443 605.847z"/>
<path class="l5" d="M269.572 659.571L273.479 659.571L273.479 663.478L269.572 663.478L269.572 659.571z"/>
<path class="l5" d="M425.86 659.571L429.767 659.571L429.767 663.478L425.86 663.478L425.86 659.571z"/>
<path class="l5" d="M425.86 675.2L429.767 675.2L429.767 679.107L425.86 679.107L425.86 675.2z"/>
<path class="l5" d="M269.572 675.2L273.479 675.2L273.479 679.107L269.572 679.107L269.572 675.2z"/>
<path class="l5" d="M269.572 690.829L273.479 690.829L273.479 694.736L269.572 694.736L269.572 690.829z"/>
<path class="l5" d="M425.86 690.829L429.767 690.829L429.767 694.736L425.86 694.736L425.86 690.829z"/>
<path class="l5" d="M606.568 457.374L608.521 457.374L608.521 459.327L606.568 459.327L606.568 457.374z"/>
<path class="l5" d="M497.166 527.703L499.12 527.703L499.12 529.657L497.166 529.657L497.166 527.703z"/>
<path class="l5" d="M426.837 691.805L428.79 691.805L428.79 693.759L426.837 693.759L426.837 691.805z"/>
<path class="l9" d="M1068.59 591.195L1099.85 591.195"/>
<path class="l1" d="M1170.18 434.907L1170.18 599.009"/>
<path class="l1" d="M1107.67 434.907L1170.18 434.907"/>
<path class="l1" d="M795.09 739.669L1006.08 739.669"/>
<path class="l1" d="M1006.08 497.422L1006.08 739.669"/>
<path class="l1" d="M982.635 505.237L982.635 700.597"/>
<path class="l1" d="M982.635 700.597L982.635 794.369"/>
<path class="l1" d="M216.825 794.369L818.533 794.369"/>
<path class="l1" d="M193.382 606.824L716.946 606.824"/>
<path class="l1" d="M193.382 513.051L193.382 606.824"/>
<path class="l1" d="M193.382 434.907L209.01 434.907"/>
<path class="l1" d="M193.382 434.907L193.382 513.051"/>
<path class="l1" d="M240.268 161.403L240.268 356.763"/>
<path class="l1" d="M240.268 161.403L818.533 161.403"/>
<path class="l1" d="M982.635 161.403L982.635 348.949"/>
<path class="l1" d="M138.681 794.369L209.01 794.369"/>
<path class="l1" d="M209.01 794.369L216.825 794.369"/>
<path class="l1" d="M146.495 739.669L795.09 739.669"/>
<path class="l1" d="M115.238 161.403L248.082 161.403"/>
<path class="l1" d="M123.052 419.278L209.01 419.278"/>
<path class="l1" d="M240.268 497.422L240.268 794.369"/>
<path class="l1" d="M1170.18 434.907L1287.4 434.907"/>
<path class="l1" d="M818.533 161.403L982.635 161.403"/>
<path class="l1" d="M818.533 794.369L982.635 794.369"/>
<path class="l1" d="M373.113 419.278L412.185 419.278"/>
<path class="l1" d="M373.113 434.907L412.185 434.907"/>
<path class="l1" d="M716.946 606.824L1013.89 606.824"/>
<path class="l1" d="M1123.29 677.153L1123.29 739.669"/>
<path class="l1" d="M1006.08 739.669L1123.29 739.669"/>
<path class="l1" d="M881.048 419.278L951.378 419.278"/>
<path class="l1" d="M881.048 442.722L896.677 442.722"/>
<path class="l1" d="M896.677 419.278L896.677 442.722"/>
<path class="l1" d="M1123.29 669.339L1123.29 677.153"/>
<path class="l1" d="M1138.92 669.339L1138.92 794.369"/>
<path class="l1" d="M982.635 794.369L1138.92 794.369"/>
<path class="l1" d="M1138.92 161.403L1138.92 536.494"/>
<path class="l1" d="M982.635 161.403L1138.92 161.403"/>
<path class="l1" d="M443.442 161.403L443.442 348.949"/>
<path class="l1" d="M763.832 161.403L763.832 372.392"/>
<path class="l1" d="M459.071 497.422L459.071 575.566"/>
<path class="l1" d="M779.461 497.422L779.461 575.566"/>
<path class="l1" d="M138.681 575.566L779.461 575.566"/>
<path class="l1" d="M552.844 575.566L552.844 630.267"/>
<path class="l1" d="M662.245 434.907L724.76 434.907"/>
<path class="l1" d="M545.029 434.907L662.245 434.907"/>
<path class="l1" d="M662.245 567.752L662.245 794.369"/>
<path class="l1" d="M756.018 497.422L756.018 794.369"/>
<path class="l1" d="M545.029 458.35L623.173 458.35"/>
<path class="l1" d="M623.173 458.35L623.173 505.237"/>
<path class="l1" d="M482.514 497.422L482.514 622.453"/>
<path class="l1" d="M263.711 622.453L482.514 622.453"/>
<path class="l1" d="M263.711 622.453L263.711 739.669"/>
<path class="l1" d="M185.567 661.525L271.526 661.525"/>
<path class="l1" d="M185.567 161.403L185.567 661.525"/>
<path class="l1" d="M271.526 692.782L271.526 794.369"/>
<path class="l1" d="M263.711 677.153L271.526 677.153"/>
<path class="l1" d="M427.813 661.525L435.628 661.525"/>
<path class="l1" d="M435.628 630.267L435.628 661.525"/>
<path class="l1" d="M435.628 630.267L498.143 630.267"/>
<path class="l1" d="M498.143 497.422L498.143 630.267"/>
<path class="l1" d="M443.442 497.422L443.442 520.866"/>
<path class="l1" d="M240.268 520.866L443.442 520.866"/>
<path class="l1" d="M599.73 724.04L599.73 794.369"/>
<path class="l1" d="M427.813 692.782L435.628 692.782"/>
<path class="l1" d="M427.813 677.153L435.628 677.153"/>
<circle class="l1" cx="248.082" cy="161.403" r="3.12576"/>
<circle class="l1" cx="185.567" cy="161.403" r="3.12576"/>
<circle class="l1" cx="443.442" cy="161.403" r="3.12576"/>
<circle class="l1" cx="240.268" cy="161.403" r="3.12576"/>
<circle class="l1" cx="240.268" cy="161.403" r="3.12576"/>
<circle class="l1" cx="240.268" cy="520.866" r="3.12576"/>
<circle class="l1" cx="263.711" cy="677.153" r="3.12576"/>
<circle class="l1" cx="271.526" cy="794.369" r="3.12576"/>
<circle class="l1" cx="263.711" cy="739.669" r="3.12576"/>
<circle class="l1" cx="459.071" cy="575.566" r="3.12576"/>
<circle class="l1" cx="240.268" cy="794.369" r="3.12576"/>
<circle class="l1" cx="763.832" cy="161.403" r="3.12576"/>
<circle class="l1" cx="599.73" cy="794.369" r="3.12576"/>
<circle class="l1" cx="756.018" cy="794.369" r="3.12576"/>
<circle class="l1" cx="662.245" cy="794.369" r="3.12576"/>
<circle class="l1" cx="552.844" cy="575.566" r="3.12576"/>
<circle class="l1" cx="1006.08" cy="739.669" r="3.12576"/>
<circle class="l1" cx="982.635" cy="161.403" r="3.12576"/>
<circle class="l1" cx="982.635" cy="161.403" r="3.12576"/>
<circle class="l1" cx="982.635" cy="161.403" r="3.12576"/>
<circle class="l1" cx="896.677" cy="419.278" r="3.12576"/>
<circle class="l1" cx="1170.18" cy="434.907" r="3.12576"/>
<circle class="l1" cx="982.635" cy="794.369" r="3.12576"/>
<circle class="l1" cx="1006.08" cy="739.669" r="3.12576"/>
<circle class="l1" cx="982.635" cy="794.369" r="3.12576"/>
<circle class="l1" cx="982.635" cy="794.369" r="3.12576"/>
<circle class="l1" cx="1006.08" cy="739.669" r="3.12576"/>
<circle class="l1" cx="1170.18" cy="434.907" r="3.12576"/>
<circle class="l1" cx="1170.18" cy="434.907" r="3.12576"/>
</svg>
