<?xml version="1.0" encoding="utf-8" standalone="no"?>
<!DOCTYPE svg PUBLIC "-//W3C//DTD SVG 1.1//EN"
  "http://www.w3.org/Graphics/SVG/1.1/DTD/svg11.dtd">
<svg xmlns:xlink="http://www.w3.org/1999/xlink" width="460.8pt" height="345.6pt" viewBox="0 0 460.8 345.6" xmlns="http://www.w3.org/2000/svg" version="1.1">
 <metadata>
  <rdf:RDF xmlns:dc="http://purl.org/dc/elements/1.1/" xmlns:cc="http://creativecommons.org/ns#" xmlns:rdf="http://www.w3.org/1999/02/22-rdf-syntax-ns#">
   <cc:Work>
    <dc:type rdf:resource="http://purl.org/dc/dcmitype/StillImage"/>
    <dc:date>2024-10-13T13:48:09.596965</dc:date>
    <dc:format>image/svg+xml</dc:format>
    <dc:creator>
     <cc:Agent>
      <dc:title>Matplotlib v3.8.3, https://matplotlib.org/</dc:title>
     </cc:Agent>
    </dc:creator>
   </cc:Work>
  </rdf:RDF>
 </metadata>
 <defs>
  <style type="text/css">*{stroke-linejoin: round; stroke-linecap: butt}</style>
 </defs>
 <g id="figure_1">
  <g id="patch_1">
   <path d="M 0 345.6 
L 460.8 345.6 
L 460.8 0 
L 0 0 
z
" style="fill: #ffffff"/>
  </g>
  <g id="axes_1">
   <g id="patch_2">
    <path d="M 38.37125 54.983466 
L 450 54.983466 
L 450 10.8 
L 38.37125 10.8 
z
" style="fill: #ffffff"/>
   </g>
   <g id="matplotlib.axis_1">
    <g id="xtick_1">
     <g id="line2d_1">
      <path d="M 57.081648 54.983466 
L 57.081648 10.8 
" clip-path="url(#p8cea70dce5)" style="fill: none; stroke: #b0b0b0; stroke-width: 0.8; stroke-linecap: square"/>
     </g>
     <g id="line2d_2">
      <defs>
       <path id="mfe9722bc33" d="M 0 0 
L 0 3.5 
" style="stroke: #000000; stroke-width: 0.8"/>
      </defs>
      <g>
       <use xlink:href="#mfe9722bc33" x="57.081648" y="54.983466" style="stroke: #000000; stroke-width: 0.8"/>
      </g>
     </g>
    </g>
    <g id="xtick_2">
     <g id="line2d_3">
      <path d="M 103.857642 54.983466 
L 103.857642 10.8 
" clip-path="url(#p8cea70dce5)" style="fill: none; stroke: #b0b0b0; stroke-width: 0.8; stroke-linecap: square"/>
     </g>
     <g id="line2d_4">
      <g>
       <use xlink:href="#mfe9722bc33" x="103.857642" y="54.983466" style="stroke: #000000; stroke-width: 0.8"/>
      </g>
     </g>
    </g>
    <g id="xtick_3">
     <g id="line2d_5">
      <path d="M 150.633636 54.983466 
L 150.633636 10.8 
" clip-path="url(#p8cea70dce5)" style="fill: none; stroke: #b0b0b0; stroke-width: 0.8; stroke-linecap: square"/>
     </g>
     <g id="line2d_6">
      <g>
       <use xlink:href="#mfe9722bc33" x="150.633636" y="54.983466" style="stroke: #000000; stroke-width: 0.8"/>
      </g>
     </g>
    </g>
    <g id="xtick_4">
     <g id="line2d_7">
      <path d="M 197.409631 54.983466 
L 197.409631 10.8 
" clip-path="url(#p8cea70dce5)" style="fill: none; stroke: #b0b0b0; stroke-width: 0.8; stroke-linecap: square"/>
     </g>
     <g id="line2d_8">
      <g>
       <use xlink:href="#mfe9722bc33" x="197.409631" y="54.983466" style="stroke: #000000; stroke-width: 0.8"/>
      </g>
     </g>
    </g>
    <g id="xtick_5">
     <g id="line2d_9">
      <path d="M 244.185625 54.983466 
L 244.185625 10.8 
" clip-path="url(#p8cea70dce5)" style="fill: none; stroke: #b0b0b0; stroke-width: 0.8; stroke-linecap: square"/>
     </g>
     <g id="line2d_10">
      <g>
       <use xlink:href="#mfe9722bc33" x="244.185625" y="54.983466" style="stroke: #000000; stroke-width: 0.8"/>
      </g>
     </g>
    </g>
    <g id="xtick_6">
     <g id="line2d_11">
      <path d="M 290.961619 54.983466 
L 290.961619 10.8 
" clip-path="url(#p8cea70dce5)" style="fill: none; stroke: #b0b0b0; stroke-width: 0.8; stroke-linecap: square"/>
     </g>
     <g id="line2d_12">
      <g>
       <use xlink:href="#mfe9722bc33" x="290.961619" y="54.983466" style="stroke: #000000; stroke-width: 0.8"/>
      </g>
     </g>
    </g>
    <g id="xtick_7">
     <g id="line2d_13">
      <path d="M 337.737614 54.983466 
L 337.737614 10.8 
" clip-path="url(#p8cea70dce5)" style="fill: none; stroke: #b0b0b0; stroke-width: 0.8; stroke-linecap: square"/>
     </g>
     <g id="line2d_14">
      <g>
       <use xlink:href="#mfe9722bc33" x="337.737614" y="54.983466" style="stroke: #000000; stroke-width: 0.8"/>
      </g>
     </g>
    </g>
    <g id="xtick_8">
     <g id="line2d_15">
      <path d="M 384.513608 54.983466 
L 384.513608 10.8 
" clip-path="url(#p8cea70dce5)" style="fill: none; stroke: #b0b0b0; stroke-width: 0.8; stroke-linecap: square"/>
     </g>
     <g id="line2d_16">
      <g>
       <use xlink:href="#mfe9722bc33" x="384.513608" y="54.983466" style="stroke: #000000; stroke-width: 0.8"/>
      </g>
     </g>
    </g>
    <g id="xtick_9">
     <g id="line2d_17">
      <path d="M 431.289602 54.983466 
L 431.289602 10.8 
" clip-path="url(#p8cea70dce5)" style="fill: none; stroke: #b0b0b0; stroke-width: 0.8; stroke-linecap: square"/>
     </g>
     <g id="line2d_18">
      <g>
       <use xlink:href="#mfe9722bc33" x="431.289602" y="54.983466" style="stroke: #000000; stroke-width: 0.8"/>
      </g>
     </g>
    </g>
   </g>
   <g id="matplotlib.axis_2">
    <g id="ytick_1">
     <g id="line2d_19">
      <path d="M 38.37125 52.975126 
L 450 52.975126 
" clip-path="url(#p8cea70dce5)" style="fill: none; stroke: #b0b0b0; stroke-width: 0.8; stroke-linecap: square"/>
     </g>
     <g id="line2d_20">
      <defs>
       <path id="m7aecb2bf2d" d="M 0 0 
L -3.5 0 
" style="stroke: #000000; stroke-width: 0.8"/>
      </defs>
      <g>
       <use xlink:href="#m7aecb2bf2d" x="38.37125" y="52.975126" style="stroke: #000000; stroke-width: 0.8"/>
      </g>
     </g>
     <g id="text_1">
      <!-- 0 -->
      <g transform="translate(25.00875 56.774345) scale(0.1 -0.1)">
       <defs>
        <path id="DejaVuSans-30" d="M 2034 4250 
Q 1547 4250 1301 3770 
Q 1056 3291 1056 2328 
Q 1056 1369 1301 889 
Q 1547 409 2034 409 
Q 2525 409 2770 889 
Q 3016 1369 3016 2328 
Q 3016 3291 2770 3770 
Q 2525 4250 2034 4250 
z
M 2034 4750 
Q 2819 4750 3233 4129 
Q 3647 3509 3647 2328 
Q 3647 1150 3233 529 
Q 2819 -91 2034 -91 
Q 1250 -91 836 529 
Q 422 1150 422 2328 
Q 422 3509 836 4129 
Q 1250 4750 2034 4750 
z
" transform="scale(0.015625)"/>
       </defs>
       <use xlink:href="#DejaVuSans-30"/>
      </g>
     </g>
    </g>
    <g id="ytick_2">
     <g id="line2d_21">
      <path d="M 38.37125 30.660245 
L 450 30.660245 
" clip-path="url(#p8cea70dce5)" style="fill: none; stroke: #b0b0b0; stroke-width: 0.8; stroke-linecap: square"/>
     </g>
     <g id="line2d_22">
      <g>
       <use xlink:href="#m7aecb2bf2d" x="38.37125" y="30.660245" style="stroke: #000000; stroke-width: 0.8"/>
      </g>
     </g>
     <g id="text_2">
      <!-- 1 -->
      <g transform="translate(25.00875 34.459464) scale(0.1 -0.1)">
       <defs>
        <path id="DejaVuSans-31" d="M 794 531 
L 1825 531 
L 1825 4091 
L 703 3866 
L 703 4441 
L 1819 4666 
L 2450 4666 
L 2450 531 
L 3481 531 
L 3481 0 
L 794 0 
L 794 531 
z
" transform="scale(0.015625)"/>
       </defs>
       <use xlink:href="#DejaVuSans-31"/>
      </g>
     </g>
    </g>
    <g id="text_3">
     <!-- v(ck_ref) -->
     <g transform="translate(18.650938 54.676889) rotate(-90) scale(0.1 -0.1)">
      <defs>
       <path id="DejaVuSans-76" d="M 191 3500 
L 800 3500 
L 1894 563 
L 2988 3500 
L 3597 3500 
L 2284 0 
L 1503 0 
L 191 3500 
z
" transform="scale(0.015625)"/>
       <path id="DejaVuSans-28" d="M 1984 4856 
Q 1566 4138 1362 3434 
Q 1159 2731 1159 2009 
Q 1159 1288 1364 580 
Q 1569 -128 1984 -844 
L 1484 -844 
Q 1016 -109 783 600 
Q 550 1309 550 2009 
Q 550 2706 781 3412 
Q 1013 4119 1484 4856 
L 1984 4856 
z
" transform="scale(0.015625)"/>
       <path id="DejaVuSans-63" d="M 3122 3366 
L 3122 2828 
Q 2878 2963 2633 3030 
Q 2388 3097 2138 3097 
Q 1578 3097 1268 2742 
Q 959 2388 959 1747 
Q 959 1106 1268 751 
Q 1578 397 2138 397 
Q 2388 397 2633 464 
Q 2878 531 3122 666 
L 3122 134 
Q 2881 22 2623 -34 
Q 2366 -91 2075 -91 
Q 1284 -91 818 406 
Q 353 903 353 1747 
Q 353 2603 823 3093 
Q 1294 3584 2113 3584 
Q 2378 3584 2631 3529 
Q 2884 3475 3122 3366 
z
" transform="scale(0.015625)"/>
       <path id="DejaVuSans-6b" d="M 581 4863 
L 1159 4863 
L 1159 1991 
L 2875 3500 
L 3609 3500 
L 1753 1863 
L 3688 0 
L 2938 0 
L 1159 1709 
L 1159 0 
L 581 0 
L 581 4863 
z
" transform="scale(0.015625)"/>
       <path id="DejaVuSans-5f" d="M 3263 -1063 
L 3263 -1509 
L -63 -1509 
L -63 -1063 
L 3263 -1063 
z
" transform="scale(0.015625)"/>
       <path id="DejaVuSans-72" d="M 2631 2963 
Q 2534 3019 2420 3045 
Q 2306 3072 2169 3072 
Q 1681 3072 1420 2755 
Q 1159 2438 1159 1844 
L 1159 0 
L 581 0 
L 581 3500 
L 1159 3500 
L 1159 2956 
Q 1341 3275 1631 3429 
Q 1922 3584 2338 3584 
Q 2397 3584 2469 3576 
Q 2541 3569 2628 3553 
L 2631 2963 
z
" transform="scale(0.015625)"/>
       <path id="DejaVuSans-65" d="M 3597 1894 
L 3597 1613 
L 953 1613 
Q 991 1019 1311 708 
Q 1631 397 2203 397 
Q 2534 397 2845 478 
Q 3156 559 3463 722 
L 3463 178 
Q 3153 47 2828 -22 
Q 2503 -91 2169 -91 
Q 1331 -91 842 396 
Q 353 884 353 1716 
Q 353 2575 817 3079 
Q 1281 3584 2069 3584 
Q 2775 3584 3186 3129 
Q 3597 2675 3597 1894 
z
M 3022 2063 
Q 3016 2534 2758 2815 
Q 2500 3097 2075 3097 
Q 1594 3097 1305 2825 
Q 1016 2553 972 2059 
L 3022 2063 
z
" transform="scale(0.015625)"/>
       <path id="DejaVuSans-66" d="M 2375 4863 
L 2375 4384 
L 1825 4384 
Q 1516 4384 1395 4259 
Q 1275 4134 1275 3809 
L 1275 3500 
L 2222 3500 
L 2222 3053 
L 1275 3053 
L 1275 0 
L 697 0 
L 697 3053 
L 147 3053 
L 147 3500 
L 697 3500 
L 697 3744 
Q 697 4328 969 4595 
Q 1241 4863 1831 4863 
L 2375 4863 
z
" transform="scale(0.015625)"/>
       <path id="DejaVuSans-29" d="M 513 4856 
L 1013 4856 
Q 1481 4119 1714 3412 
Q 1947 2706 1947 2009 
Q 1947 1309 1714 600 
Q 1481 -109 1013 -844 
L 513 -844 
Q 928 -128 1133 580 
Q 1338 1288 1338 2009 
Q 1338 2731 1133 3434 
Q 928 4138 513 4856 
z
" transform="scale(0.015625)"/>
      </defs>
      <use xlink:href="#DejaVuSans-76"/>
      <use xlink:href="#DejaVuSans-28" x="59.179688"/>
      <use xlink:href="#DejaVuSans-63" x="98.193359"/>
      <use xlink:href="#DejaVuSans-6b" x="153.173828"/>
      <use xlink:href="#DejaVuSans-5f" x="211.083984"/>
      <use xlink:href="#DejaVuSans-72" x="261.083984"/>
      <use xlink:href="#DejaVuSans-65" x="299.947266"/>
      <use xlink:href="#DejaVuSans-66" x="361.470703"/>
      <use xlink:href="#DejaVuSans-29" x="396.675781"/>
     </g>
    </g>
   </g>
   <g id="line2d_23">
    <path d="M 57.081648 52.975126 
L 57.175798 12.808339 
L 115.570351 12.808339 
L 115.683362 52.975126 
L 174.021634 52.975126 
L 174.134644 12.808339 
L 232.510337 12.808339 
L 232.623348 52.975126 
L 290.961619 52.975126 
L 291.07463 12.808339 
L 349.450323 12.808339 
L 349.563333 52.975126 
L 407.901605 52.975126 
L 408.014616 12.808339 
L 431.289602 12.808339 
L 431.289602 12.808339 
" clip-path="url(#p8cea70dce5)" style="fill: none; stroke: #1f77b4; stroke-width: 1.5; stroke-linecap: square"/>
   </g>
   <g id="patch_3">
    <path d="M 38.37125 54.983466 
L 38.37125 10.8 
" style="fill: none; stroke: #000000; stroke-width: 0.8; stroke-linejoin: miter; stroke-linecap: square"/>
   </g>
   <g id="patch_4">
    <path d="M 450 54.983466 
L 450 10.8 
" style="fill: none; stroke: #000000; stroke-width: 0.8; stroke-linejoin: miter; stroke-linecap: square"/>
   </g>
   <g id="patch_5">
    <path d="M 38.37125 54.983466 
L 450 54.983466 
" style="fill: none; stroke: #000000; stroke-width: 0.8; stroke-linejoin: miter; stroke-linecap: square"/>
   </g>
   <g id="patch_6">
    <path d="M 38.37125 10.8 
L 450 10.8 
" style="fill: none; stroke: #000000; stroke-width: 0.8; stroke-linejoin: miter; stroke-linecap: square"/>
   </g>
   <g id="legend_1">
    <g id="patch_7">
     <path d="M 367.429688 33.75625 
L 443 33.75625 
Q 445 33.75625 445 31.75625 
L 445 17.8 
Q 445 15.8 443 15.8 
L 367.429688 15.8 
Q 365.429688 15.8 365.429688 17.8 
L 365.429688 31.75625 
Q 365.429688 33.75625 367.429688 33.75625 
z
" style="fill: #ffffff; opacity: 0.8; stroke: #cccccc; stroke-linejoin: miter"/>
    </g>
    <g id="line2d_24">
     <path d="M 369.429688 23.898438 
L 379.429688 23.898438 
L 389.429688 23.898438 
" style="fill: none; stroke: #1f77b4; stroke-width: 1.5; stroke-linecap: square"/>
    </g>
    <g id="text_4">
     <!-- v(ck_ref) -->
     <g transform="translate(397.429688 27.398438) scale(0.1 -0.1)">
      <use xlink:href="#DejaVuSans-76"/>
      <use xlink:href="#DejaVuSans-28" x="59.179688"/>
      <use xlink:href="#DejaVuSans-63" x="98.193359"/>
      <use xlink:href="#DejaVuSans-6b" x="153.173828"/>
      <use xlink:href="#DejaVuSans-5f" x="211.083984"/>
      <use xlink:href="#DejaVuSans-72" x="261.083984"/>
      <use xlink:href="#DejaVuSans-65" x="299.947266"/>
      <use xlink:href="#DejaVuSans-66" x="361.470703"/>
      <use xlink:href="#DejaVuSans-29" x="396.675781"/>
     </g>
    </g>
   </g>
  </g>
  <g id="axes_2">
   <g id="patch_8">
    <path d="M 38.37125 117.122287 
L 450 117.122287 
L 450 72.938821 
L 38.37125 72.938821 
z
" style="fill: #ffffff"/>
   </g>
   <g id="matplotlib.axis_3">
    <g id="xtick_10">
     <g id="line2d_25">
      <path d="M 57.081648 117.122287 
L 57.081648 72.938821 
" clip-path="url(#p848c74a265)" style="fill: none; stroke: #b0b0b0; stroke-width: 0.8; stroke-linecap: square"/>
     </g>
     <g id="line2d_26">
      <g>
       <use xlink:href="#mfe9722bc33" x="57.081648" y="117.122287" style="stroke: #000000; stroke-width: 0.8"/>
      </g>
     </g>
    </g>
    <g id="xtick_11">
     <g id="line2d_27">
      <path d="M 103.857642 117.122287 
L 103.857642 72.938821 
" clip-path="url(#p848c74a265)" style="fill: none; stroke: #b0b0b0; stroke-width: 0.8; stroke-linecap: square"/>
     </g>
     <g id="line2d_28">
      <g>
       <use xlink:href="#mfe9722bc33" x="103.857642" y="117.122287" style="stroke: #000000; stroke-width: 0.8"/>
      </g>
     </g>
    </g>
    <g id="xtick_12">
     <g id="line2d_29">
      <path d="M 150.633636 117.122287 
L 150.633636 72.938821 
" clip-path="url(#p848c74a265)" style="fill: none; stroke: #b0b0b0; stroke-width: 0.8; stroke-linecap: square"/>
     </g>
     <g id="line2d_30">
      <g>
       <use xlink:href="#mfe9722bc33" x="150.633636" y="117.122287" style="stroke: #000000; stroke-width: 0.8"/>
      </g>
     </g>
    </g>
    <g id="xtick_13">
     <g id="line2d_31">
      <path d="M 197.409631 117.122287 
L 197.409631 72.938821 
" clip-path="url(#p848c74a265)" style="fill: none; stroke: #b0b0b0; stroke-width: 0.8; stroke-linecap: square"/>
     </g>
     <g id="line2d_32">
      <g>
       <use xlink:href="#mfe9722bc33" x="197.409631" y="117.122287" style="stroke: #000000; stroke-width: 0.8"/>
      </g>
     </g>
    </g>
    <g id="xtick_14">
     <g id="line2d_33">
      <path d="M 244.185625 117.122287 
L 244.185625 72.938821 
" clip-path="url(#p848c74a265)" style="fill: none; stroke: #b0b0b0; stroke-width: 0.8; stroke-linecap: square"/>
     </g>
     <g id="line2d_34">
      <g>
       <use xlink:href="#mfe9722bc33" x="244.185625" y="117.122287" style="stroke: #000000; stroke-width: 0.8"/>
      </g>
     </g>
    </g>
    <g id="xtick_15">
     <g id="line2d_35">
      <path d="M 290.961619 117.122287 
L 290.961619 72.938821 
" clip-path="url(#p848c74a265)" style="fill: none; stroke: #b0b0b0; stroke-width: 0.8; stroke-linecap: square"/>
     </g>
     <g id="line2d_36">
      <g>
       <use xlink:href="#mfe9722bc33" x="290.961619" y="117.122287" style="stroke: #000000; stroke-width: 0.8"/>
      </g>
     </g>
    </g>
    <g id="xtick_16">
     <g id="line2d_37">
      <path d="M 337.737614 117.122287 
L 337.737614 72.938821 
" clip-path="url(#p848c74a265)" style="fill: none; stroke: #b0b0b0; stroke-width: 0.8; stroke-linecap: square"/>
     </g>
     <g id="line2d_38">
      <g>
       <use xlink:href="#mfe9722bc33" x="337.737614" y="117.122287" style="stroke: #000000; stroke-width: 0.8"/>
      </g>
     </g>
    </g>
    <g id="xtick_17">
     <g id="line2d_39">
      <path d="M 384.513608 117.122287 
L 384.513608 72.938821 
" clip-path="url(#p848c74a265)" style="fill: none; stroke: #b0b0b0; stroke-width: 0.8; stroke-linecap: square"/>
     </g>
     <g id="line2d_40">
      <g>
       <use xlink:href="#mfe9722bc33" x="384.513608" y="117.122287" style="stroke: #000000; stroke-width: 0.8"/>
      </g>
     </g>
    </g>
    <g id="xtick_18">
     <g id="line2d_41">
      <path d="M 431.289602 117.122287 
L 431.289602 72.938821 
" clip-path="url(#p848c74a265)" style="fill: none; stroke: #b0b0b0; stroke-width: 0.8; stroke-linecap: square"/>
     </g>
     <g id="line2d_42">
      <g>
       <use xlink:href="#mfe9722bc33" x="431.289602" y="117.122287" style="stroke: #000000; stroke-width: 0.8"/>
      </g>
     </g>
    </g>
   </g>
   <g id="matplotlib.axis_4">
    <g id="ytick_3">
     <g id="line2d_43">
      <path d="M 38.37125 115.113948 
L 450 115.113948 
" clip-path="url(#p848c74a265)" style="fill: none; stroke: #b0b0b0; stroke-width: 0.8; stroke-linecap: square"/>
     </g>
     <g id="line2d_44">
      <g>
       <use xlink:href="#m7aecb2bf2d" x="38.37125" y="115.113948" style="stroke: #000000; stroke-width: 0.8"/>
      </g>
     </g>
     <g id="text_5">
      <!-- 0 -->
      <g transform="translate(25.00875 118.913166) scale(0.1 -0.1)">
       <use xlink:href="#DejaVuSans-30"/>
      </g>
     </g>
    </g>
    <g id="ytick_4">
     <g id="line2d_45">
      <path d="M 38.37125 92.799066 
L 450 92.799066 
" clip-path="url(#p848c74a265)" style="fill: none; stroke: #b0b0b0; stroke-width: 0.8; stroke-linecap: square"/>
     </g>
     <g id="line2d_46">
      <g>
       <use xlink:href="#m7aecb2bf2d" x="38.37125" y="92.799066" style="stroke: #000000; stroke-width: 0.8"/>
      </g>
     </g>
     <g id="text_6">
      <!-- 1 -->
      <g transform="translate(25.00875 96.598285) scale(0.1 -0.1)">
       <use xlink:href="#DejaVuSans-31"/>
      </g>
     </g>
    </g>
    <g id="text_7">
     <!-- v(ck_fb) -->
     <g transform="translate(18.650938 114.970398) rotate(-90) scale(0.1 -0.1)">
      <defs>
       <path id="DejaVuSans-62" d="M 3116 1747 
Q 3116 2381 2855 2742 
Q 2594 3103 2138 3103 
Q 1681 3103 1420 2742 
Q 1159 2381 1159 1747 
Q 1159 1113 1420 752 
Q 1681 391 2138 391 
Q 2594 391 2855 752 
Q 3116 1113 3116 1747 
z
M 1159 2969 
Q 1341 3281 1617 3432 
Q 1894 3584 2278 3584 
Q 2916 3584 3314 3078 
Q 3713 2572 3713 1747 
Q 3713 922 3314 415 
Q 2916 -91 2278 -91 
Q 1894 -91 1617 61 
Q 1341 213 1159 525 
L 1159 0 
L 581 0 
L 581 4863 
L 1159 4863 
L 1159 2969 
z
" transform="scale(0.015625)"/>
      </defs>
      <use xlink:href="#DejaVuSans-76"/>
      <use xlink:href="#DejaVuSans-28" x="59.179688"/>
      <use xlink:href="#DejaVuSans-63" x="98.193359"/>
      <use xlink:href="#DejaVuSans-6b" x="153.173828"/>
      <use xlink:href="#DejaVuSans-5f" x="211.083984"/>
      <use xlink:href="#DejaVuSans-66" x="261.083984"/>
      <use xlink:href="#DejaVuSans-62" x="296.289062"/>
      <use xlink:href="#DejaVuSans-29" x="359.765625"/>
     </g>
    </g>
   </g>
   <g id="line2d_47">
    <path d="M 57.081648 115.113948 
L 57.175798 74.94716 
L 150.652347 74.94716 
L 150.765358 115.113948 
L 244.185625 115.113948 
L 244.298636 74.94716 
L 337.756324 74.94716 
L 337.869335 115.113948 
L 431.289602 115.113948 
L 431.289602 115.113948 
" clip-path="url(#p848c74a265)" style="fill: none; stroke: #1f77b4; stroke-width: 1.5; stroke-linecap: square"/>
   </g>
   <g id="patch_9">
    <path d="M 38.37125 117.122287 
L 38.37125 72.938821 
" style="fill: none; stroke: #000000; stroke-width: 0.8; stroke-linejoin: miter; stroke-linecap: square"/>
   </g>
   <g id="patch_10">
    <path d="M 450 117.122287 
L 450 72.938821 
" style="fill: none; stroke: #000000; stroke-width: 0.8; stroke-linejoin: miter; stroke-linecap: square"/>
   </g>
   <g id="patch_11">
    <path d="M 38.37125 117.122287 
L 450 117.122287 
" style="fill: none; stroke: #000000; stroke-width: 0.8; stroke-linejoin: miter; stroke-linecap: square"/>
   </g>
   <g id="patch_12">
    <path d="M 38.37125 72.938821 
L 450 72.938821 
" style="fill: none; stroke: #000000; stroke-width: 0.8; stroke-linejoin: miter; stroke-linecap: square"/>
   </g>
   <g id="legend_2">
    <g id="patch_13">
     <path d="M 371.120313 95.895071 
L 443 95.895071 
Q 445 95.895071 445 93.895071 
L 445 79.938821 
Q 445 77.938821 443 77.938821 
L 371.120313 77.938821 
Q 369.120313 77.938821 369.120313 79.938821 
L 369.120313 93.895071 
Q 369.120313 95.895071 371.120313 95.895071 
z
" style="fill: #ffffff; opacity: 0.8; stroke: #cccccc; stroke-linejoin: miter"/>
    </g>
    <g id="line2d_48">
     <path d="M 373.120313 86.037259 
L 383.120313 86.037259 
L 393.120313 86.037259 
" style="fill: none; stroke: #1f77b4; stroke-width: 1.5; stroke-linecap: square"/>
    </g>
    <g id="text_8">
     <!-- v(ck_fb) -->
     <g transform="translate(401.120313 89.537259) scale(0.1 -0.1)">
      <use xlink:href="#DejaVuSans-76"/>
      <use xlink:href="#DejaVuSans-28" x="59.179688"/>
      <use xlink:href="#DejaVuSans-63" x="98.193359"/>
      <use xlink:href="#DejaVuSans-6b" x="153.173828"/>
      <use xlink:href="#DejaVuSans-5f" x="211.083984"/>
      <use xlink:href="#DejaVuSans-66" x="261.083984"/>
      <use xlink:href="#DejaVuSans-62" x="296.289062"/>
      <use xlink:href="#DejaVuSans-29" x="359.765625"/>
     </g>
    </g>
   </g>
  </g>
  <g id="axes_3">
   <g id="patch_14">
    <path d="M 38.37125 179.261108 
L 450 179.261108 
L 450 135.077642 
L 38.37125 135.077642 
z
" style="fill: #ffffff"/>
   </g>
   <g id="matplotlib.axis_5">
    <g id="xtick_19">
     <g id="line2d_49">
      <path d="M 57.081648 179.261108 
L 57.081648 135.077642 
" clip-path="url(#p737b69796a)" style="fill: none; stroke: #b0b0b0; stroke-width: 0.8; stroke-linecap: square"/>
     </g>
     <g id="line2d_50">
      <g>
       <use xlink:href="#mfe9722bc33" x="57.081648" y="179.261108" style="stroke: #000000; stroke-width: 0.8"/>
      </g>
     </g>
    </g>
    <g id="xtick_20">
     <g id="line2d_51">
      <path d="M 103.857642 179.261108 
L 103.857642 135.077642 
" clip-path="url(#p737b69796a)" style="fill: none; stroke: #b0b0b0; stroke-width: 0.8; stroke-linecap: square"/>
     </g>
     <g id="line2d_52">
      <g>
       <use xlink:href="#mfe9722bc33" x="103.857642" y="179.261108" style="stroke: #000000; stroke-width: 0.8"/>
      </g>
     </g>
    </g>
    <g id="xtick_21">
     <g id="line2d_53">
      <path d="M 150.633636 179.261108 
L 150.633636 135.077642 
" clip-path="url(#p737b69796a)" style="fill: none; stroke: #b0b0b0; stroke-width: 0.8; stroke-linecap: square"/>
     </g>
     <g id="line2d_54">
      <g>
       <use xlink:href="#mfe9722bc33" x="150.633636" y="179.261108" style="stroke: #000000; stroke-width: 0.8"/>
      </g>
     </g>
    </g>
    <g id="xtick_22">
     <g id="line2d_55">
      <path d="M 197.409631 179.261108 
L 197.409631 135.077642 
" clip-path="url(#p737b69796a)" style="fill: none; stroke: #b0b0b0; stroke-width: 0.8; stroke-linecap: square"/>
     </g>
     <g id="line2d_56">
      <g>
       <use xlink:href="#mfe9722bc33" x="197.409631" y="179.261108" style="stroke: #000000; stroke-width: 0.8"/>
      </g>
     </g>
    </g>
    <g id="xtick_23">
     <g id="line2d_57">
      <path d="M 244.185625 179.261108 
L 244.185625 135.077642 
" clip-path="url(#p737b69796a)" style="fill: none; stroke: #b0b0b0; stroke-width: 0.8; stroke-linecap: square"/>
     </g>
     <g id="line2d_58">
      <g>
       <use xlink:href="#mfe9722bc33" x="244.185625" y="179.261108" style="stroke: #000000; stroke-width: 0.8"/>
      </g>
     </g>
    </g>
    <g id="xtick_24">
     <g id="line2d_59">
      <path d="M 290.961619 179.261108 
L 290.961619 135.077642 
" clip-path="url(#p737b69796a)" style="fill: none; stroke: #b0b0b0; stroke-width: 0.8; stroke-linecap: square"/>
     </g>
     <g id="line2d_60">
      <g>
       <use xlink:href="#mfe9722bc33" x="290.961619" y="179.261108" style="stroke: #000000; stroke-width: 0.8"/>
      </g>
     </g>
    </g>
    <g id="xtick_25">
     <g id="line2d_61">
      <path d="M 337.737614 179.261108 
L 337.737614 135.077642 
" clip-path="url(#p737b69796a)" style="fill: none; stroke: #b0b0b0; stroke-width: 0.8; stroke-linecap: square"/>
     </g>
     <g id="line2d_62">
      <g>
       <use xlink:href="#mfe9722bc33" x="337.737614" y="179.261108" style="stroke: #000000; stroke-width: 0.8"/>
      </g>
     </g>
    </g>
    <g id="xtick_26">
     <g id="line2d_63">
      <path d="M 384.513608 179.261108 
L 384.513608 135.077642 
" clip-path="url(#p737b69796a)" style="fill: none; stroke: #b0b0b0; stroke-width: 0.8; stroke-linecap: square"/>
     </g>
     <g id="line2d_64">
      <g>
       <use xlink:href="#mfe9722bc33" x="384.513608" y="179.261108" style="stroke: #000000; stroke-width: 0.8"/>
      </g>
     </g>
    </g>
    <g id="xtick_27">
     <g id="line2d_65">
      <path d="M 431.289602 179.261108 
L 431.289602 135.077642 
" clip-path="url(#p737b69796a)" style="fill: none; stroke: #b0b0b0; stroke-width: 0.8; stroke-linecap: square"/>
     </g>
     <g id="line2d_66">
      <g>
       <use xlink:href="#mfe9722bc33" x="431.289602" y="179.261108" style="stroke: #000000; stroke-width: 0.8"/>
      </g>
     </g>
    </g>
   </g>
   <g id="matplotlib.axis_6">
    <g id="ytick_5">
     <g id="line2d_67">
      <path d="M 38.37125 175.331352 
L 450 175.331352 
" clip-path="url(#p737b69796a)" style="fill: none; stroke: #b0b0b0; stroke-width: 0.8; stroke-linecap: square"/>
     </g>
     <g id="line2d_68">
      <g>
       <use xlink:href="#m7aecb2bf2d" x="38.37125" y="175.331352" style="stroke: #000000; stroke-width: 0.8"/>
      </g>
     </g>
     <g id="text_9">
      <!-- 0 -->
      <g transform="translate(25.00875 179.130571) scale(0.1 -0.1)">
       <use xlink:href="#DejaVuSans-30"/>
      </g>
     </g>
    </g>
    <g id="ytick_6">
     <g id="line2d_69">
      <path d="M 38.37125 146.979196 
L 450 146.979196 
" clip-path="url(#p737b69796a)" style="fill: none; stroke: #b0b0b0; stroke-width: 0.8; stroke-linecap: square"/>
     </g>
     <g id="line2d_70">
      <g>
       <use xlink:href="#m7aecb2bf2d" x="38.37125" y="146.979196" style="stroke: #000000; stroke-width: 0.8"/>
      </g>
     </g>
     <g id="text_10">
      <!-- 1 -->
      <g transform="translate(25.00875 150.778415) scale(0.1 -0.1)">
       <use xlink:href="#DejaVuSans-31"/>
      </g>
     </g>
    </g>
    <g id="text_11">
     <!-- v(xdut.cfb) -->
     <g transform="translate(18.929063 184.565469) rotate(-90) scale(0.1 -0.1)">
      <defs>
       <path id="DejaVuSans-78" d="M 3513 3500 
L 2247 1797 
L 3578 0 
L 2900 0 
L 1881 1375 
L 863 0 
L 184 0 
L 1544 1831 
L 300 3500 
L 978 3500 
L 1906 2253 
L 2834 3500 
L 3513 3500 
z
" transform="scale(0.015625)"/>
       <path id="DejaVuSans-64" d="M 2906 2969 
L 2906 4863 
L 3481 4863 
L 3481 0 
L 2906 0 
L 2906 525 
Q 2725 213 2448 61 
Q 2172 -91 1784 -91 
Q 1150 -91 751 415 
Q 353 922 353 1747 
Q 353 2572 751 3078 
Q 1150 3584 1784 3584 
Q 2172 3584 2448 3432 
Q 2725 3281 2906 2969 
z
M 947 1747 
Q 947 1113 1208 752 
Q 1469 391 1925 391 
Q 2381 391 2643 752 
Q 2906 1113 2906 1747 
Q 2906 2381 2643 2742 
Q 2381 3103 1925 3103 
Q 1469 3103 1208 2742 
Q 947 2381 947 1747 
z
" transform="scale(0.015625)"/>
       <path id="DejaVuSans-75" d="M 544 1381 
L 544 3500 
L 1119 3500 
L 1119 1403 
Q 1119 906 1312 657 
Q 1506 409 1894 409 
Q 2359 409 2629 706 
Q 2900 1003 2900 1516 
L 2900 3500 
L 3475 3500 
L 3475 0 
L 2900 0 
L 2900 538 
Q 2691 219 2414 64 
Q 2138 -91 1772 -91 
Q 1169 -91 856 284 
Q 544 659 544 1381 
z
M 1991 3584 
L 1991 3584 
z
" transform="scale(0.015625)"/>
       <path id="DejaVuSans-74" d="M 1172 4494 
L 1172 3500 
L 2356 3500 
L 2356 3053 
L 1172 3053 
L 1172 1153 
Q 1172 725 1289 603 
Q 1406 481 1766 481 
L 2356 481 
L 2356 0 
L 1766 0 
Q 1100 0 847 248 
Q 594 497 594 1153 
L 594 3053 
L 172 3053 
L 172 3500 
L 594 3500 
L 594 4494 
L 1172 4494 
z
" transform="scale(0.015625)"/>
       <path id="DejaVuSans-2e" d="M 684 794 
L 1344 794 
L 1344 0 
L 684 0 
L 684 794 
z
" transform="scale(0.015625)"/>
      </defs>
      <use xlink:href="#DejaVuSans-76"/>
      <use xlink:href="#DejaVuSans-28" x="59.179688"/>
      <use xlink:href="#DejaVuSans-78" x="98.193359"/>
      <use xlink:href="#DejaVuSans-64" x="157.373047"/>
      <use xlink:href="#DejaVuSans-75" x="220.849609"/>
      <use xlink:href="#DejaVuSans-74" x="284.228516"/>
      <use xlink:href="#DejaVuSans-2e" x="323.4375"/>
      <use xlink:href="#DejaVuSans-63" x="355.224609"/>
      <use xlink:href="#DejaVuSans-66" x="410.205078"/>
      <use xlink:href="#DejaVuSans-62" x="445.410156"/>
      <use xlink:href="#DejaVuSans-29" x="508.886719"/>
     </g>
    </g>
   </g>
   <g id="line2d_71">
    <path d="M 57.081648 175.331352 
L 57.175798 174.162974 
L 62.003979 168.587139 
L 66.908798 164.669542 
L 74.392957 160.333472 
L 75.792045 161.293322 
L 76.122594 163.157927 
L 76.563326 170.106711 
L 77.444789 175.441457 
L 78.273479 175.198102 
L 79.136026 175.406138 
L 80.501217 175.258811 
L 82.596352 175.395192 
L 85.607752 175.268164 
L 90.505131 175.39353 
L 97.98929 175.26901 
L 105.473449 175.392858 
L 112.957608 175.269732 
L 115.575964 175.50088 
L 115.589061 175.760618 
L 115.635463 175.251947 
L 116.108492 175.329158 
L 124.277285 175.333226 
L 150.654218 175.388832 
L 150.671057 175.762709 
L 150.717459 175.248596 
L 151.190508 175.329165 
L 159.359213 175.333215 
L 174.021634 175.333198 
L 174.034731 174.89709 
L 174.062796 176.136972 
L 174.086746 176.005325 
L 174.210963 175.332481 
L 175.29605 175.333884 
L 185.950955 175.328989 
L 232.512208 175.387981 
L 232.529047 175.898556 
L 232.575449 175.291545 
L 232.719145 175.324061 
L 234.060306 175.332729 
L 244.185625 175.329448 
L 244.250737 177.252769 
L 244.590501 137.085981 
L 244.859884 176.380824 
L 245.019879 174.336707 
L 245.170099 176.115924 
L 245.388642 174.61581 
L 245.735076 175.992702 
L 246.256515 174.692184 
L 247.151455 175.948282 
L 248.624542 174.718282 
L 251.09032 175.933218 
L 255.930324 174.726957 
L 263.414483 175.928626 
L 270.898642 174.730464 
L 278.382802 175.924912 
L 285.866961 174.734136 
L 290.961619 175.920561 
L 290.974717 175.050405 
L 291.07463 175.464262 
L 291.245508 175.33274 
L 292.912611 175.327257 
L 302.049418 175.327617 
L 337.758195 175.382274 
L 337.775034 175.866818 
L 337.821436 175.177423 
L 338.256998 175.34133 
L 339.537576 175.327689 
L 349.452194 175.380298 
L 349.469033 175.794311 
L 349.491485 175.271015 
L 349.515435 175.300333 
L 349.659131 175.325058 
L 351.000292 175.333716 
L 384.18206 175.333571 
L 407.901605 175.333466 
L 407.914702 174.794734 
L 407.942768 175.462447 
L 407.966717 175.36751 
L 408.110413 175.337262 
L 409.451574 175.327525 
L 431.289602 175.334912 
L 431.289602 175.334912 
" clip-path="url(#p737b69796a)" style="fill: none; stroke: #1f77b4; stroke-width: 1.5; stroke-linecap: square"/>
   </g>
   <g id="patch_15">
    <path d="M 38.37125 179.261108 
L 38.37125 135.077642 
" style="fill: none; stroke: #000000; stroke-width: 0.8; stroke-linejoin: miter; stroke-linecap: square"/>
   </g>
   <g id="patch_16">
    <path d="M 450 179.261108 
L 450 135.077642 
" style="fill: none; stroke: #000000; stroke-width: 0.8; stroke-linejoin: miter; stroke-linecap: square"/>
   </g>
   <g id="patch_17">
    <path d="M 38.37125 179.261108 
L 450 179.261108 
" style="fill: none; stroke: #000000; stroke-width: 0.8; stroke-linejoin: miter; stroke-linecap: square"/>
   </g>
   <g id="patch_18">
    <path d="M 38.37125 135.077642 
L 450 135.077642 
" style="fill: none; stroke: #000000; stroke-width: 0.8; stroke-linejoin: miter; stroke-linecap: square"/>
   </g>
   <g id="legend_3">
    <g id="patch_19">
     <path d="M 356.207812 157.755767 
L 443 157.755767 
Q 445 157.755767 445 155.755767 
L 445 142.077642 
Q 445 140.077642 443 140.077642 
L 356.207812 140.077642 
Q 354.207812 140.077642 354.207812 142.077642 
L 354.207812 155.755767 
Q 354.207812 157.755767 356.207812 157.755767 
z
" style="fill: #ffffff; opacity: 0.8; stroke: #cccccc; stroke-linejoin: miter"/>
    </g>
    <g id="line2d_72">
     <path d="M 358.207812 148.17608 
L 368.207812 148.17608 
L 378.207812 148.17608 
" style="fill: none; stroke: #1f77b4; stroke-width: 1.5; stroke-linecap: square"/>
    </g>
    <g id="text_12">
     <!-- v(xdut.cfb) -->
     <g transform="translate(386.207812 151.67608) scale(0.1 -0.1)">
      <use xlink:href="#DejaVuSans-76"/>
      <use xlink:href="#DejaVuSans-28" x="59.179688"/>
      <use xlink:href="#DejaVuSans-78" x="98.193359"/>
      <use xlink:href="#DejaVuSans-64" x="157.373047"/>
      <use xlink:href="#DejaVuSans-75" x="220.849609"/>
      <use xlink:href="#DejaVuSans-74" x="284.228516"/>
      <use xlink:href="#DejaVuSans-2e" x="323.4375"/>
      <use xlink:href="#DejaVuSans-63" x="355.224609"/>
      <use xlink:href="#DejaVuSans-66" x="410.205078"/>
      <use xlink:href="#DejaVuSans-62" x="445.410156"/>
      <use xlink:href="#DejaVuSans-29" x="508.886719"/>
     </g>
    </g>
   </g>
  </g>
  <g id="axes_4">
   <g id="patch_20">
    <path d="M 38.37125 241.399929 
L 450 241.399929 
L 450 197.216463 
L 38.37125 197.216463 
z
" style="fill: #ffffff"/>
   </g>
   <g id="matplotlib.axis_7">
    <g id="xtick_28">
     <g id="line2d_73">
      <path d="M 57.081648 241.399929 
L 57.081648 197.216463 
" clip-path="url(#p6b3e69f3b3)" style="fill: none; stroke: #b0b0b0; stroke-width: 0.8; stroke-linecap: square"/>
     </g>
     <g id="line2d_74">
      <g>
       <use xlink:href="#mfe9722bc33" x="57.081648" y="241.399929" style="stroke: #000000; stroke-width: 0.8"/>
      </g>
     </g>
    </g>
    <g id="xtick_29">
     <g id="line2d_75">
      <path d="M 103.857642 241.399929 
L 103.857642 197.216463 
" clip-path="url(#p6b3e69f3b3)" style="fill: none; stroke: #b0b0b0; stroke-width: 0.8; stroke-linecap: square"/>
     </g>
     <g id="line2d_76">
      <g>
       <use xlink:href="#mfe9722bc33" x="103.857642" y="241.399929" style="stroke: #000000; stroke-width: 0.8"/>
      </g>
     </g>
    </g>
    <g id="xtick_30">
     <g id="line2d_77">
      <path d="M 150.633636 241.399929 
L 150.633636 197.216463 
" clip-path="url(#p6b3e69f3b3)" style="fill: none; stroke: #b0b0b0; stroke-width: 0.8; stroke-linecap: square"/>
     </g>
     <g id="line2d_78">
      <g>
       <use xlink:href="#mfe9722bc33" x="150.633636" y="241.399929" style="stroke: #000000; stroke-width: 0.8"/>
      </g>
     </g>
    </g>
    <g id="xtick_31">
     <g id="line2d_79">
      <path d="M 197.409631 241.399929 
L 197.409631 197.216463 
" clip-path="url(#p6b3e69f3b3)" style="fill: none; stroke: #b0b0b0; stroke-width: 0.8; stroke-linecap: square"/>
     </g>
     <g id="line2d_80">
      <g>
       <use xlink:href="#mfe9722bc33" x="197.409631" y="241.399929" style="stroke: #000000; stroke-width: 0.8"/>
      </g>
     </g>
    </g>
    <g id="xtick_32">
     <g id="line2d_81">
      <path d="M 244.185625 241.399929 
L 244.185625 197.216463 
" clip-path="url(#p6b3e69f3b3)" style="fill: none; stroke: #b0b0b0; stroke-width: 0.8; stroke-linecap: square"/>
     </g>
     <g id="line2d_82">
      <g>
       <use xlink:href="#mfe9722bc33" x="244.185625" y="241.399929" style="stroke: #000000; stroke-width: 0.8"/>
      </g>
     </g>
    </g>
    <g id="xtick_33">
     <g id="line2d_83">
      <path d="M 290.961619 241.399929 
L 290.961619 197.216463 
" clip-path="url(#p6b3e69f3b3)" style="fill: none; stroke: #b0b0b0; stroke-width: 0.8; stroke-linecap: square"/>
     </g>
     <g id="line2d_84">
      <g>
       <use xlink:href="#mfe9722bc33" x="290.961619" y="241.399929" style="stroke: #000000; stroke-width: 0.8"/>
      </g>
     </g>
    </g>
    <g id="xtick_34">
     <g id="line2d_85">
      <path d="M 337.737614 241.399929 
L 337.737614 197.216463 
" clip-path="url(#p6b3e69f3b3)" style="fill: none; stroke: #b0b0b0; stroke-width: 0.8; stroke-linecap: square"/>
     </g>
     <g id="line2d_86">
      <g>
       <use xlink:href="#mfe9722bc33" x="337.737614" y="241.399929" style="stroke: #000000; stroke-width: 0.8"/>
      </g>
     </g>
    </g>
    <g id="xtick_35">
     <g id="line2d_87">
      <path d="M 384.513608 241.399929 
L 384.513608 197.216463 
" clip-path="url(#p6b3e69f3b3)" style="fill: none; stroke: #b0b0b0; stroke-width: 0.8; stroke-linecap: square"/>
     </g>
     <g id="line2d_88">
      <g>
       <use xlink:href="#mfe9722bc33" x="384.513608" y="241.399929" style="stroke: #000000; stroke-width: 0.8"/>
      </g>
     </g>
    </g>
    <g id="xtick_36">
     <g id="line2d_89">
      <path d="M 431.289602 241.399929 
L 431.289602 197.216463 
" clip-path="url(#p6b3e69f3b3)" style="fill: none; stroke: #b0b0b0; stroke-width: 0.8; stroke-linecap: square"/>
     </g>
     <g id="line2d_90">
      <g>
       <use xlink:href="#mfe9722bc33" x="431.289602" y="241.399929" style="stroke: #000000; stroke-width: 0.8"/>
      </g>
     </g>
    </g>
   </g>
   <g id="matplotlib.axis_8">
    <g id="ytick_7">
     <g id="line2d_91">
      <path d="M 38.37125 237.684993 
L 450 237.684993 
" clip-path="url(#p6b3e69f3b3)" style="fill: none; stroke: #b0b0b0; stroke-width: 0.8; stroke-linecap: square"/>
     </g>
     <g id="line2d_92">
      <g>
       <use xlink:href="#m7aecb2bf2d" x="38.37125" y="237.684993" style="stroke: #000000; stroke-width: 0.8"/>
      </g>
     </g>
     <g id="text_13">
      <!-- 0 -->
      <g transform="translate(25.00875 241.484212) scale(0.1 -0.1)">
       <use xlink:href="#DejaVuSans-30"/>
      </g>
     </g>
    </g>
    <g id="ytick_8">
     <g id="line2d_93">
      <path d="M 38.37125 216.857993 
L 450 216.857993 
" clip-path="url(#p6b3e69f3b3)" style="fill: none; stroke: #b0b0b0; stroke-width: 0.8; stroke-linecap: square"/>
     </g>
     <g id="line2d_94">
      <g>
       <use xlink:href="#m7aecb2bf2d" x="38.37125" y="216.857993" style="stroke: #000000; stroke-width: 0.8"/>
      </g>
     </g>
     <g id="text_14">
      <!-- 1 -->
      <g transform="translate(25.00875 220.657212) scale(0.1 -0.1)">
       <use xlink:href="#DejaVuSans-31"/>
      </g>
     </g>
    </g>
    <g id="text_15">
     <!-- v(xdut.cp_up) -->
     <g transform="translate(18.650938 253.787102) rotate(-90) scale(0.1 -0.1)">
      <defs>
       <path id="DejaVuSans-70" d="M 1159 525 
L 1159 -1331 
L 581 -1331 
L 581 3500 
L 1159 3500 
L 1159 2969 
Q 1341 3281 1617 3432 
Q 1894 3584 2278 3584 
Q 2916 3584 3314 3078 
Q 3713 2572 3713 1747 
Q 3713 922 3314 415 
Q 2916 -91 2278 -91 
Q 1894 -91 1617 61 
Q 1341 213 1159 525 
z
M 3116 1747 
Q 3116 2381 2855 2742 
Q 2594 3103 2138 3103 
Q 1681 3103 1420 2742 
Q 1159 2381 1159 1747 
Q 1159 1113 1420 752 
Q 1681 391 2138 391 
Q 2594 391 2855 752 
Q 3116 1113 3116 1747 
z
" transform="scale(0.015625)"/>
      </defs>
      <use xlink:href="#DejaVuSans-76"/>
      <use xlink:href="#DejaVuSans-28" x="59.179688"/>
      <use xlink:href="#DejaVuSans-78" x="98.193359"/>
      <use xlink:href="#DejaVuSans-64" x="157.373047"/>
      <use xlink:href="#DejaVuSans-75" x="220.849609"/>
      <use xlink:href="#DejaVuSans-74" x="284.228516"/>
      <use xlink:href="#DejaVuSans-2e" x="323.4375"/>
      <use xlink:href="#DejaVuSans-63" x="355.224609"/>
      <use xlink:href="#DejaVuSans-70" x="410.205078"/>
      <use xlink:href="#DejaVuSans-5f" x="473.681641"/>
      <use xlink:href="#DejaVuSans-75" x="523.681641"/>
      <use xlink:href="#DejaVuSans-70" x="587.060547"/>
      <use xlink:href="#DejaVuSans-29" x="650.537109"/>
     </g>
    </g>
   </g>
   <g id="line2d_95">
    <path d="M 57.081648 237.684993 
L 57.175798 236.978023 
L 62.003979 232.483022 
L 66.908798 229.290399 
L 74.392957 206.629767 
L 75.792045 202.95737 
L 75.902228 203.121162 
L 76.122594 203.671193 
L 76.563326 209.162477 
L 77.444789 235.939976 
L 78.273479 238.164782 
L 79.136026 237.286794 
L 80.501217 237.994742 
L 82.596352 237.393127 
L 85.607752 237.962501 
L 90.505131 237.40569 
L 97.98929 237.957098 
L 105.473449 237.410199 
L 112.957608 237.952616 
L 115.570351 237.418779 
L 115.572222 237.495108 
L 115.589061 237.735329 
L 115.683362 237.681585 
L 124.277285 237.685526 
L 174.034731 237.571986 
L 174.062796 239.239616 
L 174.086746 238.490861 
L 174.291497 200.536039 
L 174.375866 199.91555 
L 174.526753 200.475922 
L 174.66615 199.932845 
L 174.944945 200.455641 
L 175.29605 199.945664 
L 175.83106 200.445261 
L 176.663514 199.952304 
L 178.025643 200.440909 
L 180.69029 199.954736 
L 185.950955 200.439631 
L 193.435114 199.95544 
L 200.919273 200.439023 
L 208.403432 199.956042 
L 215.887591 200.438417 
L 223.37175 199.956636 
L 230.85591 200.43781 
L 232.510337 199.958289 
L 232.529047 200.872598 
L 232.623348 200.205603 
L 233.293928 200.195346 
L 244.454191 200.173146 
L 244.590501 199.452466 
L 244.859884 238.594253 
L 245.019879 236.814453 
L 245.170099 238.462133 
L 245.388642 236.947325 
L 245.735076 238.377664 
L 246.256515 237.003524 
L 247.151455 238.34392 
L 248.624542 237.023943 
L 251.09032 238.332065 
L 255.930324 237.030938 
L 263.414483 238.328447 
L 270.898642 237.033404 
L 278.382802 238.325082 
L 285.866961 237.036322 
L 290.961619 238.321825 
L 291.026732 239.39159 
L 291.335382 200.05445 
L 291.475155 200.369567 
L 291.619963 200.016356 
L 291.90958 200.378762 
L 292.294896 200.016546 
L 292.912611 200.376818 
L 293.905989 200.018133 
L 295.390034 200.375525 
L 297.816413 200.018989 
L 302.049418 200.374964 
L 309.533577 200.019301 
L 317.017736 200.374716 
L 324.501895 200.019545 
L 331.986054 200.374471 
L 337.756324 200.01982 
L 337.758195 200.10252 
L 337.769421 200.225911 
L 337.869335 200.197466 
L 343.244238 200.196351 
L 349.450323 200.19635 
L 349.469033 200.852782 
L 349.515435 200.308795 
L 349.659131 200.193648 
L 352.533048 200.195558 
L 407.903476 200.149628 
L 407.920316 199.224802 
L 407.966717 200.105959 
L 408.110413 200.194856 
L 414.049842 200.197107 
L 431.289602 200.195713 
L 431.289602 200.195713 
" clip-path="url(#p6b3e69f3b3)" style="fill: none; stroke: #1f77b4; stroke-width: 1.5; stroke-linecap: square"/>
   </g>
   <g id="patch_21">
    <path d="M 38.37125 241.399929 
L 38.37125 197.216463 
" style="fill: none; stroke: #000000; stroke-width: 0.8; stroke-linejoin: miter; stroke-linecap: square"/>
   </g>
   <g id="patch_22">
    <path d="M 450 241.399929 
L 450 197.216463 
" style="fill: none; stroke: #000000; stroke-width: 0.8; stroke-linejoin: miter; stroke-linecap: square"/>
   </g>
   <g id="patch_23">
    <path d="M 38.37125 241.399929 
L 450 241.399929 
" style="fill: none; stroke: #000000; stroke-width: 0.8; stroke-linejoin: miter; stroke-linecap: square"/>
   </g>
   <g id="patch_24">
    <path d="M 38.37125 197.216463 
L 450 197.216463 
" style="fill: none; stroke: #000000; stroke-width: 0.8; stroke-linejoin: miter; stroke-linecap: square"/>
   </g>
   <g id="legend_4">
    <g id="patch_25">
     <path d="M 342.042188 220.172713 
L 443 220.172713 
Q 445 220.172713 445 218.172713 
L 445 204.216463 
Q 445 202.216463 443 202.216463 
L 342.042188 202.216463 
Q 340.042188 202.216463 340.042188 204.216463 
L 340.042188 218.172713 
Q 340.042188 220.172713 342.042188 220.172713 
z
" style="fill: #ffffff; opacity: 0.8; stroke: #cccccc; stroke-linejoin: miter"/>
    </g>
    <g id="line2d_96">
     <path d="M 344.042188 210.314901 
L 354.042188 210.314901 
L 364.042188 210.314901 
" style="fill: none; stroke: #1f77b4; stroke-width: 1.5; stroke-linecap: square"/>
    </g>
    <g id="text_16">
     <!-- v(xdut.cp_up) -->
     <g transform="translate(372.042188 213.814901) scale(0.1 -0.1)">
      <use xlink:href="#DejaVuSans-76"/>
      <use xlink:href="#DejaVuSans-28" x="59.179688"/>
      <use xlink:href="#DejaVuSans-78" x="98.193359"/>
      <use xlink:href="#DejaVuSans-64" x="157.373047"/>
      <use xlink:href="#DejaVuSans-75" x="220.849609"/>
      <use xlink:href="#DejaVuSans-74" x="284.228516"/>
      <use xlink:href="#DejaVuSans-2e" x="323.4375"/>
      <use xlink:href="#DejaVuSans-63" x="355.224609"/>
      <use xlink:href="#DejaVuSans-70" x="410.205078"/>
      <use xlink:href="#DejaVuSans-5f" x="473.681641"/>
      <use xlink:href="#DejaVuSans-75" x="523.681641"/>
      <use xlink:href="#DejaVuSans-70" x="587.060547"/>
      <use xlink:href="#DejaVuSans-29" x="650.537109"/>
     </g>
    </g>
   </g>
  </g>
  <g id="axes_5">
   <g id="patch_26">
    <path d="M 38.37125 303.53875 
L 450 303.53875 
L 450 259.355284 
L 38.37125 259.355284 
z
" style="fill: #ffffff"/>
   </g>
   <g id="matplotlib.axis_9">
    <g id="xtick_37">
     <g id="line2d_97">
      <path d="M 57.081648 303.53875 
L 57.081648 259.355284 
" clip-path="url(#p678e30fc50)" style="fill: none; stroke: #b0b0b0; stroke-width: 0.8; stroke-linecap: square"/>
     </g>
     <g id="line2d_98">
      <g>
       <use xlink:href="#mfe9722bc33" x="57.081648" y="303.53875" style="stroke: #000000; stroke-width: 0.8"/>
      </g>
     </g>
     <g id="text_17">
      <!-- 0.00 -->
      <g transform="translate(45.948835 318.137187) scale(0.1 -0.1)">
       <use xlink:href="#DejaVuSans-30"/>
       <use xlink:href="#DejaVuSans-2e" x="63.623047"/>
       <use xlink:href="#DejaVuSans-30" x="95.410156"/>
       <use xlink:href="#DejaVuSans-30" x="159.033203"/>
      </g>
     </g>
    </g>
    <g id="xtick_38">
     <g id="line2d_99">
      <path d="M 103.857642 303.53875 
L 103.857642 259.355284 
" clip-path="url(#p678e30fc50)" style="fill: none; stroke: #b0b0b0; stroke-width: 0.8; stroke-linecap: square"/>
     </g>
     <g id="line2d_100">
      <g>
       <use xlink:href="#mfe9722bc33" x="103.857642" y="303.53875" style="stroke: #000000; stroke-width: 0.8"/>
      </g>
     </g>
     <g id="text_18">
      <!-- 0.25 -->
      <g transform="translate(92.72483 318.137187) scale(0.1 -0.1)">
       <defs>
        <path id="DejaVuSans-32" d="M 1228 531 
L 3431 531 
L 3431 0 
L 469 0 
L 469 531 
Q 828 903 1448 1529 
Q 2069 2156 2228 2338 
Q 2531 2678 2651 2914 
Q 2772 3150 2772 3378 
Q 2772 3750 2511 3984 
Q 2250 4219 1831 4219 
Q 1534 4219 1204 4116 
Q 875 4013 500 3803 
L 500 4441 
Q 881 4594 1212 4672 
Q 1544 4750 1819 4750 
Q 2544 4750 2975 4387 
Q 3406 4025 3406 3419 
Q 3406 3131 3298 2873 
Q 3191 2616 2906 2266 
Q 2828 2175 2409 1742 
Q 1991 1309 1228 531 
z
" transform="scale(0.015625)"/>
        <path id="DejaVuSans-35" d="M 691 4666 
L 3169 4666 
L 3169 4134 
L 1269 4134 
L 1269 2991 
Q 1406 3038 1543 3061 
Q 1681 3084 1819 3084 
Q 2600 3084 3056 2656 
Q 3513 2228 3513 1497 
Q 3513 744 3044 326 
Q 2575 -91 1722 -91 
Q 1428 -91 1123 -41 
Q 819 9 494 109 
L 494 744 
Q 775 591 1075 516 
Q 1375 441 1709 441 
Q 2250 441 2565 725 
Q 2881 1009 2881 1497 
Q 2881 1984 2565 2268 
Q 2250 2553 1709 2553 
Q 1456 2553 1204 2497 
Q 953 2441 691 2322 
L 691 4666 
z
" transform="scale(0.015625)"/>
       </defs>
       <use xlink:href="#DejaVuSans-30"/>
       <use xlink:href="#DejaVuSans-2e" x="63.623047"/>
       <use xlink:href="#DejaVuSans-32" x="95.410156"/>
       <use xlink:href="#DejaVuSans-35" x="159.033203"/>
      </g>
     </g>
    </g>
    <g id="xtick_39">
     <g id="line2d_101">
      <path d="M 150.633636 303.53875 
L 150.633636 259.355284 
" clip-path="url(#p678e30fc50)" style="fill: none; stroke: #b0b0b0; stroke-width: 0.8; stroke-linecap: square"/>
     </g>
     <g id="line2d_102">
      <g>
       <use xlink:href="#mfe9722bc33" x="150.633636" y="303.53875" style="stroke: #000000; stroke-width: 0.8"/>
      </g>
     </g>
     <g id="text_19">
      <!-- 0.50 -->
      <g transform="translate(139.500824 318.137187) scale(0.1 -0.1)">
       <use xlink:href="#DejaVuSans-30"/>
       <use xlink:href="#DejaVuSans-2e" x="63.623047"/>
       <use xlink:href="#DejaVuSans-35" x="95.410156"/>
       <use xlink:href="#DejaVuSans-30" x="159.033203"/>
      </g>
     </g>
    </g>
    <g id="xtick_40">
     <g id="line2d_103">
      <path d="M 197.409631 303.53875 
L 197.409631 259.355284 
" clip-path="url(#p678e30fc50)" style="fill: none; stroke: #b0b0b0; stroke-width: 0.8; stroke-linecap: square"/>
     </g>
     <g id="line2d_104">
      <g>
       <use xlink:href="#mfe9722bc33" x="197.409631" y="303.53875" style="stroke: #000000; stroke-width: 0.8"/>
      </g>
     </g>
     <g id="text_20">
      <!-- 0.75 -->
      <g transform="translate(186.276818 318.137187) scale(0.1 -0.1)">
       <defs>
        <path id="DejaVuSans-37" d="M 525 4666 
L 3525 4666 
L 3525 4397 
L 1831 0 
L 1172 0 
L 2766 4134 
L 525 4134 
L 525 4666 
z
" transform="scale(0.015625)"/>
       </defs>
       <use xlink:href="#DejaVuSans-30"/>
       <use xlink:href="#DejaVuSans-2e" x="63.623047"/>
       <use xlink:href="#DejaVuSans-37" x="95.410156"/>
       <use xlink:href="#DejaVuSans-35" x="159.033203"/>
      </g>
     </g>
    </g>
    <g id="xtick_41">
     <g id="line2d_105">
      <path d="M 244.185625 303.53875 
L 244.185625 259.355284 
" clip-path="url(#p678e30fc50)" style="fill: none; stroke: #b0b0b0; stroke-width: 0.8; stroke-linecap: square"/>
     </g>
     <g id="line2d_106">
      <g>
       <use xlink:href="#mfe9722bc33" x="244.185625" y="303.53875" style="stroke: #000000; stroke-width: 0.8"/>
      </g>
     </g>
     <g id="text_21">
      <!-- 1.00 -->
      <g transform="translate(233.052812 318.137187) scale(0.1 -0.1)">
       <use xlink:href="#DejaVuSans-31"/>
       <use xlink:href="#DejaVuSans-2e" x="63.623047"/>
       <use xlink:href="#DejaVuSans-30" x="95.410156"/>
       <use xlink:href="#DejaVuSans-30" x="159.033203"/>
      </g>
     </g>
    </g>
    <g id="xtick_42">
     <g id="line2d_107">
      <path d="M 290.961619 303.53875 
L 290.961619 259.355284 
" clip-path="url(#p678e30fc50)" style="fill: none; stroke: #b0b0b0; stroke-width: 0.8; stroke-linecap: square"/>
     </g>
     <g id="line2d_108">
      <g>
       <use xlink:href="#mfe9722bc33" x="290.961619" y="303.53875" style="stroke: #000000; stroke-width: 0.8"/>
      </g>
     </g>
     <g id="text_22">
      <!-- 1.25 -->
      <g transform="translate(279.828807 318.137187) scale(0.1 -0.1)">
       <use xlink:href="#DejaVuSans-31"/>
       <use xlink:href="#DejaVuSans-2e" x="63.623047"/>
       <use xlink:href="#DejaVuSans-32" x="95.410156"/>
       <use xlink:href="#DejaVuSans-35" x="159.033203"/>
      </g>
     </g>
    </g>
    <g id="xtick_43">
     <g id="line2d_109">
      <path d="M 337.737614 303.53875 
L 337.737614 259.355284 
" clip-path="url(#p678e30fc50)" style="fill: none; stroke: #b0b0b0; stroke-width: 0.8; stroke-linecap: square"/>
     </g>
     <g id="line2d_110">
      <g>
       <use xlink:href="#mfe9722bc33" x="337.737614" y="303.53875" style="stroke: #000000; stroke-width: 0.8"/>
      </g>
     </g>
     <g id="text_23">
      <!-- 1.50 -->
      <g transform="translate(326.604801 318.137187) scale(0.1 -0.1)">
       <use xlink:href="#DejaVuSans-31"/>
       <use xlink:href="#DejaVuSans-2e" x="63.623047"/>
       <use xlink:href="#DejaVuSans-35" x="95.410156"/>
       <use xlink:href="#DejaVuSans-30" x="159.033203"/>
      </g>
     </g>
    </g>
    <g id="xtick_44">
     <g id="line2d_111">
      <path d="M 384.513608 303.53875 
L 384.513608 259.355284 
" clip-path="url(#p678e30fc50)" style="fill: none; stroke: #b0b0b0; stroke-width: 0.8; stroke-linecap: square"/>
     </g>
     <g id="line2d_112">
      <g>
       <use xlink:href="#mfe9722bc33" x="384.513608" y="303.53875" style="stroke: #000000; stroke-width: 0.8"/>
      </g>
     </g>
     <g id="text_24">
      <!-- 1.75 -->
      <g transform="translate(373.380795 318.137187) scale(0.1 -0.1)">
       <use xlink:href="#DejaVuSans-31"/>
       <use xlink:href="#DejaVuSans-2e" x="63.623047"/>
       <use xlink:href="#DejaVuSans-37" x="95.410156"/>
       <use xlink:href="#DejaVuSans-35" x="159.033203"/>
      </g>
     </g>
    </g>
    <g id="xtick_45">
     <g id="line2d_113">
      <path d="M 431.289602 303.53875 
L 431.289602 259.355284 
" clip-path="url(#p678e30fc50)" style="fill: none; stroke: #b0b0b0; stroke-width: 0.8; stroke-linecap: square"/>
     </g>
     <g id="line2d_114">
      <g>
       <use xlink:href="#mfe9722bc33" x="431.289602" y="303.53875" style="stroke: #000000; stroke-width: 0.8"/>
      </g>
     </g>
     <g id="text_25">
      <!-- 2.00 -->
      <g transform="translate(420.15679 318.137187) scale(0.1 -0.1)">
       <use xlink:href="#DejaVuSans-32"/>
       <use xlink:href="#DejaVuSans-2e" x="63.623047"/>
       <use xlink:href="#DejaVuSans-30" x="95.410156"/>
       <use xlink:href="#DejaVuSans-30" x="159.033203"/>
      </g>
     </g>
    </g>
    <g id="text_26">
     <!-- time(output_tran/tran_SchGtKttTtVtLow.raw) -->
     <g transform="translate(132.606719 331.815312) scale(0.1 -0.1)">
      <defs>
       <path id="DejaVuSans-69" d="M 603 3500 
L 1178 3500 
L 1178 0 
L 603 0 
L 603 3500 
z
M 603 4863 
L 1178 4863 
L 1178 4134 
L 603 4134 
L 603 4863 
z
" transform="scale(0.015625)"/>
       <path id="DejaVuSans-6d" d="M 3328 2828 
Q 3544 3216 3844 3400 
Q 4144 3584 4550 3584 
Q 5097 3584 5394 3201 
Q 5691 2819 5691 2113 
L 5691 0 
L 5113 0 
L 5113 2094 
Q 5113 2597 4934 2840 
Q 4756 3084 4391 3084 
Q 3944 3084 3684 2787 
Q 3425 2491 3425 1978 
L 3425 0 
L 2847 0 
L 2847 2094 
Q 2847 2600 2669 2842 
Q 2491 3084 2119 3084 
Q 1678 3084 1418 2786 
Q 1159 2488 1159 1978 
L 1159 0 
L 581 0 
L 581 3500 
L 1159 3500 
L 1159 2956 
Q 1356 3278 1631 3431 
Q 1906 3584 2284 3584 
Q 2666 3584 2933 3390 
Q 3200 3197 3328 2828 
z
" transform="scale(0.015625)"/>
       <path id="DejaVuSans-6f" d="M 1959 3097 
Q 1497 3097 1228 2736 
Q 959 2375 959 1747 
Q 959 1119 1226 758 
Q 1494 397 1959 397 
Q 2419 397 2687 759 
Q 2956 1122 2956 1747 
Q 2956 2369 2687 2733 
Q 2419 3097 1959 3097 
z
M 1959 3584 
Q 2709 3584 3137 3096 
Q 3566 2609 3566 1747 
Q 3566 888 3137 398 
Q 2709 -91 1959 -91 
Q 1206 -91 779 398 
Q 353 888 353 1747 
Q 353 2609 779 3096 
Q 1206 3584 1959 3584 
z
" transform="scale(0.015625)"/>
       <path id="DejaVuSans-61" d="M 2194 1759 
Q 1497 1759 1228 1600 
Q 959 1441 959 1056 
Q 959 750 1161 570 
Q 1363 391 1709 391 
Q 2188 391 2477 730 
Q 2766 1069 2766 1631 
L 2766 1759 
L 2194 1759 
z
M 3341 1997 
L 3341 0 
L 2766 0 
L 2766 531 
Q 2569 213 2275 61 
Q 1981 -91 1556 -91 
Q 1019 -91 701 211 
Q 384 513 384 1019 
Q 384 1609 779 1909 
Q 1175 2209 1959 2209 
L 2766 2209 
L 2766 2266 
Q 2766 2663 2505 2880 
Q 2244 3097 1772 3097 
Q 1472 3097 1187 3025 
Q 903 2953 641 2809 
L 641 3341 
Q 956 3463 1253 3523 
Q 1550 3584 1831 3584 
Q 2591 3584 2966 3190 
Q 3341 2797 3341 1997 
z
" transform="scale(0.015625)"/>
       <path id="DejaVuSans-6e" d="M 3513 2113 
L 3513 0 
L 2938 0 
L 2938 2094 
Q 2938 2591 2744 2837 
Q 2550 3084 2163 3084 
Q 1697 3084 1428 2787 
Q 1159 2491 1159 1978 
L 1159 0 
L 581 0 
L 581 3500 
L 1159 3500 
L 1159 2956 
Q 1366 3272 1645 3428 
Q 1925 3584 2291 3584 
Q 2894 3584 3203 3211 
Q 3513 2838 3513 2113 
z
" transform="scale(0.015625)"/>
       <path id="DejaVuSans-2f" d="M 1625 4666 
L 2156 4666 
L 531 -594 
L 0 -594 
L 1625 4666 
z
" transform="scale(0.015625)"/>
       <path id="DejaVuSans-53" d="M 3425 4513 
L 3425 3897 
Q 3066 4069 2747 4153 
Q 2428 4238 2131 4238 
Q 1616 4238 1336 4038 
Q 1056 3838 1056 3469 
Q 1056 3159 1242 3001 
Q 1428 2844 1947 2747 
L 2328 2669 
Q 3034 2534 3370 2195 
Q 3706 1856 3706 1288 
Q 3706 609 3251 259 
Q 2797 -91 1919 -91 
Q 1588 -91 1214 -16 
Q 841 59 441 206 
L 441 856 
Q 825 641 1194 531 
Q 1563 422 1919 422 
Q 2459 422 2753 634 
Q 3047 847 3047 1241 
Q 3047 1584 2836 1778 
Q 2625 1972 2144 2069 
L 1759 2144 
Q 1053 2284 737 2584 
Q 422 2884 422 3419 
Q 422 4038 858 4394 
Q 1294 4750 2059 4750 
Q 2388 4750 2728 4690 
Q 3069 4631 3425 4513 
z
" transform="scale(0.015625)"/>
       <path id="DejaVuSans-68" d="M 3513 2113 
L 3513 0 
L 2938 0 
L 2938 2094 
Q 2938 2591 2744 2837 
Q 2550 3084 2163 3084 
Q 1697 3084 1428 2787 
Q 1159 2491 1159 1978 
L 1159 0 
L 581 0 
L 581 4863 
L 1159 4863 
L 1159 2956 
Q 1366 3272 1645 3428 
Q 1925 3584 2291 3584 
Q 2894 3584 3203 3211 
Q 3513 2838 3513 2113 
z
" transform="scale(0.015625)"/>
       <path id="DejaVuSans-47" d="M 3809 666 
L 3809 1919 
L 2778 1919 
L 2778 2438 
L 4434 2438 
L 4434 434 
Q 4069 175 3628 42 
Q 3188 -91 2688 -91 
Q 1594 -91 976 548 
Q 359 1188 359 2328 
Q 359 3472 976 4111 
Q 1594 4750 2688 4750 
Q 3144 4750 3555 4637 
Q 3966 4525 4313 4306 
L 4313 3634 
Q 3963 3931 3569 4081 
Q 3175 4231 2741 4231 
Q 1884 4231 1454 3753 
Q 1025 3275 1025 2328 
Q 1025 1384 1454 906 
Q 1884 428 2741 428 
Q 3075 428 3337 486 
Q 3600 544 3809 666 
z
" transform="scale(0.015625)"/>
       <path id="DejaVuSans-4b" d="M 628 4666 
L 1259 4666 
L 1259 2694 
L 3353 4666 
L 4166 4666 
L 1850 2491 
L 4331 0 
L 3500 0 
L 1259 2247 
L 1259 0 
L 628 0 
L 628 4666 
z
" transform="scale(0.015625)"/>
       <path id="DejaVuSans-54" d="M -19 4666 
L 3928 4666 
L 3928 4134 
L 2272 4134 
L 2272 0 
L 1638 0 
L 1638 4134 
L -19 4134 
L -19 4666 
z
" transform="scale(0.015625)"/>
       <path id="DejaVuSans-56" d="M 1831 0 
L 50 4666 
L 709 4666 
L 2188 738 
L 3669 4666 
L 4325 4666 
L 2547 0 
L 1831 0 
z
" transform="scale(0.015625)"/>
       <path id="DejaVuSans-4c" d="M 628 4666 
L 1259 4666 
L 1259 531 
L 3531 531 
L 3531 0 
L 628 0 
L 628 4666 
z
" transform="scale(0.015625)"/>
       <path id="DejaVuSans-77" d="M 269 3500 
L 844 3500 
L 1563 769 
L 2278 3500 
L 2956 3500 
L 3675 769 
L 4391 3500 
L 4966 3500 
L 4050 0 
L 3372 0 
L 2619 2869 
L 1863 0 
L 1184 0 
L 269 3500 
z
" transform="scale(0.015625)"/>
      </defs>
      <use xlink:href="#DejaVuSans-74"/>
      <use xlink:href="#DejaVuSans-69" x="39.208984"/>
      <use xlink:href="#DejaVuSans-6d" x="66.992188"/>
      <use xlink:href="#DejaVuSans-65" x="164.404297"/>
      <use xlink:href="#DejaVuSans-28" x="225.927734"/>
      <use xlink:href="#DejaVuSans-6f" x="264.941406"/>
      <use xlink:href="#DejaVuSans-75" x="326.123047"/>
      <use xlink:href="#DejaVuSans-74" x="389.501953"/>
      <use xlink:href="#DejaVuSans-70" x="428.710938"/>
      <use xlink:href="#DejaVuSans-75" x="492.1875"/>
      <use xlink:href="#DejaVuSans-74" x="555.566406"/>
      <use xlink:href="#DejaVuSans-5f" x="594.775391"/>
      <use xlink:href="#DejaVuSans-74" x="644.775391"/>
      <use xlink:href="#DejaVuSans-72" x="683.984375"/>
      <use xlink:href="#DejaVuSans-61" x="725.097656"/>
      <use xlink:href="#DejaVuSans-6e" x="786.376953"/>
      <use xlink:href="#DejaVuSans-2f" x="849.755859"/>
      <use xlink:href="#DejaVuSans-74" x="883.447266"/>
      <use xlink:href="#DejaVuSans-72" x="922.65625"/>
      <use xlink:href="#DejaVuSans-61" x="963.769531"/>
      <use xlink:href="#DejaVuSans-6e" x="1025.048828"/>
      <use xlink:href="#DejaVuSans-5f" x="1088.427734"/>
      <use xlink:href="#DejaVuSans-53" x="1138.427734"/>
      <use xlink:href="#DejaVuSans-63" x="1201.904297"/>
      <use xlink:href="#DejaVuSans-68" x="1256.884766"/>
      <use xlink:href="#DejaVuSans-47" x="1320.263672"/>
      <use xlink:href="#DejaVuSans-74" x="1397.753906"/>
      <use xlink:href="#DejaVuSans-4b" x="1436.962891"/>
      <use xlink:href="#DejaVuSans-74" x="1502.539062"/>
      <use xlink:href="#DejaVuSans-74" x="1541.748047"/>
      <use xlink:href="#DejaVuSans-54" x="1580.957031"/>
      <use xlink:href="#DejaVuSans-74" x="1642.041016"/>
      <use xlink:href="#DejaVuSans-56" x="1681.25"/>
      <use xlink:href="#DejaVuSans-74" x="1749.658203"/>
      <use xlink:href="#DejaVuSans-4c" x="1788.867188"/>
      <use xlink:href="#DejaVuSans-6f" x="1842.830078"/>
      <use xlink:href="#DejaVuSans-77" x="1904.011719"/>
      <use xlink:href="#DejaVuSans-2e" x="1976.673828"/>
      <use xlink:href="#DejaVuSans-72" x="2008.460938"/>
      <use xlink:href="#DejaVuSans-61" x="2049.574219"/>
      <use xlink:href="#DejaVuSans-77" x="2110.853516"/>
      <use xlink:href="#DejaVuSans-29" x="2192.640625"/>
     </g>
    </g>
    <g id="text_27">
     <!-- 1e7 -->
     <g transform="translate(422.742188 330.815312) scale(0.1 -0.1)">
      <defs>
       <path id="DejaVuSans-2212" d="M 678 2272 
L 4684 2272 
L 4684 1741 
L 678 1741 
L 678 2272 
z
" transform="scale(0.015625)"/>
      </defs>
      <use xlink:href="#DejaVuSans-31"/>
      <use xlink:href="#DejaVuSans-65" x="63.623047"/>
      <use xlink:href="#DejaVuSans-2212" x="125.146484"/>
      <use xlink:href="#DejaVuSans-37" x="208.935547"/>
     </g>
    </g>
   </g>
   <g id="matplotlib.axis_10">
    <g id="ytick_9">
     <g id="line2d_115">
      <path d="M 38.37125 299.554466 
L 450 299.554466 
" clip-path="url(#p678e30fc50)" style="fill: none; stroke: #b0b0b0; stroke-width: 0.8; stroke-linecap: square"/>
     </g>
     <g id="line2d_116">
      <g>
       <use xlink:href="#m7aecb2bf2d" x="38.37125" y="299.554466" style="stroke: #000000; stroke-width: 0.8"/>
      </g>
     </g>
     <g id="text_28">
      <!-- 0 -->
      <g transform="translate(25.00875 303.353685) scale(0.1 -0.1)">
       <use xlink:href="#DejaVuSans-30"/>
      </g>
     </g>
    </g>
    <g id="ytick_10">
     <g id="line2d_117">
      <path d="M 38.37125 259.648655 
L 450 259.648655 
" clip-path="url(#p678e30fc50)" style="fill: none; stroke: #b0b0b0; stroke-width: 0.8; stroke-linecap: square"/>
     </g>
     <g id="line2d_118">
      <g>
       <use xlink:href="#m7aecb2bf2d" x="38.37125" y="259.648655" style="stroke: #000000; stroke-width: 0.8"/>
      </g>
     </g>
     <g id="text_29">
      <!-- 2 -->
      <g transform="translate(25.00875 263.447874) scale(0.1 -0.1)">
       <use xlink:href="#DejaVuSans-32"/>
      </g>
     </g>
    </g>
    <g id="text_30">
     <!-- v(cp_down) -->
     <g transform="translate(18.650938 310.222798) rotate(-90) scale(0.1 -0.1)">
      <use xlink:href="#DejaVuSans-76"/>
      <use xlink:href="#DejaVuSans-28" x="59.179688"/>
      <use xlink:href="#DejaVuSans-63" x="98.193359"/>
      <use xlink:href="#DejaVuSans-70" x="153.173828"/>
      <use xlink:href="#DejaVuSans-5f" x="216.650391"/>
      <use xlink:href="#DejaVuSans-64" x="266.650391"/>
      <use xlink:href="#DejaVuSans-6f" x="330.126953"/>
      <use xlink:href="#DejaVuSans-77" x="391.308594"/>
      <use xlink:href="#DejaVuSans-6e" x="473.095703"/>
      <use xlink:href="#DejaVuSans-29" x="536.474609"/>
     </g>
    </g>
   </g>
   <g id="line2d_119">
    <path d="M 57.081648 299.554466 
L 57.175798 298.273317 
L 62.003979 294.104145 
L 66.908798 292.399433 
L 74.392957 268.539797 
L 75.792045 266.013499 
L 76.122594 267.021863 
L 76.563326 275.698183 
L 77.444789 299.077495 
L 78.273479 299.596437 
L 79.136026 299.49222 
L 80.501217 299.598999 
L 82.596352 299.510063 
L 85.607752 299.597384 
L 90.505131 299.511094 
L 97.98929 299.597172 
L 105.473449 299.511287 
L 112.957608 299.596987 
L 116.998397 299.554255 
L 150.654218 299.647116 
L 150.65796 299.7346 
L 150.681535 299.48137 
L 150.717459 299.538278 
L 151.190508 299.554437 
L 244.198722 299.427643 
L 244.226788 301.530411 
L 244.250737 299.169308 
L 244.375144 261.363624 
L 244.454191 264.901213 
L 244.590501 262.114433 
L 244.724635 296.328784 
L 244.859884 300.228293 
L 245.019879 298.909159 
L 245.170099 300.123251 
L 245.388642 299.003955 
L 245.735076 300.079655 
L 246.256515 299.032435 
L 247.151455 300.063088 
L 248.624542 299.042504 
L 251.09032 300.057301 
L 255.930324 299.045952 
L 263.414483 300.055498 
L 270.898642 299.047241 
L 278.382802 300.054028 
L 285.866961 299.048697 
L 290.961619 300.052327 
L 290.974717 299.546224 
L 291.07463 299.550415 
L 292.294896 299.555566 
L 317.017736 299.553393 
L 431.289602 299.554459 
L 431.289602 299.554459 
" clip-path="url(#p678e30fc50)" style="fill: none; stroke: #1f77b4; stroke-width: 1.5; stroke-linecap: square"/>
   </g>
   <g id="patch_27">
    <path d="M 38.37125 303.53875 
L 38.37125 259.355284 
" style="fill: none; stroke: #000000; stroke-width: 0.8; stroke-linejoin: miter; stroke-linecap: square"/>
   </g>
   <g id="patch_28">
    <path d="M 450 303.53875 
L 450 259.355284 
" style="fill: none; stroke: #000000; stroke-width: 0.8; stroke-linejoin: miter; stroke-linecap: square"/>
   </g>
   <g id="patch_29">
    <path d="M 38.37125 303.53875 
L 450 303.53875 
" style="fill: none; stroke: #000000; stroke-width: 0.8; stroke-linejoin: miter; stroke-linecap: square"/>
   </g>
   <g id="patch_30">
    <path d="M 38.37125 259.355284 
L 450 259.355284 
" style="fill: none; stroke: #000000; stroke-width: 0.8; stroke-linejoin: miter; stroke-linecap: square"/>
   </g>
   <g id="legend_5">
    <g id="patch_31">
     <path d="M 353.448438 282.311534 
L 443 282.311534 
Q 445 282.311534 445 280.311534 
L 445 266.355284 
Q 445 264.355284 443 264.355284 
L 353.448438 264.355284 
Q 351.448438 264.355284 351.448438 266.355284 
L 351.448438 280.311534 
Q 351.448438 282.311534 353.448438 282.311534 
z
" style="fill: #ffffff; opacity: 0.8; stroke: #cccccc; stroke-linejoin: miter"/>
    </g>
    <g id="line2d_120">
     <path d="M 355.448438 272.453722 
L 365.448438 272.453722 
L 375.448438 272.453722 
" style="fill: none; stroke: #1f77b4; stroke-width: 1.5; stroke-linecap: square"/>
    </g>
    <g id="text_31">
     <!-- v(cp_down) -->
     <g transform="translate(383.448438 275.953722) scale(0.1 -0.1)">
      <use xlink:href="#DejaVuSans-76"/>
      <use xlink:href="#DejaVuSans-28" x="59.179688"/>
      <use xlink:href="#DejaVuSans-63" x="98.193359"/>
      <use xlink:href="#DejaVuSans-70" x="153.173828"/>
      <use xlink:href="#DejaVuSans-5f" x="216.650391"/>
      <use xlink:href="#DejaVuSans-64" x="266.650391"/>
      <use xlink:href="#DejaVuSans-6f" x="330.126953"/>
      <use xlink:href="#DejaVuSans-77" x="391.308594"/>
      <use xlink:href="#DejaVuSans-6e" x="473.095703"/>
      <use xlink:href="#DejaVuSans-29" x="536.474609"/>
     </g>
    </g>
   </g>
  </g>
 </g>
 <defs>
  <clipPath id="p8cea70dce5">
   <rect x="38.37125" y="10.8" width="411.62875" height="44.183466"/>
  </clipPath>
  <clipPath id="p848c74a265">
   <rect x="38.37125" y="72.938821" width="411.62875" height="44.183466"/>
  </clipPath>
  <clipPath id="p737b69796a">
   <rect x="38.37125" y="135.077642" width="411.62875" height="44.183466"/>
  </clipPath>
  <clipPath id="p6b3e69f3b3">
   <rect x="38.37125" y="197.216463" width="411.62875" height="44.183466"/>
  </clipPath>
  <clipPath id="p678e30fc50">
   <rect x="38.37125" y="259.355284" width="411.62875" height="44.183466"/>
  </clipPath>
 </defs>
</svg>
