<?xml version="1.0" encoding="utf-8" standalone="no"?>
<!DOCTYPE svg PUBLIC "-//W3C//DTD SVG 1.1//EN"
  "http://www.w3.org/Graphics/SVG/1.1/DTD/svg11.dtd">
<svg xmlns:xlink="http://www.w3.org/1999/xlink" width="460.8pt" height="345.6pt" viewBox="0 0 460.8 345.6" xmlns="http://www.w3.org/2000/svg" version="1.1">
 <metadata>
  <rdf:RDF xmlns:dc="http://purl.org/dc/elements/1.1/" xmlns:cc="http://creativecommons.org/ns#" xmlns:rdf="http://www.w3.org/1999/02/22-rdf-syntax-ns#">
   <cc:Work>
    <dc:type rdf:resource="http://purl.org/dc/dcmitype/StillImage"/>
    <dc:date>2024-10-13T13:48:11.650708</dc:date>
    <dc:format>image/svg+xml</dc:format>
    <dc:creator>
     <cc:Agent>
      <dc:title>Matplotlib v3.8.3, https://matplotlib.org/</dc:title>
     </cc:Agent>
    </dc:creator>
   </cc:Work>
  </rdf:RDF>
 </metadata>
 <defs>
  <style type="text/css">*{stroke-linejoin: round; stroke-linecap: butt}</style>
 </defs>
 <g id="figure_1">
  <g id="patch_1">
   <path d="M 0 345.6 
L 460.8 345.6 
L 460.8 0 
L 0 0 
z
" style="fill: #ffffff"/>
  </g>
  <g id="axes_1">
   <g id="patch_2">
    <path d="M 38.37125 55.026862 
L 450 55.026862 
L 450 10.8 
L 38.37125 10.8 
z
" style="fill: #ffffff"/>
   </g>
   <g id="matplotlib.axis_1">
    <g id="xtick_1">
     <g id="line2d_1">
      <path d="M 57.081648 55.026862 
L 57.081648 10.8 
" clip-path="url(#p659b845d19)" style="fill: none; stroke: #b0b0b0; stroke-width: 0.8; stroke-linecap: square"/>
     </g>
     <g id="line2d_2">
      <defs>
       <path id="m54cc3c0d47" d="M 0 0 
L 0 3.5 
" style="stroke: #000000; stroke-width: 0.8"/>
      </defs>
      <g>
       <use xlink:href="#m54cc3c0d47" x="57.081648" y="55.026862" style="stroke: #000000; stroke-width: 0.8"/>
      </g>
     </g>
    </g>
    <g id="xtick_2">
     <g id="line2d_3">
      <path d="M 103.857642 55.026862 
L 103.857642 10.8 
" clip-path="url(#p659b845d19)" style="fill: none; stroke: #b0b0b0; stroke-width: 0.8; stroke-linecap: square"/>
     </g>
     <g id="line2d_4">
      <g>
       <use xlink:href="#m54cc3c0d47" x="103.857642" y="55.026862" style="stroke: #000000; stroke-width: 0.8"/>
      </g>
     </g>
    </g>
    <g id="xtick_3">
     <g id="line2d_5">
      <path d="M 150.633636 55.026862 
L 150.633636 10.8 
" clip-path="url(#p659b845d19)" style="fill: none; stroke: #b0b0b0; stroke-width: 0.8; stroke-linecap: square"/>
     </g>
     <g id="line2d_6">
      <g>
       <use xlink:href="#m54cc3c0d47" x="150.633636" y="55.026862" style="stroke: #000000; stroke-width: 0.8"/>
      </g>
     </g>
    </g>
    <g id="xtick_4">
     <g id="line2d_7">
      <path d="M 197.409631 55.026862 
L 197.409631 10.8 
" clip-path="url(#p659b845d19)" style="fill: none; stroke: #b0b0b0; stroke-width: 0.8; stroke-linecap: square"/>
     </g>
     <g id="line2d_8">
      <g>
       <use xlink:href="#m54cc3c0d47" x="197.409631" y="55.026862" style="stroke: #000000; stroke-width: 0.8"/>
      </g>
     </g>
    </g>
    <g id="xtick_5">
     <g id="line2d_9">
      <path d="M 244.185625 55.026862 
L 244.185625 10.8 
" clip-path="url(#p659b845d19)" style="fill: none; stroke: #b0b0b0; stroke-width: 0.8; stroke-linecap: square"/>
     </g>
     <g id="line2d_10">
      <g>
       <use xlink:href="#m54cc3c0d47" x="244.185625" y="55.026862" style="stroke: #000000; stroke-width: 0.8"/>
      </g>
     </g>
    </g>
    <g id="xtick_6">
     <g id="line2d_11">
      <path d="M 290.961619 55.026862 
L 290.961619 10.8 
" clip-path="url(#p659b845d19)" style="fill: none; stroke: #b0b0b0; stroke-width: 0.8; stroke-linecap: square"/>
     </g>
     <g id="line2d_12">
      <g>
       <use xlink:href="#m54cc3c0d47" x="290.961619" y="55.026862" style="stroke: #000000; stroke-width: 0.8"/>
      </g>
     </g>
    </g>
    <g id="xtick_7">
     <g id="line2d_13">
      <path d="M 337.737614 55.026862 
L 337.737614 10.8 
" clip-path="url(#p659b845d19)" style="fill: none; stroke: #b0b0b0; stroke-width: 0.8; stroke-linecap: square"/>
     </g>
     <g id="line2d_14">
      <g>
       <use xlink:href="#m54cc3c0d47" x="337.737614" y="55.026862" style="stroke: #000000; stroke-width: 0.8"/>
      </g>
     </g>
    </g>
    <g id="xtick_8">
     <g id="line2d_15">
      <path d="M 384.513608 55.026862 
L 384.513608 10.8 
" clip-path="url(#p659b845d19)" style="fill: none; stroke: #b0b0b0; stroke-width: 0.8; stroke-linecap: square"/>
     </g>
     <g id="line2d_16">
      <g>
       <use xlink:href="#m54cc3c0d47" x="384.513608" y="55.026862" style="stroke: #000000; stroke-width: 0.8"/>
      </g>
     </g>
    </g>
    <g id="xtick_9">
     <g id="line2d_17">
      <path d="M 431.289602 55.026862 
L 431.289602 10.8 
" clip-path="url(#p659b845d19)" style="fill: none; stroke: #b0b0b0; stroke-width: 0.8; stroke-linecap: square"/>
     </g>
     <g id="line2d_18">
      <g>
       <use xlink:href="#m54cc3c0d47" x="431.289602" y="55.026862" style="stroke: #000000; stroke-width: 0.8"/>
      </g>
     </g>
    </g>
   </g>
   <g id="matplotlib.axis_2">
    <g id="ytick_1">
     <g id="line2d_19">
      <path d="M 38.37125 53.01655 
L 450 53.01655 
" clip-path="url(#p659b845d19)" style="fill: none; stroke: #b0b0b0; stroke-width: 0.8; stroke-linecap: square"/>
     </g>
     <g id="line2d_20">
      <defs>
       <path id="me948902b62" d="M 0 0 
L -3.5 0 
" style="stroke: #000000; stroke-width: 0.8"/>
      </defs>
      <g>
       <use xlink:href="#me948902b62" x="38.37125" y="53.01655" style="stroke: #000000; stroke-width: 0.8"/>
      </g>
     </g>
     <g id="text_1">
      <!-- 0 -->
      <g transform="translate(25.00875 56.815769) scale(0.1 -0.1)">
       <defs>
        <path id="DejaVuSans-30" d="M 2034 4250 
Q 1547 4250 1301 3770 
Q 1056 3291 1056 2328 
Q 1056 1369 1301 889 
Q 1547 409 2034 409 
Q 2525 409 2770 889 
Q 3016 1369 3016 2328 
Q 3016 3291 2770 3770 
Q 2525 4250 2034 4250 
z
M 2034 4750 
Q 2819 4750 3233 4129 
Q 3647 3509 3647 2328 
Q 3647 1150 3233 529 
Q 2819 -91 2034 -91 
Q 1250 -91 836 529 
Q 422 1150 422 2328 
Q 422 3509 836 4129 
Q 1250 4750 2034 4750 
z
" transform="scale(0.015625)"/>
       </defs>
       <use xlink:href="#DejaVuSans-30"/>
      </g>
     </g>
    </g>
    <g id="ytick_2">
     <g id="line2d_21">
      <path d="M 38.37125 30.679751 
L 450 30.679751 
" clip-path="url(#p659b845d19)" style="fill: none; stroke: #b0b0b0; stroke-width: 0.8; stroke-linecap: square"/>
     </g>
     <g id="line2d_22">
      <g>
       <use xlink:href="#me948902b62" x="38.37125" y="30.679751" style="stroke: #000000; stroke-width: 0.8"/>
      </g>
     </g>
     <g id="text_2">
      <!-- 1 -->
      <g transform="translate(25.00875 34.47897) scale(0.1 -0.1)">
       <defs>
        <path id="DejaVuSans-31" d="M 794 531 
L 1825 531 
L 1825 4091 
L 703 3866 
L 703 4441 
L 1819 4666 
L 2450 4666 
L 2450 531 
L 3481 531 
L 3481 0 
L 794 0 
L 794 531 
z
" transform="scale(0.015625)"/>
       </defs>
       <use xlink:href="#DejaVuSans-31"/>
      </g>
     </g>
    </g>
    <g id="text_3">
     <!-- v(ck_ref) -->
     <g transform="translate(18.650938 54.698587) rotate(-90) scale(0.1 -0.1)">
      <defs>
       <path id="DejaVuSans-76" d="M 191 3500 
L 800 3500 
L 1894 563 
L 2988 3500 
L 3597 3500 
L 2284 0 
L 1503 0 
L 191 3500 
z
" transform="scale(0.015625)"/>
       <path id="DejaVuSans-28" d="M 1984 4856 
Q 1566 4138 1362 3434 
Q 1159 2731 1159 2009 
Q 1159 1288 1364 580 
Q 1569 -128 1984 -844 
L 1484 -844 
Q 1016 -109 783 600 
Q 550 1309 550 2009 
Q 550 2706 781 3412 
Q 1013 4119 1484 4856 
L 1984 4856 
z
" transform="scale(0.015625)"/>
       <path id="DejaVuSans-63" d="M 3122 3366 
L 3122 2828 
Q 2878 2963 2633 3030 
Q 2388 3097 2138 3097 
Q 1578 3097 1268 2742 
Q 959 2388 959 1747 
Q 959 1106 1268 751 
Q 1578 397 2138 397 
Q 2388 397 2633 464 
Q 2878 531 3122 666 
L 3122 134 
Q 2881 22 2623 -34 
Q 2366 -91 2075 -91 
Q 1284 -91 818 406 
Q 353 903 353 1747 
Q 353 2603 823 3093 
Q 1294 3584 2113 3584 
Q 2378 3584 2631 3529 
Q 2884 3475 3122 3366 
z
" transform="scale(0.015625)"/>
       <path id="DejaVuSans-6b" d="M 581 4863 
L 1159 4863 
L 1159 1991 
L 2875 3500 
L 3609 3500 
L 1753 1863 
L 3688 0 
L 2938 0 
L 1159 1709 
L 1159 0 
L 581 0 
L 581 4863 
z
" transform="scale(0.015625)"/>
       <path id="DejaVuSans-5f" d="M 3263 -1063 
L 3263 -1509 
L -63 -1509 
L -63 -1063 
L 3263 -1063 
z
" transform="scale(0.015625)"/>
       <path id="DejaVuSans-72" d="M 2631 2963 
Q 2534 3019 2420 3045 
Q 2306 3072 2169 3072 
Q 1681 3072 1420 2755 
Q 1159 2438 1159 1844 
L 1159 0 
L 581 0 
L 581 3500 
L 1159 3500 
L 1159 2956 
Q 1341 3275 1631 3429 
Q 1922 3584 2338 3584 
Q 2397 3584 2469 3576 
Q 2541 3569 2628 3553 
L 2631 2963 
z
" transform="scale(0.015625)"/>
       <path id="DejaVuSans-65" d="M 3597 1894 
L 3597 1613 
L 953 1613 
Q 991 1019 1311 708 
Q 1631 397 2203 397 
Q 2534 397 2845 478 
Q 3156 559 3463 722 
L 3463 178 
Q 3153 47 2828 -22 
Q 2503 -91 2169 -91 
Q 1331 -91 842 396 
Q 353 884 353 1716 
Q 353 2575 817 3079 
Q 1281 3584 2069 3584 
Q 2775 3584 3186 3129 
Q 3597 2675 3597 1894 
z
M 3022 2063 
Q 3016 2534 2758 2815 
Q 2500 3097 2075 3097 
Q 1594 3097 1305 2825 
Q 1016 2553 972 2059 
L 3022 2063 
z
" transform="scale(0.015625)"/>
       <path id="DejaVuSans-66" d="M 2375 4863 
L 2375 4384 
L 1825 4384 
Q 1516 4384 1395 4259 
Q 1275 4134 1275 3809 
L 1275 3500 
L 2222 3500 
L 2222 3053 
L 1275 3053 
L 1275 0 
L 697 0 
L 697 3053 
L 147 3053 
L 147 3500 
L 697 3500 
L 697 3744 
Q 697 4328 969 4595 
Q 1241 4863 1831 4863 
L 2375 4863 
z
" transform="scale(0.015625)"/>
       <path id="DejaVuSans-29" d="M 513 4856 
L 1013 4856 
Q 1481 4119 1714 3412 
Q 1947 2706 1947 2009 
Q 1947 1309 1714 600 
Q 1481 -109 1013 -844 
L 513 -844 
Q 928 -128 1133 580 
Q 1338 1288 1338 2009 
Q 1338 2731 1133 3434 
Q 928 4138 513 4856 
z
" transform="scale(0.015625)"/>
      </defs>
      <use xlink:href="#DejaVuSans-76"/>
      <use xlink:href="#DejaVuSans-28" x="59.179688"/>
      <use xlink:href="#DejaVuSans-63" x="98.193359"/>
      <use xlink:href="#DejaVuSans-6b" x="153.173828"/>
      <use xlink:href="#DejaVuSans-5f" x="211.083984"/>
      <use xlink:href="#DejaVuSans-72" x="261.083984"/>
      <use xlink:href="#DejaVuSans-65" x="299.947266"/>
      <use xlink:href="#DejaVuSans-66" x="361.470703"/>
      <use xlink:href="#DejaVuSans-29" x="396.675781"/>
     </g>
    </g>
   </g>
   <g id="line2d_23">
    <path d="M 57.081648 53.01655 
L 57.175798 12.810312 
L 115.570351 12.810312 
L 115.683362 53.01655 
L 174.021634 53.01655 
L 174.134644 12.810312 
L 232.510337 12.810312 
L 232.623348 53.01655 
L 290.961619 53.01655 
L 291.07448 12.810312 
L 349.450323 12.810312 
L 349.563333 53.01655 
L 407.901605 53.01655 
L 408.014616 12.810312 
L 431.289602 12.810312 
L 431.289602 12.810312 
" clip-path="url(#p659b845d19)" style="fill: none; stroke: #1f77b4; stroke-width: 1.5; stroke-linecap: square"/>
   </g>
   <g id="patch_3">
    <path d="M 38.37125 55.026862 
L 38.37125 10.8 
" style="fill: none; stroke: #000000; stroke-width: 0.8; stroke-linejoin: miter; stroke-linecap: square"/>
   </g>
   <g id="patch_4">
    <path d="M 450 55.026862 
L 450 10.8 
" style="fill: none; stroke: #000000; stroke-width: 0.8; stroke-linejoin: miter; stroke-linecap: square"/>
   </g>
   <g id="patch_5">
    <path d="M 38.37125 55.026862 
L 450 55.026862 
" style="fill: none; stroke: #000000; stroke-width: 0.8; stroke-linejoin: miter; stroke-linecap: square"/>
   </g>
   <g id="patch_6">
    <path d="M 38.37125 10.8 
L 450 10.8 
" style="fill: none; stroke: #000000; stroke-width: 0.8; stroke-linejoin: miter; stroke-linecap: square"/>
   </g>
   <g id="legend_1">
    <g id="patch_7">
     <path d="M 367.429688 33.75625 
L 443 33.75625 
Q 445 33.75625 445 31.75625 
L 445 17.8 
Q 445 15.8 443 15.8 
L 367.429688 15.8 
Q 365.429688 15.8 365.429688 17.8 
L 365.429688 31.75625 
Q 365.429688 33.75625 367.429688 33.75625 
z
" style="fill: #ffffff; opacity: 0.8; stroke: #cccccc; stroke-linejoin: miter"/>
    </g>
    <g id="line2d_24">
     <path d="M 369.429688 23.898438 
L 379.429688 23.898438 
L 389.429688 23.898438 
" style="fill: none; stroke: #1f77b4; stroke-width: 1.5; stroke-linecap: square"/>
    </g>
    <g id="text_4">
     <!-- v(ck_ref) -->
     <g transform="translate(397.429688 27.398438) scale(0.1 -0.1)">
      <use xlink:href="#DejaVuSans-76"/>
      <use xlink:href="#DejaVuSans-28" x="59.179688"/>
      <use xlink:href="#DejaVuSans-63" x="98.193359"/>
      <use xlink:href="#DejaVuSans-6b" x="153.173828"/>
      <use xlink:href="#DejaVuSans-5f" x="211.083984"/>
      <use xlink:href="#DejaVuSans-72" x="261.083984"/>
      <use xlink:href="#DejaVuSans-65" x="299.947266"/>
      <use xlink:href="#DejaVuSans-66" x="361.470703"/>
      <use xlink:href="#DejaVuSans-29" x="396.675781"/>
     </g>
    </g>
   </g>
  </g>
  <g id="axes_2">
   <g id="patch_8">
    <path d="M 38.37125 117.154834 
L 450 117.154834 
L 450 72.927972 
L 38.37125 72.927972 
z
" style="fill: #ffffff"/>
   </g>
   <g id="matplotlib.axis_3">
    <g id="xtick_10">
     <g id="line2d_25">
      <path d="M 57.081648 117.154834 
L 57.081648 72.927972 
" clip-path="url(#p7bf7f4e550)" style="fill: none; stroke: #b0b0b0; stroke-width: 0.8; stroke-linecap: square"/>
     </g>
     <g id="line2d_26">
      <g>
       <use xlink:href="#m54cc3c0d47" x="57.081648" y="117.154834" style="stroke: #000000; stroke-width: 0.8"/>
      </g>
     </g>
    </g>
    <g id="xtick_11">
     <g id="line2d_27">
      <path d="M 103.857642 117.154834 
L 103.857642 72.927972 
" clip-path="url(#p7bf7f4e550)" style="fill: none; stroke: #b0b0b0; stroke-width: 0.8; stroke-linecap: square"/>
     </g>
     <g id="line2d_28">
      <g>
       <use xlink:href="#m54cc3c0d47" x="103.857642" y="117.154834" style="stroke: #000000; stroke-width: 0.8"/>
      </g>
     </g>
    </g>
    <g id="xtick_12">
     <g id="line2d_29">
      <path d="M 150.633636 117.154834 
L 150.633636 72.927972 
" clip-path="url(#p7bf7f4e550)" style="fill: none; stroke: #b0b0b0; stroke-width: 0.8; stroke-linecap: square"/>
     </g>
     <g id="line2d_30">
      <g>
       <use xlink:href="#m54cc3c0d47" x="150.633636" y="117.154834" style="stroke: #000000; stroke-width: 0.8"/>
      </g>
     </g>
    </g>
    <g id="xtick_13">
     <g id="line2d_31">
      <path d="M 197.409631 117.154834 
L 197.409631 72.927972 
" clip-path="url(#p7bf7f4e550)" style="fill: none; stroke: #b0b0b0; stroke-width: 0.8; stroke-linecap: square"/>
     </g>
     <g id="line2d_32">
      <g>
       <use xlink:href="#m54cc3c0d47" x="197.409631" y="117.154834" style="stroke: #000000; stroke-width: 0.8"/>
      </g>
     </g>
    </g>
    <g id="xtick_14">
     <g id="line2d_33">
      <path d="M 244.185625 117.154834 
L 244.185625 72.927972 
" clip-path="url(#p7bf7f4e550)" style="fill: none; stroke: #b0b0b0; stroke-width: 0.8; stroke-linecap: square"/>
     </g>
     <g id="line2d_34">
      <g>
       <use xlink:href="#m54cc3c0d47" x="244.185625" y="117.154834" style="stroke: #000000; stroke-width: 0.8"/>
      </g>
     </g>
    </g>
    <g id="xtick_15">
     <g id="line2d_35">
      <path d="M 290.961619 117.154834 
L 290.961619 72.927972 
" clip-path="url(#p7bf7f4e550)" style="fill: none; stroke: #b0b0b0; stroke-width: 0.8; stroke-linecap: square"/>
     </g>
     <g id="line2d_36">
      <g>
       <use xlink:href="#m54cc3c0d47" x="290.961619" y="117.154834" style="stroke: #000000; stroke-width: 0.8"/>
      </g>
     </g>
    </g>
    <g id="xtick_16">
     <g id="line2d_37">
      <path d="M 337.737614 117.154834 
L 337.737614 72.927972 
" clip-path="url(#p7bf7f4e550)" style="fill: none; stroke: #b0b0b0; stroke-width: 0.8; stroke-linecap: square"/>
     </g>
     <g id="line2d_38">
      <g>
       <use xlink:href="#m54cc3c0d47" x="337.737614" y="117.154834" style="stroke: #000000; stroke-width: 0.8"/>
      </g>
     </g>
    </g>
    <g id="xtick_17">
     <g id="line2d_39">
      <path d="M 384.513608 117.154834 
L 384.513608 72.927972 
" clip-path="url(#p7bf7f4e550)" style="fill: none; stroke: #b0b0b0; stroke-width: 0.8; stroke-linecap: square"/>
     </g>
     <g id="line2d_40">
      <g>
       <use xlink:href="#m54cc3c0d47" x="384.513608" y="117.154834" style="stroke: #000000; stroke-width: 0.8"/>
      </g>
     </g>
    </g>
    <g id="xtick_18">
     <g id="line2d_41">
      <path d="M 431.289602 117.154834 
L 431.289602 72.927972 
" clip-path="url(#p7bf7f4e550)" style="fill: none; stroke: #b0b0b0; stroke-width: 0.8; stroke-linecap: square"/>
     </g>
     <g id="line2d_42">
      <g>
       <use xlink:href="#m54cc3c0d47" x="431.289602" y="117.154834" style="stroke: #000000; stroke-width: 0.8"/>
      </g>
     </g>
    </g>
   </g>
   <g id="matplotlib.axis_4">
    <g id="ytick_3">
     <g id="line2d_43">
      <path d="M 38.37125 115.144522 
L 450 115.144522 
" clip-path="url(#p7bf7f4e550)" style="fill: none; stroke: #b0b0b0; stroke-width: 0.8; stroke-linecap: square"/>
     </g>
     <g id="line2d_44">
      <g>
       <use xlink:href="#me948902b62" x="38.37125" y="115.144522" style="stroke: #000000; stroke-width: 0.8"/>
      </g>
     </g>
     <g id="text_5">
      <!-- 0 -->
      <g transform="translate(25.00875 118.943741) scale(0.1 -0.1)">
       <use xlink:href="#DejaVuSans-30"/>
      </g>
     </g>
    </g>
    <g id="ytick_4">
     <g id="line2d_45">
      <path d="M 38.37125 92.807723 
L 450 92.807723 
" clip-path="url(#p7bf7f4e550)" style="fill: none; stroke: #b0b0b0; stroke-width: 0.8; stroke-linecap: square"/>
     </g>
     <g id="line2d_46">
      <g>
       <use xlink:href="#me948902b62" x="38.37125" y="92.807723" style="stroke: #000000; stroke-width: 0.8"/>
      </g>
     </g>
     <g id="text_6">
      <!-- 1 -->
      <g transform="translate(25.00875 96.606942) scale(0.1 -0.1)">
       <use xlink:href="#DejaVuSans-31"/>
      </g>
     </g>
    </g>
    <g id="text_7">
     <!-- v(ck_fb) -->
     <g transform="translate(18.650938 114.981247) rotate(-90) scale(0.1 -0.1)">
      <defs>
       <path id="DejaVuSans-62" d="M 3116 1747 
Q 3116 2381 2855 2742 
Q 2594 3103 2138 3103 
Q 1681 3103 1420 2742 
Q 1159 2381 1159 1747 
Q 1159 1113 1420 752 
Q 1681 391 2138 391 
Q 2594 391 2855 752 
Q 3116 1113 3116 1747 
z
M 1159 2969 
Q 1341 3281 1617 3432 
Q 1894 3584 2278 3584 
Q 2916 3584 3314 3078 
Q 3713 2572 3713 1747 
Q 3713 922 3314 415 
Q 2916 -91 2278 -91 
Q 1894 -91 1617 61 
Q 1341 213 1159 525 
L 1159 0 
L 581 0 
L 581 4863 
L 1159 4863 
L 1159 2969 
z
" transform="scale(0.015625)"/>
      </defs>
      <use xlink:href="#DejaVuSans-76"/>
      <use xlink:href="#DejaVuSans-28" x="59.179688"/>
      <use xlink:href="#DejaVuSans-63" x="98.193359"/>
      <use xlink:href="#DejaVuSans-6b" x="153.173828"/>
      <use xlink:href="#DejaVuSans-5f" x="211.083984"/>
      <use xlink:href="#DejaVuSans-66" x="261.083984"/>
      <use xlink:href="#DejaVuSans-62" x="296.289062"/>
      <use xlink:href="#DejaVuSans-29" x="359.765625"/>
     </g>
    </g>
   </g>
   <g id="line2d_47">
    <path d="M 57.081648 115.144522 
L 57.175798 74.938284 
L 103.876352 74.938284 
L 103.989363 115.144522 
L 150.633636 115.144522 
L 150.746647 74.938284 
L 197.428341 74.938284 
L 197.541352 115.144522 
L 244.185625 115.144522 
L 244.298636 74.938284 
L 290.98033 74.938284 
L 291.07448 115.144522 
L 337.737614 115.144522 
L 337.850624 74.938284 
L 384.532318 74.938284 
L 384.645329 115.144522 
L 431.289602 115.144522 
L 431.289602 115.144522 
" clip-path="url(#p7bf7f4e550)" style="fill: none; stroke: #1f77b4; stroke-width: 1.5; stroke-linecap: square"/>
   </g>
   <g id="patch_9">
    <path d="M 38.37125 117.154834 
L 38.37125 72.927972 
" style="fill: none; stroke: #000000; stroke-width: 0.8; stroke-linejoin: miter; stroke-linecap: square"/>
   </g>
   <g id="patch_10">
    <path d="M 450 117.154834 
L 450 72.927972 
" style="fill: none; stroke: #000000; stroke-width: 0.8; stroke-linejoin: miter; stroke-linecap: square"/>
   </g>
   <g id="patch_11">
    <path d="M 38.37125 117.154834 
L 450 117.154834 
" style="fill: none; stroke: #000000; stroke-width: 0.8; stroke-linejoin: miter; stroke-linecap: square"/>
   </g>
   <g id="patch_12">
    <path d="M 38.37125 72.927972 
L 450 72.927972 
" style="fill: none; stroke: #000000; stroke-width: 0.8; stroke-linejoin: miter; stroke-linecap: square"/>
   </g>
   <g id="legend_2">
    <g id="patch_13">
     <path d="M 371.120313 112.154834 
L 443 112.154834 
Q 445 112.154834 445 110.154834 
L 445 96.198584 
Q 445 94.198584 443 94.198584 
L 371.120313 94.198584 
Q 369.120313 94.198584 369.120313 96.198584 
L 369.120313 110.154834 
Q 369.120313 112.154834 371.120313 112.154834 
z
" style="fill: #ffffff; opacity: 0.8; stroke: #cccccc; stroke-linejoin: miter"/>
    </g>
    <g id="line2d_48">
     <path d="M 373.120313 102.297022 
L 383.120313 102.297022 
L 393.120313 102.297022 
" style="fill: none; stroke: #1f77b4; stroke-width: 1.5; stroke-linecap: square"/>
    </g>
    <g id="text_8">
     <!-- v(ck_fb) -->
     <g transform="translate(401.120313 105.797022) scale(0.1 -0.1)">
      <use xlink:href="#DejaVuSans-76"/>
      <use xlink:href="#DejaVuSans-28" x="59.179688"/>
      <use xlink:href="#DejaVuSans-63" x="98.193359"/>
      <use xlink:href="#DejaVuSans-6b" x="153.173828"/>
      <use xlink:href="#DejaVuSans-5f" x="211.083984"/>
      <use xlink:href="#DejaVuSans-66" x="261.083984"/>
      <use xlink:href="#DejaVuSans-62" x="296.289062"/>
      <use xlink:href="#DejaVuSans-29" x="359.765625"/>
     </g>
    </g>
   </g>
  </g>
  <g id="axes_3">
   <g id="patch_14">
    <path d="M 38.37125 179.282806 
L 450 179.282806 
L 450 135.055944 
L 38.37125 135.055944 
z
" style="fill: #ffffff"/>
   </g>
   <g id="matplotlib.axis_5">
    <g id="xtick_19">
     <g id="line2d_49">
      <path d="M 57.081648 179.282806 
L 57.081648 135.055944 
" clip-path="url(#p0eaea20426)" style="fill: none; stroke: #b0b0b0; stroke-width: 0.8; stroke-linecap: square"/>
     </g>
     <g id="line2d_50">
      <g>
       <use xlink:href="#m54cc3c0d47" x="57.081648" y="179.282806" style="stroke: #000000; stroke-width: 0.8"/>
      </g>
     </g>
    </g>
    <g id="xtick_20">
     <g id="line2d_51">
      <path d="M 103.857642 179.282806 
L 103.857642 135.055944 
" clip-path="url(#p0eaea20426)" style="fill: none; stroke: #b0b0b0; stroke-width: 0.8; stroke-linecap: square"/>
     </g>
     <g id="line2d_52">
      <g>
       <use xlink:href="#m54cc3c0d47" x="103.857642" y="179.282806" style="stroke: #000000; stroke-width: 0.8"/>
      </g>
     </g>
    </g>
    <g id="xtick_21">
     <g id="line2d_53">
      <path d="M 150.633636 179.282806 
L 150.633636 135.055944 
" clip-path="url(#p0eaea20426)" style="fill: none; stroke: #b0b0b0; stroke-width: 0.8; stroke-linecap: square"/>
     </g>
     <g id="line2d_54">
      <g>
       <use xlink:href="#m54cc3c0d47" x="150.633636" y="179.282806" style="stroke: #000000; stroke-width: 0.8"/>
      </g>
     </g>
    </g>
    <g id="xtick_22">
     <g id="line2d_55">
      <path d="M 197.409631 179.282806 
L 197.409631 135.055944 
" clip-path="url(#p0eaea20426)" style="fill: none; stroke: #b0b0b0; stroke-width: 0.8; stroke-linecap: square"/>
     </g>
     <g id="line2d_56">
      <g>
       <use xlink:href="#m54cc3c0d47" x="197.409631" y="179.282806" style="stroke: #000000; stroke-width: 0.8"/>
      </g>
     </g>
    </g>
    <g id="xtick_23">
     <g id="line2d_57">
      <path d="M 244.185625 179.282806 
L 244.185625 135.055944 
" clip-path="url(#p0eaea20426)" style="fill: none; stroke: #b0b0b0; stroke-width: 0.8; stroke-linecap: square"/>
     </g>
     <g id="line2d_58">
      <g>
       <use xlink:href="#m54cc3c0d47" x="244.185625" y="179.282806" style="stroke: #000000; stroke-width: 0.8"/>
      </g>
     </g>
    </g>
    <g id="xtick_24">
     <g id="line2d_59">
      <path d="M 290.961619 179.282806 
L 290.961619 135.055944 
" clip-path="url(#p0eaea20426)" style="fill: none; stroke: #b0b0b0; stroke-width: 0.8; stroke-linecap: square"/>
     </g>
     <g id="line2d_60">
      <g>
       <use xlink:href="#m54cc3c0d47" x="290.961619" y="179.282806" style="stroke: #000000; stroke-width: 0.8"/>
      </g>
     </g>
    </g>
    <g id="xtick_25">
     <g id="line2d_61">
      <path d="M 337.737614 179.282806 
L 337.737614 135.055944 
" clip-path="url(#p0eaea20426)" style="fill: none; stroke: #b0b0b0; stroke-width: 0.8; stroke-linecap: square"/>
     </g>
     <g id="line2d_62">
      <g>
       <use xlink:href="#m54cc3c0d47" x="337.737614" y="179.282806" style="stroke: #000000; stroke-width: 0.8"/>
      </g>
     </g>
    </g>
    <g id="xtick_26">
     <g id="line2d_63">
      <path d="M 384.513608 179.282806 
L 384.513608 135.055944 
" clip-path="url(#p0eaea20426)" style="fill: none; stroke: #b0b0b0; stroke-width: 0.8; stroke-linecap: square"/>
     </g>
     <g id="line2d_64">
      <g>
       <use xlink:href="#m54cc3c0d47" x="384.513608" y="179.282806" style="stroke: #000000; stroke-width: 0.8"/>
      </g>
     </g>
    </g>
    <g id="xtick_27">
     <g id="line2d_65">
      <path d="M 431.289602 179.282806 
L 431.289602 135.055944 
" clip-path="url(#p0eaea20426)" style="fill: none; stroke: #b0b0b0; stroke-width: 0.8; stroke-linecap: square"/>
     </g>
     <g id="line2d_66">
      <g>
       <use xlink:href="#m54cc3c0d47" x="431.289602" y="179.282806" style="stroke: #000000; stroke-width: 0.8"/>
      </g>
     </g>
    </g>
   </g>
   <g id="matplotlib.axis_6">
    <g id="ytick_5">
     <g id="line2d_67">
      <path d="M 38.37125 175.139941 
L 450 175.139941 
" clip-path="url(#p0eaea20426)" style="fill: none; stroke: #b0b0b0; stroke-width: 0.8; stroke-linecap: square"/>
     </g>
     <g id="line2d_68">
      <g>
       <use xlink:href="#me948902b62" x="38.37125" y="175.139941" style="stroke: #000000; stroke-width: 0.8"/>
      </g>
     </g>
     <g id="text_9">
      <!-- 0 -->
      <g transform="translate(25.00875 178.93916) scale(0.1 -0.1)">
       <use xlink:href="#DejaVuSans-30"/>
      </g>
     </g>
    </g>
    <g id="ytick_6">
     <g id="line2d_69">
      <path d="M 38.37125 148.667312 
L 450 148.667312 
" clip-path="url(#p0eaea20426)" style="fill: none; stroke: #b0b0b0; stroke-width: 0.8; stroke-linecap: square"/>
     </g>
     <g id="line2d_70">
      <g>
       <use xlink:href="#me948902b62" x="38.37125" y="148.667312" style="stroke: #000000; stroke-width: 0.8"/>
      </g>
     </g>
     <g id="text_10">
      <!-- 1 -->
      <g transform="translate(25.00875 152.466531) scale(0.1 -0.1)">
       <use xlink:href="#DejaVuSans-31"/>
      </g>
     </g>
    </g>
    <g id="text_11">
     <!-- v(xdut.cfb) -->
     <g transform="translate(18.929063 184.565469) rotate(-90) scale(0.1 -0.1)">
      <defs>
       <path id="DejaVuSans-78" d="M 3513 3500 
L 2247 1797 
L 3578 0 
L 2900 0 
L 1881 1375 
L 863 0 
L 184 0 
L 1544 1831 
L 300 3500 
L 978 3500 
L 1906 2253 
L 2834 3500 
L 3513 3500 
z
" transform="scale(0.015625)"/>
       <path id="DejaVuSans-64" d="M 2906 2969 
L 2906 4863 
L 3481 4863 
L 3481 0 
L 2906 0 
L 2906 525 
Q 2725 213 2448 61 
Q 2172 -91 1784 -91 
Q 1150 -91 751 415 
Q 353 922 353 1747 
Q 353 2572 751 3078 
Q 1150 3584 1784 3584 
Q 2172 3584 2448 3432 
Q 2725 3281 2906 2969 
z
M 947 1747 
Q 947 1113 1208 752 
Q 1469 391 1925 391 
Q 2381 391 2643 752 
Q 2906 1113 2906 1747 
Q 2906 2381 2643 2742 
Q 2381 3103 1925 3103 
Q 1469 3103 1208 2742 
Q 947 2381 947 1747 
z
" transform="scale(0.015625)"/>
       <path id="DejaVuSans-75" d="M 544 1381 
L 544 3500 
L 1119 3500 
L 1119 1403 
Q 1119 906 1312 657 
Q 1506 409 1894 409 
Q 2359 409 2629 706 
Q 2900 1003 2900 1516 
L 2900 3500 
L 3475 3500 
L 3475 0 
L 2900 0 
L 2900 538 
Q 2691 219 2414 64 
Q 2138 -91 1772 -91 
Q 1169 -91 856 284 
Q 544 659 544 1381 
z
M 1991 3584 
L 1991 3584 
z
" transform="scale(0.015625)"/>
       <path id="DejaVuSans-74" d="M 1172 4494 
L 1172 3500 
L 2356 3500 
L 2356 3053 
L 1172 3053 
L 1172 1153 
Q 1172 725 1289 603 
Q 1406 481 1766 481 
L 2356 481 
L 2356 0 
L 1766 0 
Q 1100 0 847 248 
Q 594 497 594 1153 
L 594 3053 
L 172 3053 
L 172 3500 
L 594 3500 
L 594 4494 
L 1172 4494 
z
" transform="scale(0.015625)"/>
       <path id="DejaVuSans-2e" d="M 684 794 
L 1344 794 
L 1344 0 
L 684 0 
L 684 794 
z
" transform="scale(0.015625)"/>
      </defs>
      <use xlink:href="#DejaVuSans-76"/>
      <use xlink:href="#DejaVuSans-28" x="59.179688"/>
      <use xlink:href="#DejaVuSans-78" x="98.193359"/>
      <use xlink:href="#DejaVuSans-64" x="157.373047"/>
      <use xlink:href="#DejaVuSans-75" x="220.849609"/>
      <use xlink:href="#DejaVuSans-74" x="284.228516"/>
      <use xlink:href="#DejaVuSans-2e" x="323.4375"/>
      <use xlink:href="#DejaVuSans-63" x="355.224609"/>
      <use xlink:href="#DejaVuSans-66" x="410.205078"/>
      <use xlink:href="#DejaVuSans-62" x="445.410156"/>
      <use xlink:href="#DejaVuSans-29" x="508.886719"/>
     </g>
    </g>
   </g>
   <g id="line2d_71">
    <path d="M 57.081648 175.139941 
L 57.175798 174.049017 
L 62.003979 168.842817 
L 66.908798 165.184926 
L 74.392957 161.136303 
L 75.792045 162.032523 
L 76.122594 163.773519 
L 76.563326 170.261654 
L 77.444789 175.242747 
L 78.273479 175.015525 
L 79.136026 175.209769 
L 80.501217 175.072209 
L 82.596352 175.199549 
L 85.607752 175.080942 
L 90.505131 175.197997 
L 97.98929 175.081732 
L 103.878223 175.24039 
L 103.895063 175.55116 
L 103.941465 175.063894 
L 104.4146 175.137864 
L 112.585402 175.14169 
L 115.572222 175.185575 
L 115.589061 175.532365 
L 115.635463 175.064492 
L 116.108495 175.137889 
L 124.277063 175.141668 
L 150.633636 175.141634 
L 150.646734 174.726805 
L 150.674799 176.065971 
L 150.746647 174.790424 
L 151.037431 175.07797 
L 151.169821 175.159376 
L 151.434603 175.105223 
L 151.870162 175.161283 
L 152.614312 175.113301 
L 154.102614 175.162327 
L 156.732121 175.115838 
L 161.991134 175.162714 
L 174.023505 175.009133 
L 174.034731 174.551063 
L 174.086746 177.22185 
L 174.134644 176.286595 
L 174.525266 137.102677 
L 174.793427 176.981631 
L 174.93012 173.535053 
L 175.140198 176.497592 
L 175.336076 173.910552 
L 175.726468 176.267491 
L 176.190605 174.047039 
L 176.929843 176.177404 
L 178.053631 174.104587 
L 179.668467 176.14118 
L 182.23566 174.129549 
L 186.174787 176.126207 
L 193.237638 174.139171 
L 197.428341 176.117357 
L 197.469504 175.060218 
L 197.541352 175.077428 
L 198.183895 175.13808 
L 205.898402 175.139042 
L 232.51595 175.250854 
L 232.529047 175.447276 
L 232.5515 175.064966 
L 232.575449 175.072452 
L 233.543808 175.140447 
L 244.185625 175.140812 
L 244.226788 175.766092 
L 244.298636 174.819119 
L 244.372426 174.887062 
L 244.454011 175.19231 
L 244.57753 175.071122 
L 244.704371 175.170813 
L 244.958052 175.100984 
L 245.465415 175.168964 
L 246.48014 175.108227 
L 248.50959 175.169226 
L 252.568491 175.110011 
L 260.05265 175.169278 
L 267.536809 175.110494 
L 275.020968 175.169053 
L 282.505127 175.110833 
L 290.961619 175.11213 
L 290.974717 174.642803 
L 291.036162 177.050665 
L 291.07448 177.272494 
L 291.447443 138.288741 
L 291.71085 176.769673 
L 291.84673 173.66101 
L 292.005125 176.325761 
L 292.21218 174.057853 
L 292.533462 176.127159 
L 292.983375 174.187271 
L 293.774058 176.050802 
L 294.933672 174.233594 
L 296.854472 176.022403 
L 300.08502 174.251079 
L 305.870847 176.012902 
L 313.355006 174.256877 
L 320.839165 176.00775 
L 328.323325 174.26209 
L 335.807484 176.002551 
L 337.737614 174.275118 
L 337.739485 174.370788 
L 337.778777 175.776297 
L 337.850624 174.798043 
L 337.926568 174.861128 
L 338.008824 175.197485 
L 338.146464 175.067703 
L 338.272266 175.172395 
L 338.52387 175.099983 
L 339.027078 175.169503 
L 340.033493 175.107602 
L 342.046324 175.169689 
L 349.450323 175.169469 
L 349.469033 175.643044 
L 349.515435 175.000833 
L 350.198674 175.140038 
L 357.819441 175.135259 
L 384.534189 175.201437 
L 384.551029 175.637447 
L 384.573481 175.088719 
L 384.597431 175.110751 
L 384.932721 175.142016 
L 390.680555 175.14189 
L 407.901605 175.137701 
L 407.914702 174.652076 
L 407.966717 176.797225 
L 408.014616 177.145351 
L 408.411613 137.066256 
L 408.684715 176.947368 
L 408.821063 173.503398 
L 408.988977 176.46219 
L 409.197744 173.932673 
L 409.520671 176.238445 
L 409.956174 174.07989 
L 410.629744 176.145635 
L 411.638423 174.140486 
L 413.164676 176.108012 
L 415.540763 174.165509 
L 419.187648 176.09273 
L 425.879942 174.17504 
L 431.289602 176.085052 
L 431.289602 176.085052 
" clip-path="url(#p0eaea20426)" style="fill: none; stroke: #1f77b4; stroke-width: 1.5; stroke-linecap: square"/>
   </g>
   <g id="patch_15">
    <path d="M 38.37125 179.282806 
L 38.37125 135.055944 
" style="fill: none; stroke: #000000; stroke-width: 0.8; stroke-linejoin: miter; stroke-linecap: square"/>
   </g>
   <g id="patch_16">
    <path d="M 450 179.282806 
L 450 135.055944 
" style="fill: none; stroke: #000000; stroke-width: 0.8; stroke-linejoin: miter; stroke-linecap: square"/>
   </g>
   <g id="patch_17">
    <path d="M 38.37125 179.282806 
L 450 179.282806 
" style="fill: none; stroke: #000000; stroke-width: 0.8; stroke-linejoin: miter; stroke-linecap: square"/>
   </g>
   <g id="patch_18">
    <path d="M 38.37125 135.055944 
L 450 135.055944 
" style="fill: none; stroke: #000000; stroke-width: 0.8; stroke-linejoin: miter; stroke-linecap: square"/>
   </g>
   <g id="legend_3">
    <g id="patch_19">
     <path d="M 45.37125 157.734069 
L 132.163438 157.734069 
Q 134.163438 157.734069 134.163438 155.734069 
L 134.163438 142.055944 
Q 134.163438 140.055944 132.163438 140.055944 
L 45.37125 140.055944 
Q 43.37125 140.055944 43.37125 142.055944 
L 43.37125 155.734069 
Q 43.37125 157.734069 45.37125 157.734069 
z
" style="fill: #ffffff; opacity: 0.8; stroke: #cccccc; stroke-linejoin: miter"/>
    </g>
    <g id="line2d_72">
     <path d="M 47.37125 148.154381 
L 57.37125 148.154381 
L 67.37125 148.154381 
" style="fill: none; stroke: #1f77b4; stroke-width: 1.5; stroke-linecap: square"/>
    </g>
    <g id="text_12">
     <!-- v(xdut.cfb) -->
     <g transform="translate(75.37125 151.654381) scale(0.1 -0.1)">
      <use xlink:href="#DejaVuSans-76"/>
      <use xlink:href="#DejaVuSans-28" x="59.179688"/>
      <use xlink:href="#DejaVuSans-78" x="98.193359"/>
      <use xlink:href="#DejaVuSans-64" x="157.373047"/>
      <use xlink:href="#DejaVuSans-75" x="220.849609"/>
      <use xlink:href="#DejaVuSans-74" x="284.228516"/>
      <use xlink:href="#DejaVuSans-2e" x="323.4375"/>
      <use xlink:href="#DejaVuSans-63" x="355.224609"/>
      <use xlink:href="#DejaVuSans-66" x="410.205078"/>
      <use xlink:href="#DejaVuSans-62" x="445.410156"/>
      <use xlink:href="#DejaVuSans-29" x="508.886719"/>
     </g>
    </g>
   </g>
  </g>
  <g id="axes_4">
   <g id="patch_20">
    <path d="M 38.37125 241.410778 
L 450 241.410778 
L 450 197.183916 
L 38.37125 197.183916 
z
" style="fill: #ffffff"/>
   </g>
   <g id="matplotlib.axis_7">
    <g id="xtick_28">
     <g id="line2d_73">
      <path d="M 57.081648 241.410778 
L 57.081648 197.183916 
" clip-path="url(#p10daa5e321)" style="fill: none; stroke: #b0b0b0; stroke-width: 0.8; stroke-linecap: square"/>
     </g>
     <g id="line2d_74">
      <g>
       <use xlink:href="#m54cc3c0d47" x="57.081648" y="241.410778" style="stroke: #000000; stroke-width: 0.8"/>
      </g>
     </g>
    </g>
    <g id="xtick_29">
     <g id="line2d_75">
      <path d="M 103.857642 241.410778 
L 103.857642 197.183916 
" clip-path="url(#p10daa5e321)" style="fill: none; stroke: #b0b0b0; stroke-width: 0.8; stroke-linecap: square"/>
     </g>
     <g id="line2d_76">
      <g>
       <use xlink:href="#m54cc3c0d47" x="103.857642" y="241.410778" style="stroke: #000000; stroke-width: 0.8"/>
      </g>
     </g>
    </g>
    <g id="xtick_30">
     <g id="line2d_77">
      <path d="M 150.633636 241.410778 
L 150.633636 197.183916 
" clip-path="url(#p10daa5e321)" style="fill: none; stroke: #b0b0b0; stroke-width: 0.8; stroke-linecap: square"/>
     </g>
     <g id="line2d_78">
      <g>
       <use xlink:href="#m54cc3c0d47" x="150.633636" y="241.410778" style="stroke: #000000; stroke-width: 0.8"/>
      </g>
     </g>
    </g>
    <g id="xtick_31">
     <g id="line2d_79">
      <path d="M 197.409631 241.410778 
L 197.409631 197.183916 
" clip-path="url(#p10daa5e321)" style="fill: none; stroke: #b0b0b0; stroke-width: 0.8; stroke-linecap: square"/>
     </g>
     <g id="line2d_80">
      <g>
       <use xlink:href="#m54cc3c0d47" x="197.409631" y="241.410778" style="stroke: #000000; stroke-width: 0.8"/>
      </g>
     </g>
    </g>
    <g id="xtick_32">
     <g id="line2d_81">
      <path d="M 244.185625 241.410778 
L 244.185625 197.183916 
" clip-path="url(#p10daa5e321)" style="fill: none; stroke: #b0b0b0; stroke-width: 0.8; stroke-linecap: square"/>
     </g>
     <g id="line2d_82">
      <g>
       <use xlink:href="#m54cc3c0d47" x="244.185625" y="241.410778" style="stroke: #000000; stroke-width: 0.8"/>
      </g>
     </g>
    </g>
    <g id="xtick_33">
     <g id="line2d_83">
      <path d="M 290.961619 241.410778 
L 290.961619 197.183916 
" clip-path="url(#p10daa5e321)" style="fill: none; stroke: #b0b0b0; stroke-width: 0.8; stroke-linecap: square"/>
     </g>
     <g id="line2d_84">
      <g>
       <use xlink:href="#m54cc3c0d47" x="290.961619" y="241.410778" style="stroke: #000000; stroke-width: 0.8"/>
      </g>
     </g>
    </g>
    <g id="xtick_34">
     <g id="line2d_85">
      <path d="M 337.737614 241.410778 
L 337.737614 197.183916 
" clip-path="url(#p10daa5e321)" style="fill: none; stroke: #b0b0b0; stroke-width: 0.8; stroke-linecap: square"/>
     </g>
     <g id="line2d_86">
      <g>
       <use xlink:href="#m54cc3c0d47" x="337.737614" y="241.410778" style="stroke: #000000; stroke-width: 0.8"/>
      </g>
     </g>
    </g>
    <g id="xtick_35">
     <g id="line2d_87">
      <path d="M 384.513608 241.410778 
L 384.513608 197.183916 
" clip-path="url(#p10daa5e321)" style="fill: none; stroke: #b0b0b0; stroke-width: 0.8; stroke-linecap: square"/>
     </g>
     <g id="line2d_88">
      <g>
       <use xlink:href="#m54cc3c0d47" x="384.513608" y="241.410778" style="stroke: #000000; stroke-width: 0.8"/>
      </g>
     </g>
    </g>
    <g id="xtick_36">
     <g id="line2d_89">
      <path d="M 431.289602 241.410778 
L 431.289602 197.183916 
" clip-path="url(#p10daa5e321)" style="fill: none; stroke: #b0b0b0; stroke-width: 0.8; stroke-linecap: square"/>
     </g>
     <g id="line2d_90">
      <g>
       <use xlink:href="#m54cc3c0d47" x="431.289602" y="241.410778" style="stroke: #000000; stroke-width: 0.8"/>
      </g>
     </g>
    </g>
   </g>
   <g id="matplotlib.axis_8">
    <g id="ytick_7">
     <g id="line2d_91">
      <path d="M 38.37125 237.378239 
L 450 237.378239 
" clip-path="url(#p10daa5e321)" style="fill: none; stroke: #b0b0b0; stroke-width: 0.8; stroke-linecap: square"/>
     </g>
     <g id="line2d_92">
      <g>
       <use xlink:href="#me948902b62" x="38.37125" y="237.378239" style="stroke: #000000; stroke-width: 0.8"/>
      </g>
     </g>
     <g id="text_13">
      <!-- 0 -->
      <g transform="translate(25.00875 241.177458) scale(0.1 -0.1)">
       <use xlink:href="#DejaVuSans-30"/>
      </g>
     </g>
    </g>
    <g id="ytick_8">
     <g id="line2d_93">
      <path d="M 38.37125 216.594402 
L 450 216.594402 
" clip-path="url(#p10daa5e321)" style="fill: none; stroke: #b0b0b0; stroke-width: 0.8; stroke-linecap: square"/>
     </g>
     <g id="line2d_94">
      <g>
       <use xlink:href="#me948902b62" x="38.37125" y="216.594402" style="stroke: #000000; stroke-width: 0.8"/>
      </g>
     </g>
     <g id="text_14">
      <!-- 1 -->
      <g transform="translate(25.00875 220.393621) scale(0.1 -0.1)">
       <use xlink:href="#DejaVuSans-31"/>
      </g>
     </g>
    </g>
    <g id="text_15">
     <!-- v(xdut.cp_up) -->
     <g transform="translate(18.650938 253.776253) rotate(-90) scale(0.1 -0.1)">
      <defs>
       <path id="DejaVuSans-70" d="M 1159 525 
L 1159 -1331 
L 581 -1331 
L 581 3500 
L 1159 3500 
L 1159 2969 
Q 1341 3281 1617 3432 
Q 1894 3584 2278 3584 
Q 2916 3584 3314 3078 
Q 3713 2572 3713 1747 
Q 3713 922 3314 415 
Q 2916 -91 2278 -91 
Q 1894 -91 1617 61 
Q 1341 213 1159 525 
z
M 3116 1747 
Q 3116 2381 2855 2742 
Q 2594 3103 2138 3103 
Q 1681 3103 1420 2742 
Q 1159 2381 1159 1747 
Q 1159 1113 1420 752 
Q 1681 391 2138 391 
Q 2594 391 2855 752 
Q 3116 1113 3116 1747 
z
" transform="scale(0.015625)"/>
      </defs>
      <use xlink:href="#DejaVuSans-76"/>
      <use xlink:href="#DejaVuSans-28" x="59.179688"/>
      <use xlink:href="#DejaVuSans-78" x="98.193359"/>
      <use xlink:href="#DejaVuSans-64" x="157.373047"/>
      <use xlink:href="#DejaVuSans-75" x="220.849609"/>
      <use xlink:href="#DejaVuSans-74" x="284.228516"/>
      <use xlink:href="#DejaVuSans-2e" x="323.4375"/>
      <use xlink:href="#DejaVuSans-63" x="355.224609"/>
      <use xlink:href="#DejaVuSans-70" x="410.205078"/>
      <use xlink:href="#DejaVuSans-5f" x="473.681641"/>
      <use xlink:href="#DejaVuSans-75" x="523.681641"/>
      <use xlink:href="#DejaVuSans-70" x="587.060547"/>
      <use xlink:href="#DejaVuSans-29" x="650.537109"/>
     </g>
    </g>
   </g>
   <g id="line2d_95">
    <path d="M 57.081648 237.378239 
L 57.175798 236.672735 
L 62.003979 232.187049 
L 66.908798 229.001042 
L 74.392957 206.387373 
L 75.792045 202.722587 
L 75.902228 202.88604 
L 76.122594 203.434931 
L 76.563326 208.914835 
L 77.444789 235.636839 
L 78.273479 237.857034 
L 79.136026 236.980865 
L 80.501217 237.687347 
L 82.596352 237.086978 
L 85.607752 237.655172 
L 90.505131 237.099515 
L 97.98929 237.64978 
L 103.876352 237.104626 
L 103.881966 237.191277 
L 103.989363 237.378776 
L 112.585402 237.37815 
L 115.572222 237.42904 
L 115.583448 237.520219 
L 115.611514 237.332031 
L 115.635463 237.35341 
L 115.905301 237.378743 
L 124.277063 237.378648 
L 174.034731 237.261692 
L 174.062796 238.940556 
L 174.086746 238.124032 
L 174.290641 200.351656 
L 174.525266 199.355705 
L 174.793427 239.400466 
L 174.93012 235.599882 
L 175.140198 238.855954 
L 175.336076 236.02813 
L 175.726468 238.600105 
L 176.190605 236.182257 
L 176.929843 238.50085 
L 178.053631 236.24631 
L 179.668467 238.461058 
L 182.23566 236.274188 
L 186.174787 238.444605 
L 193.237638 236.284896 
L 197.428341 238.434589 
L 197.541352 237.378074 
L 228.350879 237.3781 
L 290.974717 237.306247 
L 291.036162 239.191378 
L 291.317288 199.726268 
L 291.447443 199.458914 
L 291.71085 238.898632 
L 291.84673 236.058079 
L 292.005125 238.458414 
L 292.21218 236.390661 
L 292.533462 238.272853 
L 292.983375 236.510703 
L 293.774058 238.203391 
L 294.933672 236.553232 
L 296.854472 238.177562 
L 300.08502 236.56938 
L 305.870847 238.168768 
L 313.355006 236.574763 
L 320.839165 238.163947 
L 328.323325 236.579592 
L 335.807484 238.159159 
L 337.737614 236.591484 
L 337.802726 237.37769 
L 337.850624 237.375987 
L 339.027078 237.377643 
L 407.903476 237.347691 
L 407.907218 237.299679 
L 407.930793 238.05665 
L 407.966717 239.129593 
L 408.273238 199.844478 
L 408.411613 199.194228 
L 408.684715 239.395576 
L 408.821063 235.623505 
L 408.988977 238.784064 
L 409.197744 236.091275 
L 409.520671 238.527725 
L 409.956174 236.260326 
L 410.629744 238.425356 
L 411.638423 236.328276 
L 413.164676 238.38424 
L 415.540763 236.356184 
L 419.187648 238.367482 
L 425.879942 236.366938 
L 431.289602 238.358944 
L 431.289602 238.358944 
" clip-path="url(#p10daa5e321)" style="fill: none; stroke: #1f77b4; stroke-width: 1.5; stroke-linecap: square"/>
   </g>
   <g id="patch_21">
    <path d="M 38.37125 241.410778 
L 38.37125 197.183916 
" style="fill: none; stroke: #000000; stroke-width: 0.8; stroke-linejoin: miter; stroke-linecap: square"/>
   </g>
   <g id="patch_22">
    <path d="M 450 241.410778 
L 450 197.183916 
" style="fill: none; stroke: #000000; stroke-width: 0.8; stroke-linejoin: miter; stroke-linecap: square"/>
   </g>
   <g id="patch_23">
    <path d="M 38.37125 241.410778 
L 450 241.410778 
" style="fill: none; stroke: #000000; stroke-width: 0.8; stroke-linejoin: miter; stroke-linecap: square"/>
   </g>
   <g id="patch_24">
    <path d="M 38.37125 197.183916 
L 450 197.183916 
" style="fill: none; stroke: #000000; stroke-width: 0.8; stroke-linejoin: miter; stroke-linecap: square"/>
   </g>
   <g id="legend_4">
    <g id="patch_25">
     <path d="M 45.37125 228.275472 
L 146.329063 228.275472 
Q 148.329063 228.275472 148.329063 226.275472 
L 148.329063 212.319222 
Q 148.329063 210.319222 146.329063 210.319222 
L 45.37125 210.319222 
Q 43.37125 210.319222 43.37125 212.319222 
L 43.37125 226.275472 
Q 43.37125 228.275472 45.37125 228.275472 
z
" style="fill: #ffffff; opacity: 0.8; stroke: #cccccc; stroke-linejoin: miter"/>
    </g>
    <g id="line2d_96">
     <path d="M 47.37125 218.417659 
L 57.37125 218.417659 
L 67.37125 218.417659 
" style="fill: none; stroke: #1f77b4; stroke-width: 1.5; stroke-linecap: square"/>
    </g>
    <g id="text_16">
     <!-- v(xdut.cp_up) -->
     <g transform="translate(75.37125 221.917659) scale(0.1 -0.1)">
      <use xlink:href="#DejaVuSans-76"/>
      <use xlink:href="#DejaVuSans-28" x="59.179688"/>
      <use xlink:href="#DejaVuSans-78" x="98.193359"/>
      <use xlink:href="#DejaVuSans-64" x="157.373047"/>
      <use xlink:href="#DejaVuSans-75" x="220.849609"/>
      <use xlink:href="#DejaVuSans-74" x="284.228516"/>
      <use xlink:href="#DejaVuSans-2e" x="323.4375"/>
      <use xlink:href="#DejaVuSans-63" x="355.224609"/>
      <use xlink:href="#DejaVuSans-70" x="410.205078"/>
      <use xlink:href="#DejaVuSans-5f" x="473.681641"/>
      <use xlink:href="#DejaVuSans-75" x="523.681641"/>
      <use xlink:href="#DejaVuSans-70" x="587.060547"/>
      <use xlink:href="#DejaVuSans-29" x="650.537109"/>
     </g>
    </g>
   </g>
  </g>
  <g id="axes_5">
   <g id="patch_26">
    <path d="M 38.37125 303.53875 
L 450 303.53875 
L 450 259.311888 
L 38.37125 259.311888 
z
" style="fill: #ffffff"/>
   </g>
   <g id="matplotlib.axis_9">
    <g id="xtick_37">
     <g id="line2d_97">
      <path d="M 57.081648 303.53875 
L 57.081648 259.311888 
" clip-path="url(#p2fa99d74e5)" style="fill: none; stroke: #b0b0b0; stroke-width: 0.8; stroke-linecap: square"/>
     </g>
     <g id="line2d_98">
      <g>
       <use xlink:href="#m54cc3c0d47" x="57.081648" y="303.53875" style="stroke: #000000; stroke-width: 0.8"/>
      </g>
     </g>
     <g id="text_17">
      <!-- 0.00 -->
      <g transform="translate(45.948835 318.137188) scale(0.1 -0.1)">
       <use xlink:href="#DejaVuSans-30"/>
       <use xlink:href="#DejaVuSans-2e" x="63.623047"/>
       <use xlink:href="#DejaVuSans-30" x="95.410156"/>
       <use xlink:href="#DejaVuSans-30" x="159.033203"/>
      </g>
     </g>
    </g>
    <g id="xtick_38">
     <g id="line2d_99">
      <path d="M 103.857642 303.53875 
L 103.857642 259.311888 
" clip-path="url(#p2fa99d74e5)" style="fill: none; stroke: #b0b0b0; stroke-width: 0.8; stroke-linecap: square"/>
     </g>
     <g id="line2d_100">
      <g>
       <use xlink:href="#m54cc3c0d47" x="103.857642" y="303.53875" style="stroke: #000000; stroke-width: 0.8"/>
      </g>
     </g>
     <g id="text_18">
      <!-- 0.25 -->
      <g transform="translate(92.72483 318.137188) scale(0.1 -0.1)">
       <defs>
        <path id="DejaVuSans-32" d="M 1228 531 
L 3431 531 
L 3431 0 
L 469 0 
L 469 531 
Q 828 903 1448 1529 
Q 2069 2156 2228 2338 
Q 2531 2678 2651 2914 
Q 2772 3150 2772 3378 
Q 2772 3750 2511 3984 
Q 2250 4219 1831 4219 
Q 1534 4219 1204 4116 
Q 875 4013 500 3803 
L 500 4441 
Q 881 4594 1212 4672 
Q 1544 4750 1819 4750 
Q 2544 4750 2975 4387 
Q 3406 4025 3406 3419 
Q 3406 3131 3298 2873 
Q 3191 2616 2906 2266 
Q 2828 2175 2409 1742 
Q 1991 1309 1228 531 
z
" transform="scale(0.015625)"/>
        <path id="DejaVuSans-35" d="M 691 4666 
L 3169 4666 
L 3169 4134 
L 1269 4134 
L 1269 2991 
Q 1406 3038 1543 3061 
Q 1681 3084 1819 3084 
Q 2600 3084 3056 2656 
Q 3513 2228 3513 1497 
Q 3513 744 3044 326 
Q 2575 -91 1722 -91 
Q 1428 -91 1123 -41 
Q 819 9 494 109 
L 494 744 
Q 775 591 1075 516 
Q 1375 441 1709 441 
Q 2250 441 2565 725 
Q 2881 1009 2881 1497 
Q 2881 1984 2565 2268 
Q 2250 2553 1709 2553 
Q 1456 2553 1204 2497 
Q 953 2441 691 2322 
L 691 4666 
z
" transform="scale(0.015625)"/>
       </defs>
       <use xlink:href="#DejaVuSans-30"/>
       <use xlink:href="#DejaVuSans-2e" x="63.623047"/>
       <use xlink:href="#DejaVuSans-32" x="95.410156"/>
       <use xlink:href="#DejaVuSans-35" x="159.033203"/>
      </g>
     </g>
    </g>
    <g id="xtick_39">
     <g id="line2d_101">
      <path d="M 150.633636 303.53875 
L 150.633636 259.311888 
" clip-path="url(#p2fa99d74e5)" style="fill: none; stroke: #b0b0b0; stroke-width: 0.8; stroke-linecap: square"/>
     </g>
     <g id="line2d_102">
      <g>
       <use xlink:href="#m54cc3c0d47" x="150.633636" y="303.53875" style="stroke: #000000; stroke-width: 0.8"/>
      </g>
     </g>
     <g id="text_19">
      <!-- 0.50 -->
      <g transform="translate(139.500824 318.137188) scale(0.1 -0.1)">
       <use xlink:href="#DejaVuSans-30"/>
       <use xlink:href="#DejaVuSans-2e" x="63.623047"/>
       <use xlink:href="#DejaVuSans-35" x="95.410156"/>
       <use xlink:href="#DejaVuSans-30" x="159.033203"/>
      </g>
     </g>
    </g>
    <g id="xtick_40">
     <g id="line2d_103">
      <path d="M 197.409631 303.53875 
L 197.409631 259.311888 
" clip-path="url(#p2fa99d74e5)" style="fill: none; stroke: #b0b0b0; stroke-width: 0.8; stroke-linecap: square"/>
     </g>
     <g id="line2d_104">
      <g>
       <use xlink:href="#m54cc3c0d47" x="197.409631" y="303.53875" style="stroke: #000000; stroke-width: 0.8"/>
      </g>
     </g>
     <g id="text_20">
      <!-- 0.75 -->
      <g transform="translate(186.276818 318.137188) scale(0.1 -0.1)">
       <defs>
        <path id="DejaVuSans-37" d="M 525 4666 
L 3525 4666 
L 3525 4397 
L 1831 0 
L 1172 0 
L 2766 4134 
L 525 4134 
L 525 4666 
z
" transform="scale(0.015625)"/>
       </defs>
       <use xlink:href="#DejaVuSans-30"/>
       <use xlink:href="#DejaVuSans-2e" x="63.623047"/>
       <use xlink:href="#DejaVuSans-37" x="95.410156"/>
       <use xlink:href="#DejaVuSans-35" x="159.033203"/>
      </g>
     </g>
    </g>
    <g id="xtick_41">
     <g id="line2d_105">
      <path d="M 244.185625 303.53875 
L 244.185625 259.311888 
" clip-path="url(#p2fa99d74e5)" style="fill: none; stroke: #b0b0b0; stroke-width: 0.8; stroke-linecap: square"/>
     </g>
     <g id="line2d_106">
      <g>
       <use xlink:href="#m54cc3c0d47" x="244.185625" y="303.53875" style="stroke: #000000; stroke-width: 0.8"/>
      </g>
     </g>
     <g id="text_21">
      <!-- 1.00 -->
      <g transform="translate(233.052812 318.137188) scale(0.1 -0.1)">
       <use xlink:href="#DejaVuSans-31"/>
       <use xlink:href="#DejaVuSans-2e" x="63.623047"/>
       <use xlink:href="#DejaVuSans-30" x="95.410156"/>
       <use xlink:href="#DejaVuSans-30" x="159.033203"/>
      </g>
     </g>
    </g>
    <g id="xtick_42">
     <g id="line2d_107">
      <path d="M 290.961619 303.53875 
L 290.961619 259.311888 
" clip-path="url(#p2fa99d74e5)" style="fill: none; stroke: #b0b0b0; stroke-width: 0.8; stroke-linecap: square"/>
     </g>
     <g id="line2d_108">
      <g>
       <use xlink:href="#m54cc3c0d47" x="290.961619" y="303.53875" style="stroke: #000000; stroke-width: 0.8"/>
      </g>
     </g>
     <g id="text_22">
      <!-- 1.25 -->
      <g transform="translate(279.828807 318.137188) scale(0.1 -0.1)">
       <use xlink:href="#DejaVuSans-31"/>
       <use xlink:href="#DejaVuSans-2e" x="63.623047"/>
       <use xlink:href="#DejaVuSans-32" x="95.410156"/>
       <use xlink:href="#DejaVuSans-35" x="159.033203"/>
      </g>
     </g>
    </g>
    <g id="xtick_43">
     <g id="line2d_109">
      <path d="M 337.737614 303.53875 
L 337.737614 259.311888 
" clip-path="url(#p2fa99d74e5)" style="fill: none; stroke: #b0b0b0; stroke-width: 0.8; stroke-linecap: square"/>
     </g>
     <g id="line2d_110">
      <g>
       <use xlink:href="#m54cc3c0d47" x="337.737614" y="303.53875" style="stroke: #000000; stroke-width: 0.8"/>
      </g>
     </g>
     <g id="text_23">
      <!-- 1.50 -->
      <g transform="translate(326.604801 318.137188) scale(0.1 -0.1)">
       <use xlink:href="#DejaVuSans-31"/>
       <use xlink:href="#DejaVuSans-2e" x="63.623047"/>
       <use xlink:href="#DejaVuSans-35" x="95.410156"/>
       <use xlink:href="#DejaVuSans-30" x="159.033203"/>
      </g>
     </g>
    </g>
    <g id="xtick_44">
     <g id="line2d_111">
      <path d="M 384.513608 303.53875 
L 384.513608 259.311888 
" clip-path="url(#p2fa99d74e5)" style="fill: none; stroke: #b0b0b0; stroke-width: 0.8; stroke-linecap: square"/>
     </g>
     <g id="line2d_112">
      <g>
       <use xlink:href="#m54cc3c0d47" x="384.513608" y="303.53875" style="stroke: #000000; stroke-width: 0.8"/>
      </g>
     </g>
     <g id="text_24">
      <!-- 1.75 -->
      <g transform="translate(373.380795 318.137188) scale(0.1 -0.1)">
       <use xlink:href="#DejaVuSans-31"/>
       <use xlink:href="#DejaVuSans-2e" x="63.623047"/>
       <use xlink:href="#DejaVuSans-37" x="95.410156"/>
       <use xlink:href="#DejaVuSans-35" x="159.033203"/>
      </g>
     </g>
    </g>
    <g id="xtick_45">
     <g id="line2d_113">
      <path d="M 431.289602 303.53875 
L 431.289602 259.311888 
" clip-path="url(#p2fa99d74e5)" style="fill: none; stroke: #b0b0b0; stroke-width: 0.8; stroke-linecap: square"/>
     </g>
     <g id="line2d_114">
      <g>
       <use xlink:href="#m54cc3c0d47" x="431.289602" y="303.53875" style="stroke: #000000; stroke-width: 0.8"/>
      </g>
     </g>
     <g id="text_25">
      <!-- 2.00 -->
      <g transform="translate(420.15679 318.137188) scale(0.1 -0.1)">
       <use xlink:href="#DejaVuSans-32"/>
       <use xlink:href="#DejaVuSans-2e" x="63.623047"/>
       <use xlink:href="#DejaVuSans-30" x="95.410156"/>
       <use xlink:href="#DejaVuSans-30" x="159.033203"/>
      </g>
     </g>
    </g>
    <g id="text_26">
     <!-- time(output_tran/tran_SchGtKttTtVtHigh.raw) -->
     <g transform="translate(130.505156 331.815313) scale(0.1 -0.1)">
      <defs>
       <path id="DejaVuSans-69" d="M 603 3500 
L 1178 3500 
L 1178 0 
L 603 0 
L 603 3500 
z
M 603 4863 
L 1178 4863 
L 1178 4134 
L 603 4134 
L 603 4863 
z
" transform="scale(0.015625)"/>
       <path id="DejaVuSans-6d" d="M 3328 2828 
Q 3544 3216 3844 3400 
Q 4144 3584 4550 3584 
Q 5097 3584 5394 3201 
Q 5691 2819 5691 2113 
L 5691 0 
L 5113 0 
L 5113 2094 
Q 5113 2597 4934 2840 
Q 4756 3084 4391 3084 
Q 3944 3084 3684 2787 
Q 3425 2491 3425 1978 
L 3425 0 
L 2847 0 
L 2847 2094 
Q 2847 2600 2669 2842 
Q 2491 3084 2119 3084 
Q 1678 3084 1418 2786 
Q 1159 2488 1159 1978 
L 1159 0 
L 581 0 
L 581 3500 
L 1159 3500 
L 1159 2956 
Q 1356 3278 1631 3431 
Q 1906 3584 2284 3584 
Q 2666 3584 2933 3390 
Q 3200 3197 3328 2828 
z
" transform="scale(0.015625)"/>
       <path id="DejaVuSans-6f" d="M 1959 3097 
Q 1497 3097 1228 2736 
Q 959 2375 959 1747 
Q 959 1119 1226 758 
Q 1494 397 1959 397 
Q 2419 397 2687 759 
Q 2956 1122 2956 1747 
Q 2956 2369 2687 2733 
Q 2419 3097 1959 3097 
z
M 1959 3584 
Q 2709 3584 3137 3096 
Q 3566 2609 3566 1747 
Q 3566 888 3137 398 
Q 2709 -91 1959 -91 
Q 1206 -91 779 398 
Q 353 888 353 1747 
Q 353 2609 779 3096 
Q 1206 3584 1959 3584 
z
" transform="scale(0.015625)"/>
       <path id="DejaVuSans-61" d="M 2194 1759 
Q 1497 1759 1228 1600 
Q 959 1441 959 1056 
Q 959 750 1161 570 
Q 1363 391 1709 391 
Q 2188 391 2477 730 
Q 2766 1069 2766 1631 
L 2766 1759 
L 2194 1759 
z
M 3341 1997 
L 3341 0 
L 2766 0 
L 2766 531 
Q 2569 213 2275 61 
Q 1981 -91 1556 -91 
Q 1019 -91 701 211 
Q 384 513 384 1019 
Q 384 1609 779 1909 
Q 1175 2209 1959 2209 
L 2766 2209 
L 2766 2266 
Q 2766 2663 2505 2880 
Q 2244 3097 1772 3097 
Q 1472 3097 1187 3025 
Q 903 2953 641 2809 
L 641 3341 
Q 956 3463 1253 3523 
Q 1550 3584 1831 3584 
Q 2591 3584 2966 3190 
Q 3341 2797 3341 1997 
z
" transform="scale(0.015625)"/>
       <path id="DejaVuSans-6e" d="M 3513 2113 
L 3513 0 
L 2938 0 
L 2938 2094 
Q 2938 2591 2744 2837 
Q 2550 3084 2163 3084 
Q 1697 3084 1428 2787 
Q 1159 2491 1159 1978 
L 1159 0 
L 581 0 
L 581 3500 
L 1159 3500 
L 1159 2956 
Q 1366 3272 1645 3428 
Q 1925 3584 2291 3584 
Q 2894 3584 3203 3211 
Q 3513 2838 3513 2113 
z
" transform="scale(0.015625)"/>
       <path id="DejaVuSans-2f" d="M 1625 4666 
L 2156 4666 
L 531 -594 
L 0 -594 
L 1625 4666 
z
" transform="scale(0.015625)"/>
       <path id="DejaVuSans-53" d="M 3425 4513 
L 3425 3897 
Q 3066 4069 2747 4153 
Q 2428 4238 2131 4238 
Q 1616 4238 1336 4038 
Q 1056 3838 1056 3469 
Q 1056 3159 1242 3001 
Q 1428 2844 1947 2747 
L 2328 2669 
Q 3034 2534 3370 2195 
Q 3706 1856 3706 1288 
Q 3706 609 3251 259 
Q 2797 -91 1919 -91 
Q 1588 -91 1214 -16 
Q 841 59 441 206 
L 441 856 
Q 825 641 1194 531 
Q 1563 422 1919 422 
Q 2459 422 2753 634 
Q 3047 847 3047 1241 
Q 3047 1584 2836 1778 
Q 2625 1972 2144 2069 
L 1759 2144 
Q 1053 2284 737 2584 
Q 422 2884 422 3419 
Q 422 4038 858 4394 
Q 1294 4750 2059 4750 
Q 2388 4750 2728 4690 
Q 3069 4631 3425 4513 
z
" transform="scale(0.015625)"/>
       <path id="DejaVuSans-68" d="M 3513 2113 
L 3513 0 
L 2938 0 
L 2938 2094 
Q 2938 2591 2744 2837 
Q 2550 3084 2163 3084 
Q 1697 3084 1428 2787 
Q 1159 2491 1159 1978 
L 1159 0 
L 581 0 
L 581 4863 
L 1159 4863 
L 1159 2956 
Q 1366 3272 1645 3428 
Q 1925 3584 2291 3584 
Q 2894 3584 3203 3211 
Q 3513 2838 3513 2113 
z
" transform="scale(0.015625)"/>
       <path id="DejaVuSans-47" d="M 3809 666 
L 3809 1919 
L 2778 1919 
L 2778 2438 
L 4434 2438 
L 4434 434 
Q 4069 175 3628 42 
Q 3188 -91 2688 -91 
Q 1594 -91 976 548 
Q 359 1188 359 2328 
Q 359 3472 976 4111 
Q 1594 4750 2688 4750 
Q 3144 4750 3555 4637 
Q 3966 4525 4313 4306 
L 4313 3634 
Q 3963 3931 3569 4081 
Q 3175 4231 2741 4231 
Q 1884 4231 1454 3753 
Q 1025 3275 1025 2328 
Q 1025 1384 1454 906 
Q 1884 428 2741 428 
Q 3075 428 3337 486 
Q 3600 544 3809 666 
z
" transform="scale(0.015625)"/>
       <path id="DejaVuSans-4b" d="M 628 4666 
L 1259 4666 
L 1259 2694 
L 3353 4666 
L 4166 4666 
L 1850 2491 
L 4331 0 
L 3500 0 
L 1259 2247 
L 1259 0 
L 628 0 
L 628 4666 
z
" transform="scale(0.015625)"/>
       <path id="DejaVuSans-54" d="M -19 4666 
L 3928 4666 
L 3928 4134 
L 2272 4134 
L 2272 0 
L 1638 0 
L 1638 4134 
L -19 4134 
L -19 4666 
z
" transform="scale(0.015625)"/>
       <path id="DejaVuSans-56" d="M 1831 0 
L 50 4666 
L 709 4666 
L 2188 738 
L 3669 4666 
L 4325 4666 
L 2547 0 
L 1831 0 
z
" transform="scale(0.015625)"/>
       <path id="DejaVuSans-48" d="M 628 4666 
L 1259 4666 
L 1259 2753 
L 3553 2753 
L 3553 4666 
L 4184 4666 
L 4184 0 
L 3553 0 
L 3553 2222 
L 1259 2222 
L 1259 0 
L 628 0 
L 628 4666 
z
" transform="scale(0.015625)"/>
       <path id="DejaVuSans-67" d="M 2906 1791 
Q 2906 2416 2648 2759 
Q 2391 3103 1925 3103 
Q 1463 3103 1205 2759 
Q 947 2416 947 1791 
Q 947 1169 1205 825 
Q 1463 481 1925 481 
Q 2391 481 2648 825 
Q 2906 1169 2906 1791 
z
M 3481 434 
Q 3481 -459 3084 -895 
Q 2688 -1331 1869 -1331 
Q 1566 -1331 1297 -1286 
Q 1028 -1241 775 -1147 
L 775 -588 
Q 1028 -725 1275 -790 
Q 1522 -856 1778 -856 
Q 2344 -856 2625 -561 
Q 2906 -266 2906 331 
L 2906 616 
Q 2728 306 2450 153 
Q 2172 0 1784 0 
Q 1141 0 747 490 
Q 353 981 353 1791 
Q 353 2603 747 3093 
Q 1141 3584 1784 3584 
Q 2172 3584 2450 3431 
Q 2728 3278 2906 2969 
L 2906 3500 
L 3481 3500 
L 3481 434 
z
" transform="scale(0.015625)"/>
       <path id="DejaVuSans-77" d="M 269 3500 
L 844 3500 
L 1563 769 
L 2278 3500 
L 2956 3500 
L 3675 769 
L 4391 3500 
L 4966 3500 
L 4050 0 
L 3372 0 
L 2619 2869 
L 1863 0 
L 1184 0 
L 269 3500 
z
" transform="scale(0.015625)"/>
      </defs>
      <use xlink:href="#DejaVuSans-74"/>
      <use xlink:href="#DejaVuSans-69" x="39.208984"/>
      <use xlink:href="#DejaVuSans-6d" x="66.992188"/>
      <use xlink:href="#DejaVuSans-65" x="164.404297"/>
      <use xlink:href="#DejaVuSans-28" x="225.927734"/>
      <use xlink:href="#DejaVuSans-6f" x="264.941406"/>
      <use xlink:href="#DejaVuSans-75" x="326.123047"/>
      <use xlink:href="#DejaVuSans-74" x="389.501953"/>
      <use xlink:href="#DejaVuSans-70" x="428.710938"/>
      <use xlink:href="#DejaVuSans-75" x="492.1875"/>
      <use xlink:href="#DejaVuSans-74" x="555.566406"/>
      <use xlink:href="#DejaVuSans-5f" x="594.775391"/>
      <use xlink:href="#DejaVuSans-74" x="644.775391"/>
      <use xlink:href="#DejaVuSans-72" x="683.984375"/>
      <use xlink:href="#DejaVuSans-61" x="725.097656"/>
      <use xlink:href="#DejaVuSans-6e" x="786.376953"/>
      <use xlink:href="#DejaVuSans-2f" x="849.755859"/>
      <use xlink:href="#DejaVuSans-74" x="883.447266"/>
      <use xlink:href="#DejaVuSans-72" x="922.65625"/>
      <use xlink:href="#DejaVuSans-61" x="963.769531"/>
      <use xlink:href="#DejaVuSans-6e" x="1025.048828"/>
      <use xlink:href="#DejaVuSans-5f" x="1088.427734"/>
      <use xlink:href="#DejaVuSans-53" x="1138.427734"/>
      <use xlink:href="#DejaVuSans-63" x="1201.904297"/>
      <use xlink:href="#DejaVuSans-68" x="1256.884766"/>
      <use xlink:href="#DejaVuSans-47" x="1320.263672"/>
      <use xlink:href="#DejaVuSans-74" x="1397.753906"/>
      <use xlink:href="#DejaVuSans-4b" x="1436.962891"/>
      <use xlink:href="#DejaVuSans-74" x="1502.539062"/>
      <use xlink:href="#DejaVuSans-74" x="1541.748047"/>
      <use xlink:href="#DejaVuSans-54" x="1580.957031"/>
      <use xlink:href="#DejaVuSans-74" x="1642.041016"/>
      <use xlink:href="#DejaVuSans-56" x="1681.25"/>
      <use xlink:href="#DejaVuSans-74" x="1749.658203"/>
      <use xlink:href="#DejaVuSans-48" x="1788.867188"/>
      <use xlink:href="#DejaVuSans-69" x="1864.0625"/>
      <use xlink:href="#DejaVuSans-67" x="1891.845703"/>
      <use xlink:href="#DejaVuSans-68" x="1955.322266"/>
      <use xlink:href="#DejaVuSans-2e" x="2018.701172"/>
      <use xlink:href="#DejaVuSans-72" x="2050.488281"/>
      <use xlink:href="#DejaVuSans-61" x="2091.601562"/>
      <use xlink:href="#DejaVuSans-77" x="2152.880859"/>
      <use xlink:href="#DejaVuSans-29" x="2234.667969"/>
     </g>
    </g>
    <g id="text_27">
     <!-- 1e7 -->
     <g transform="translate(422.742188 330.815313) scale(0.1 -0.1)">
      <defs>
       <path id="DejaVuSans-2212" d="M 678 2272 
L 4684 2272 
L 4684 1741 
L 678 1741 
L 678 2272 
z
" transform="scale(0.015625)"/>
      </defs>
      <use xlink:href="#DejaVuSans-31"/>
      <use xlink:href="#DejaVuSans-65" x="63.623047"/>
      <use xlink:href="#DejaVuSans-2212" x="125.146484"/>
      <use xlink:href="#DejaVuSans-37" x="208.935547"/>
     </g>
    </g>
   </g>
   <g id="matplotlib.axis_10">
    <g id="ytick_9">
     <g id="line2d_115">
      <path d="M 38.37125 299.352944 
L 450 299.352944 
" clip-path="url(#p2fa99d74e5)" style="fill: none; stroke: #b0b0b0; stroke-width: 0.8; stroke-linecap: square"/>
     </g>
     <g id="line2d_116">
      <g>
       <use xlink:href="#me948902b62" x="38.37125" y="299.352944" style="stroke: #000000; stroke-width: 0.8"/>
      </g>
     </g>
     <g id="text_28">
      <!-- 0 -->
      <g transform="translate(25.00875 303.152162) scale(0.1 -0.1)">
       <use xlink:href="#DejaVuSans-30"/>
      </g>
     </g>
    </g>
    <g id="ytick_10">
     <g id="line2d_117">
      <path d="M 38.37125 259.657836 
L 450 259.657836 
" clip-path="url(#p2fa99d74e5)" style="fill: none; stroke: #b0b0b0; stroke-width: 0.8; stroke-linecap: square"/>
     </g>
     <g id="line2d_118">
      <g>
       <use xlink:href="#me948902b62" x="38.37125" y="259.657836" style="stroke: #000000; stroke-width: 0.8"/>
      </g>
     </g>
     <g id="text_29">
      <!-- 2 -->
      <g transform="translate(25.00875 263.457055) scale(0.1 -0.1)">
       <use xlink:href="#DejaVuSans-32"/>
      </g>
     </g>
    </g>
    <g id="text_30">
     <!-- v(cp_down) -->
     <g transform="translate(18.650938 310.2011) rotate(-90) scale(0.1 -0.1)">
      <use xlink:href="#DejaVuSans-76"/>
      <use xlink:href="#DejaVuSans-28" x="59.179688"/>
      <use xlink:href="#DejaVuSans-63" x="98.193359"/>
      <use xlink:href="#DejaVuSans-70" x="153.173828"/>
      <use xlink:href="#DejaVuSans-5f" x="216.650391"/>
      <use xlink:href="#DejaVuSans-64" x="266.650391"/>
      <use xlink:href="#DejaVuSans-6f" x="330.126953"/>
      <use xlink:href="#DejaVuSans-77" x="391.308594"/>
      <use xlink:href="#DejaVuSans-6e" x="473.095703"/>
      <use xlink:href="#DejaVuSans-29" x="536.474609"/>
     </g>
    </g>
   </g>
   <g id="line2d_119">
    <path d="M 57.081648 299.352944 
L 57.175798 298.078559 
L 62.003979 293.9314 
L 66.908798 292.235689 
L 74.392957 268.502033 
L 75.792045 265.989073 
L 76.122594 266.992113 
L 76.563326 275.622622 
L 77.444789 298.878491 
L 78.273479 299.394693 
L 79.136026 299.291026 
L 80.501217 299.397241 
L 82.596352 299.308775 
L 85.607752 299.395635 
L 90.505131 299.3098 
L 97.98929 299.395424 
L 103.878223 299.409272 
L 103.881966 299.520384 
L 103.905541 299.280338 
L 103.941465 299.336911 
L 104.4146 299.352927 
L 150.646734 299.228181 
L 150.674799 301.381123 
L 150.698749 298.714406 
L 150.823881 261.3222 
L 150.903468 264.900688 
L 151.037431 262.794001 
L 151.169821 264.219086 
L 151.434603 263.13991 
L 151.870162 264.06854 
L 152.614312 263.217456 
L 154.102614 264.028373 
L 156.732121 263.237059 
L 161.991134 264.017768 
L 169.475294 263.242933 
L 174.021634 264.011428 
L 174.023505 263.954331 
L 174.134644 263.519419 
L 174.21097 263.755866 
L 174.290641 263.570763 
L 174.374937 263.677048 
L 174.525266 262.395807 
L 174.663752 297.252541 
L 174.793427 300.271436 
L 174.93012 298.475044 
L 175.140198 300.153499 
L 175.336076 298.578071 
L 175.726468 300.091096 
L 176.190605 298.617751 
L 176.929843 300.064337 
L 178.053631 298.635221 
L 179.668467 300.053123 
L 182.23566 298.643009 
L 186.174787 300.048399 
L 193.237638 298.646041 
L 197.428341 300.045538 
L 197.457529 299.289025 
L 197.541352 299.337474 
L 198.468808 299.351955 
L 228.350879 299.353898 
L 244.198722 299.291355 
L 244.250737 301.528438 
L 244.372426 262.593177 
L 244.454011 264.13305 
L 244.57753 263.312337 
L 244.704371 263.839146 
L 244.958052 263.453476 
L 245.465415 263.786566 
L 246.48014 263.475799 
L 248.50959 263.776008 
L 252.568491 263.480844 
L 260.05265 263.773431 
L 267.536809 263.48262 
L 275.020968 263.771651 
L 282.505127 263.484371 
L 289.989286 263.769896 
L 290.961619 263.491723 
L 290.974717 263.589638 
L 290.981827 263.822952 
L 290.99904 264.717791 
L 291.07448 263.305077 
L 291.230135 263.626857 
L 291.317288 263.552435 
L 291.447443 261.984078 
L 291.582464 297.430856 
L 291.71085 300.25166 
L 291.84673 298.500509 
L 292.005125 300.136373 
L 292.21218 298.593542 
L 292.533462 300.077357 
L 292.983375 298.633355 
L 293.774058 300.05284 
L 294.933672 298.648392 
L 296.854472 300.043461 
L 300.08502 298.654138 
L 305.870847 300.040456 
L 313.355006 298.655687 
L 320.839165 300.038893 
L 328.323325 298.657226 
L 335.807484 300.037225 
L 337.737614 298.661532 
L 337.802726 301.471453 
L 337.926568 262.612693 
L 338.008824 264.111688 
L 338.146464 263.318489 
L 338.272266 263.832955 
L 338.52387 263.460145 
L 339.027078 263.779933 
L 340.033493 263.482443 
L 342.046324 263.769416 
L 346.071985 263.487455 
L 349.47053 263.65831 
L 349.563333 263.627849 
L 357.819441 263.627363 
L 384.532318 263.627364 
L 384.545416 264.760659 
L 384.597431 263.630639 
L 385.31591 263.628137 
L 407.966717 263.645848 
L 408.014616 263.379237 
L 408.091633 263.521777 
L 408.184756 263.666646 
L 408.273238 263.529436 
L 408.411613 261.714632 
L 408.554833 297.750953 
L 408.684715 300.223372 
L 408.821063 298.528124 
L 408.988977 300.115487 
L 409.197744 298.613989 
L 409.520671 300.059037 
L 409.956174 298.652233 
L 410.629744 300.033381 
L 411.638423 298.669127 
L 413.164676 300.022559 
L 415.540763 298.676237 
L 419.187648 300.018179 
L 425.879942 298.678822 
L 431.289602 300.015708 
L 431.289602 300.015708 
" clip-path="url(#p2fa99d74e5)" style="fill: none; stroke: #1f77b4; stroke-width: 1.5; stroke-linecap: square"/>
   </g>
   <g id="patch_27">
    <path d="M 38.37125 303.53875 
L 38.37125 259.311888 
" style="fill: none; stroke: #000000; stroke-width: 0.8; stroke-linejoin: miter; stroke-linecap: square"/>
   </g>
   <g id="patch_28">
    <path d="M 450 303.53875 
L 450 259.311888 
" style="fill: none; stroke: #000000; stroke-width: 0.8; stroke-linejoin: miter; stroke-linecap: square"/>
   </g>
   <g id="patch_29">
    <path d="M 38.37125 303.53875 
L 450 303.53875 
" style="fill: none; stroke: #000000; stroke-width: 0.8; stroke-linejoin: miter; stroke-linecap: square"/>
   </g>
   <g id="patch_30">
    <path d="M 38.37125 259.311888 
L 450 259.311888 
" style="fill: none; stroke: #000000; stroke-width: 0.8; stroke-linejoin: miter; stroke-linecap: square"/>
   </g>
   <g id="legend_5">
    <g id="patch_31">
     <path d="M 353.448438 290.403444 
L 443 290.403444 
Q 445 290.403444 445 288.403444 
L 445 274.447194 
Q 445 272.447194 443 272.447194 
L 353.448438 272.447194 
Q 351.448438 272.447194 351.448438 274.447194 
L 351.448438 288.403444 
Q 351.448438 290.403444 353.448438 290.403444 
z
" style="fill: #ffffff; opacity: 0.8; stroke: #cccccc; stroke-linejoin: miter"/>
    </g>
    <g id="line2d_120">
     <path d="M 355.448438 280.545631 
L 365.448438 280.545631 
L 375.448438 280.545631 
" style="fill: none; stroke: #1f77b4; stroke-width: 1.5; stroke-linecap: square"/>
    </g>
    <g id="text_31">
     <!-- v(cp_down) -->
     <g transform="translate(383.448438 284.045631) scale(0.1 -0.1)">
      <use xlink:href="#DejaVuSans-76"/>
      <use xlink:href="#DejaVuSans-28" x="59.179688"/>
      <use xlink:href="#DejaVuSans-63" x="98.193359"/>
      <use xlink:href="#DejaVuSans-70" x="153.173828"/>
      <use xlink:href="#DejaVuSans-5f" x="216.650391"/>
      <use xlink:href="#DejaVuSans-64" x="266.650391"/>
      <use xlink:href="#DejaVuSans-6f" x="330.126953"/>
      <use xlink:href="#DejaVuSans-77" x="391.308594"/>
      <use xlink:href="#DejaVuSans-6e" x="473.095703"/>
      <use xlink:href="#DejaVuSans-29" x="536.474609"/>
     </g>
    </g>
   </g>
  </g>
 </g>
 <defs>
  <clipPath id="p659b845d19">
   <rect x="38.37125" y="10.8" width="411.62875" height="44.226862"/>
  </clipPath>
  <clipPath id="p7bf7f4e550">
   <rect x="38.37125" y="72.927972" width="411.62875" height="44.226862"/>
  </clipPath>
  <clipPath id="p0eaea20426">
   <rect x="38.37125" y="135.055944" width="411.62875" height="44.226862"/>
  </clipPath>
  <clipPath id="p10daa5e321">
   <rect x="38.37125" y="197.183916" width="411.62875" height="44.226862"/>
  </clipPath>
  <clipPath id="p2fa99d74e5">
   <rect x="38.37125" y="259.311888" width="411.62875" height="44.226862"/>
  </clipPath>
 </defs>
</svg>
