<svg xmlns="http://www.w3.org/2000/svg" xmlns:xlink="http://www.w3.org/1999/xlink" width="1000" height="700" version="1.1">
<style type="text/css">
.l0{
 fill: #ffffff;
  stroke: #ffffff;
  stroke-linecap:round;
  stroke-linejoin:round;
  stroke-width: 0.60907;
}
.l1{
 fill: #0044ee;
  stroke: #0044ee;
  stroke-linecap:round;
  stroke-linejoin:round;
  stroke-width: 0.60907;
}
.l2{
  fill: none;
  stroke: #aaaaaa;
  stroke-linecap:round;
  stroke-linejoin:round;
  stroke-width: 0.60907;
}
.l3{
 fill: #222222; fill-opacity: 0.5;
  stroke: #222222;
  stroke-linecap:round;
  stroke-linejoin:round;
  stroke-width: 0.60907;
}
.l4{
 fill: #229900;
  stroke: #229900;
  stroke-linecap:round;
  stroke-linejoin:round;
  stroke-width: 0.60907;
}
.l5{
 fill: #bb2200;
  stroke: #bb2200;
  stroke-linecap:round;
  stroke-linejoin:round;
  stroke-width: 0.60907;
}
.l6{
 fill: #00ccee; fill-opacity: 0.5;
  stroke: #00ccee;
  stroke-linecap:round;
  stroke-linejoin:round;
  stroke-width: 0.60907;
}
.l7{
 fill: #ff0000; fill-opacity: 0.5;
  stroke: #ff0000;
  stroke-linecap:round;
  stroke-linejoin:round;
  stroke-width: 0.60907;
}
.l8{
 fill: #888800; fill-opacity: 0.5;
  stroke: #888800;
  stroke-linecap:round;
  stroke-linejoin:round;
  stroke-width: 0.60907;
}
.l9{
 fill: #00aaaa; fill-opacity: 0.5;
  stroke: #00aaaa;
  stroke-linecap:round;
  stroke-linejoin:round;
  stroke-width: 0.60907;
}
.l10{
 fill: #880088;
  stroke: #880088;
  stroke-linecap:round;
  stroke-linejoin:round;
  stroke-width: 0.60907;
}
.l11{
 fill: #00ff00; fill-opacity: 0.5;
  stroke: #00ff00;
  stroke-linecap:round;
  stroke-linejoin:round;
  stroke-width: 0.60907;
}
.l12{
 fill: #0000cc; fill-opacity: 0.5;
  stroke: #0000cc;
  stroke-linecap:round;
  stroke-linejoin:round;
  stroke-width: 0.60907;
}
.l13{
 fill: #666600; fill-opacity: 0.5;
  stroke: #666600;
  stroke-linecap:round;
  stroke-linejoin:round;
  stroke-width: 0.60907;
}
.l14{
  fill: none;
  stroke: #557755;
  stroke-linecap:round;
  stroke-linejoin:round;
  stroke-width: 0.60907;
}
.l15{
 fill: #aa2222; fill-opacity: 0.5;
  stroke: #aa2222;
  stroke-linecap:round;
  stroke-linejoin:round;
  stroke-width: 0.60907;
}
.l16{
 fill: #7ccc40; fill-opacity: 0.5;
  stroke: #7ccc40;
  stroke-linecap:round;
  stroke-linejoin:round;
  stroke-width: 0.60907;
}
.l17{
  fill: none;
  stroke: #00ffcc;
  stroke-linecap:round;
  stroke-linejoin:round;
  stroke-width: 0.60907;
}
.l18{
 fill: #ce0097; fill-opacity: 0.5;
  stroke: #ce0097;
  stroke-linecap:round;
  stroke-linejoin:round;
  stroke-width: 0.60907;
}
.l19{
  fill: none;
  stroke: #d2d46b;
  stroke-linecap:round;
  stroke-linejoin:round;
  stroke-width: 0.60907;
}
.l20{
  fill: none;
  stroke: #ef6158;
  stroke-linecap:round;
  stroke-linejoin:round;
  stroke-width: 0.60907;
}
.l21{
  fill: none;
  stroke: #fdb200;
  stroke-linecap:round;
  stroke-linejoin:round;
  stroke-width: 0.60907;
}
text {font-family: Sans-Serif;}
</style>
<rect class="l0" x="0" y="0" width="1000" height="700"/>
<text fill="#222222"  xml:space="preserve" font-size="58.6512" transform="translate(246.221, 563.982)" >Divide by 32</text>
<text fill="#0044ee"  xml:space="preserve" font-size="9.67744" transform="translate(180.134, 86.3271)" >AVDD</text>
<text fill="#0044ee"  xml:space="preserve" font-size="9.67744" transform="translate(222.253, 197.182)" >AVSS</text>
<text fill="#0044ee"  xml:space="preserve" font-size="9.67744" transform="translate(2.00483, 396.149)" >PWRUP_1V8</text>
<text fill="#0044ee"  xml:space="preserve" font-size="9.67744" transform="translate(60.9098, 356.672)" >CK</text>
<text fill="#0044ee"  xml:space="preserve" font-size="9.67744" transform="translate(44.0798, 283.358)" >AVDD</text>
<text fill="#0044ee"  xml:space="preserve" font-size="9.67744" transform="translate(44.0798, 429.986)" >AVSS</text>
<text fill="#0044ee"  xml:space="preserve" font-size="9.67744" transform="translate(719.942, 334.114)" >CK_FB</text>
<text fill="#0044ee"  xml:space="preserve" font-size="9.67744" transform="translate(146.208, 159.641)" >CK</text>
<text fill="#0044ee"  xml:space="preserve" font-size="9.67744" transform="translate(146.208, 125.804)" >N6</text>
<text fill="#0044ee"  xml:space="preserve" font-size="9.67744" transform="translate(261.73, 123.868)" >D5</text>
<text fill="#0044ee"  xml:space="preserve" font-size="9.67744" transform="translate(261.73, 157.705)" >N6</text>
<text fill="#0044ee"  xml:space="preserve" font-size="9.67744" transform="translate(205.334, 219.74)" >PWRUP_1V8</text>
<text fill="#0044ee"  xml:space="preserve" font-size="9.67744" transform="translate(360.599, 86.3271)" >AVDD</text>
<text fill="#0044ee"  xml:space="preserve" font-size="9.67744" transform="translate(402.718, 197.182)" >AVSS</text>
<text fill="#0044ee"  xml:space="preserve" font-size="9.67744" transform="translate(326.673, 159.641)" >D5</text>
<text fill="#0044ee"  xml:space="preserve" font-size="9.67744" transform="translate(326.673, 125.804)" >N5</text>
<text fill="#0044ee"  xml:space="preserve" font-size="9.67744" transform="translate(442.195, 123.868)" >D4</text>
<text fill="#0044ee"  xml:space="preserve" font-size="9.67744" transform="translate(442.195, 157.705)" >N5</text>
<text fill="#0044ee"  xml:space="preserve" font-size="9.67744" transform="translate(385.799, 219.74)" >PWRUP_1V8</text>
<text fill="#0044ee"  xml:space="preserve" font-size="9.67744" transform="translate(535.424, 86.3271)" >AVDD</text>
<text fill="#0044ee"  xml:space="preserve" font-size="9.67744" transform="translate(577.544, 197.182)" >AVSS</text>
<text fill="#0044ee"  xml:space="preserve" font-size="9.67744" transform="translate(501.498, 159.641)" >D4</text>
<text fill="#0044ee"  xml:space="preserve" font-size="9.67744" transform="translate(501.498, 125.804)" >N4</text>
<text fill="#0044ee"  xml:space="preserve" font-size="9.67744" transform="translate(617.02, 123.868)" >D3</text>
<text fill="#0044ee"  xml:space="preserve" font-size="9.67744" transform="translate(617.02, 157.705)" >N4</text>
<text fill="#0044ee"  xml:space="preserve" font-size="9.67744" transform="translate(560.625, 219.74)" >PWRUP_1V8</text>
<text fill="#0044ee"  xml:space="preserve" font-size="9.67744" transform="translate(710.25, 86.3271)" >AVDD</text>
<text fill="#0044ee"  xml:space="preserve" font-size="9.67744" transform="translate(752.369, 197.182)" >AVSS</text>
<text fill="#0044ee"  xml:space="preserve" font-size="9.67744" transform="translate(676.324, 159.641)" >D3</text>
<text fill="#0044ee"  xml:space="preserve" font-size="9.67744" transform="translate(676.324, 125.804)" >N3</text>
<text fill="#0044ee"  xml:space="preserve" font-size="9.67744" transform="translate(791.846, 123.868)" >D2</text>
<text fill="#0044ee"  xml:space="preserve" font-size="9.67744" transform="translate(791.846, 157.705)" >N3</text>
<text fill="#0044ee"  xml:space="preserve" font-size="9.67744" transform="translate(735.451, 219.74)" >PWRUP_1V8</text>
<text fill="#0044ee"  xml:space="preserve" font-size="9.67744" transform="translate(174.494, 289.35)" >AVDD</text>
<text fill="#0044ee"  xml:space="preserve" font-size="9.67744" transform="translate(216.613, 400.205)" >AVSS</text>
<text fill="#0044ee"  xml:space="preserve" font-size="9.67744" transform="translate(140.568, 362.664)" >D2</text>
<text fill="#0044ee"  xml:space="preserve" font-size="9.67744" transform="translate(140.568, 328.827)" >N2</text>
<text fill="#0044ee"  xml:space="preserve" font-size="9.67744" transform="translate(256.09, 360.729)" >N2</text>
<text fill="#0044ee"  xml:space="preserve" font-size="9.67744" transform="translate(199.695, 422.763)" >PWRUP_1V8</text>
<text fill="#0044ee"  xml:space="preserve" font-size="9.67744" transform="translate(256.09, 326.891)" >CK_FB</text>
<text fill="#222222"  xml:space="preserve" font-size="7.3314" transform="translate(827.093, 614.863)" >Updated</text>
<text fill="#222222"  xml:space="preserve" font-size="7.3314" transform="translate(29.0988, 648.7)" >Library/Cell</text>
<text fill="#222222"  xml:space="preserve" font-size="7.3314" transform="translate(827.093, 603.584)" >Designer</text>
<text fill="#222222"  xml:space="preserve" font-size="7.3314" transform="translate(827.093, 626.142)" >Modified</text>
<text fill="#222222"  xml:space="preserve" font-size="7.3314" transform="translate(829.913, 637.421)" >Copyright</text>
<text fill="#222222"  xml:space="preserve" font-size="7.3314" transform="translate(872.209, 614.863)" >wulff</text>
<text fill="#222222"  xml:space="preserve" font-size="7.3314" transform="translate(872.209, 626.142)" >2023-01-22  22:00:43</text>
<text fill="#222222"  xml:space="preserve" font-size="7.3314" transform="translate(872.209, 637.421)" >Carsten Wulff Software</text>
<text fill="#222222"  xml:space="preserve" font-size="7.3314" transform="translate(93.9535, 648.7)" >SUN_PLL_DIVN</text>
<text fill="#222222"  xml:space="preserve" font-size="7.3314" transform="translate(872.209, 603.584)" >Carsten Wulff</text>
<text fill="#222222"  xml:space="preserve" font-size="4.39884" transform="translate(225.031, 189.91) rotate(270)" >AVSS</text>
<text fill="#222222"  xml:space="preserve" font-size="4.39884" transform="translate(225.238, 102.424) rotate(270)" >AVDD</text>
<text fill="#222222"  xml:space="preserve" font-size="4.39884" transform="translate(218.269, 156.804)" >QN</text>
<text fill="#222222"  xml:space="preserve" font-size="4.39884" transform="translate(222.094, 122.967)" >Q</text>
<text fill="#222222"  xml:space="preserve" font-size="4.39884" transform="translate(208.112, 176.621) rotate(270)" >RN</text>
<text fill="#222222"  xml:space="preserve" font-size="4.39884" transform="translate(198.849, 157.011)" >CK</text>
<text fill="#222222"  xml:space="preserve" font-size="4.39884" transform="translate(198.849, 123.174)" >D</text>
<text fill="#222222"  xml:space="preserve" font-size="7.3314" transform="translate(229.302, 174.415)" >SUNTR_DFRNQNX1_CV</text>
<text fill="#222222"  xml:space="preserve" font-size="7.3314" transform="translate(229.302, 163.136)" >xg</text>
<text fill="#222222"  xml:space="preserve" font-size="4.39884" transform="translate(405.496, 189.91) rotate(270)" >AVSS</text>
<text fill="#222222"  xml:space="preserve" font-size="4.39884" transform="translate(405.703, 102.424) rotate(270)" >AVDD</text>
<text fill="#222222"  xml:space="preserve" font-size="4.39884" transform="translate(398.734, 156.804)" >QN</text>
<text fill="#222222"  xml:space="preserve" font-size="4.39884" transform="translate(402.559, 122.967)" >Q</text>
<text fill="#222222"  xml:space="preserve" font-size="4.39884" transform="translate(388.577, 176.621) rotate(270)" >RN</text>
<text fill="#222222"  xml:space="preserve" font-size="4.39884" transform="translate(379.314, 157.011)" >CK</text>
<text fill="#222222"  xml:space="preserve" font-size="4.39884" transform="translate(379.314, 123.174)" >D</text>
<text fill="#222222"  xml:space="preserve" font-size="7.3314" transform="translate(409.767, 174.415)" >SUNTR_DFRNQNX1_CV</text>
<text fill="#222222"  xml:space="preserve" font-size="7.3314" transform="translate(409.767, 163.136)" >xf</text>
<text fill="#222222"  xml:space="preserve" font-size="4.39884" transform="translate(580.322, 189.91) rotate(270)" >AVSS</text>
<text fill="#222222"  xml:space="preserve" font-size="4.39884" transform="translate(580.528, 102.424) rotate(270)" >AVDD</text>
<text fill="#222222"  xml:space="preserve" font-size="4.39884" transform="translate(573.559, 156.804)" >QN</text>
<text fill="#222222"  xml:space="preserve" font-size="4.39884" transform="translate(577.384, 122.967)" >Q</text>
<text fill="#222222"  xml:space="preserve" font-size="4.39884" transform="translate(563.403, 176.621) rotate(270)" >RN</text>
<text fill="#222222"  xml:space="preserve" font-size="4.39884" transform="translate(554.14, 157.011)" >CK</text>
<text fill="#222222"  xml:space="preserve" font-size="4.39884" transform="translate(554.14, 123.174)" >D</text>
<text fill="#222222"  xml:space="preserve" font-size="7.3314" transform="translate(584.593, 174.415)" >SUNTR_DFRNQNX1_CV</text>
<text fill="#222222"  xml:space="preserve" font-size="7.3314" transform="translate(584.593, 163.136)" >xe</text>
<text fill="#222222"  xml:space="preserve" font-size="4.39884" transform="translate(755.147, 189.91) rotate(270)" >AVSS</text>
<text fill="#222222"  xml:space="preserve" font-size="4.39884" transform="translate(755.354, 102.424) rotate(270)" >AVDD</text>
<text fill="#222222"  xml:space="preserve" font-size="4.39884" transform="translate(748.385, 156.804)" >QN</text>
<text fill="#222222"  xml:space="preserve" font-size="4.39884" transform="translate(752.21, 122.967)" >Q</text>
<text fill="#222222"  xml:space="preserve" font-size="4.39884" transform="translate(738.229, 176.621) rotate(270)" >RN</text>
<text fill="#222222"  xml:space="preserve" font-size="4.39884" transform="translate(728.965, 157.011)" >CK</text>
<text fill="#222222"  xml:space="preserve" font-size="4.39884" transform="translate(728.965, 123.174)" >D</text>
<text fill="#222222"  xml:space="preserve" font-size="7.3314" transform="translate(759.419, 174.415)" >SUNTR_DFRNQNX1_CV</text>
<text fill="#222222"  xml:space="preserve" font-size="7.3314" transform="translate(759.419, 163.136)" >xd</text>
<text fill="#222222"  xml:space="preserve" font-size="4.39884" transform="translate(219.391, 392.934) rotate(270)" >AVSS</text>
<text fill="#222222"  xml:space="preserve" font-size="4.39884" transform="translate(219.598, 305.448) rotate(270)" >AVDD</text>
<text fill="#222222"  xml:space="preserve" font-size="4.39884" transform="translate(212.629, 359.827)" >QN</text>
<text fill="#222222"  xml:space="preserve" font-size="4.39884" transform="translate(216.454, 325.99)" >Q</text>
<text fill="#222222"  xml:space="preserve" font-size="4.39884" transform="translate(202.473, 379.644) rotate(270)" >RN</text>
<text fill="#222222"  xml:space="preserve" font-size="4.39884" transform="translate(193.209, 360.034)" >CK</text>
<text fill="#222222"  xml:space="preserve" font-size="4.39884" transform="translate(193.209, 326.197)" >D</text>
<text fill="#222222"  xml:space="preserve" font-size="7.3314" transform="translate(223.663, 377.439)" >SUNTR_DFRNQNX1_CV</text>
<text fill="#222222"  xml:space="preserve" font-size="7.3314" transform="translate(223.663, 366.16)" >xc</text>
<path class="l4" d="M866.57 606.599L866.57 617.878"/>
<path class="l4" d="M793.256 640.436L793.256 651.715"/>
<path class="l4" d="M906.047 640.436L906.047 651.715"/>
<path class="l4" d="M680.465 640.436L680.465 651.715"/>
<path class="l4" d="M91.1337 640.436L91.1337 651.715"/>
<path class="l4" d="M15 640.436L26.2791 640.436"/>
<path class="l4" d="M26.2791 640.436L26.2791 651.715"/>
<path class="l4" d="M973.721 640.436L985 640.436"/>
<path class="l4" d="M973.721 640.436L973.721 651.715"/>
<path class="l4" d="M866.57 595.32L866.57 606.599"/>
<path class="l4" d="M866.57 617.878L866.57 629.157"/>
<path class="l4" style="fill:none;" d="M824.273 640.436L985 640.436L985 595.32L824.273 595.32L824.273 640.436"/>
<path class="l4" style="fill:none;" d="M15 651.715L985 651.715L985 48.2849L15 48.2849L15 651.715"/>
<path class="l4" style="fill:none;" d="M824.273 606.599L973.721 606.599L973.721 595.32L824.273 595.32L824.273 606.599"/>
<path class="l4" style="fill:none;" d="M15 651.715L985 651.715L985 640.436L15 640.436L15 651.715"/>
<path class="l4" style="fill:none;" d="M824.273 640.436L973.721 640.436L973.721 629.157L824.273 629.157L824.273 640.436"/>
<path class="l4" style="fill:none;" d="M824.273 629.157L973.721 629.157L973.721 617.878L824.273 617.878L824.273 629.157"/>
<path class="l4" style="fill:none;" d="M824.273 617.878L973.721 617.878L973.721 606.599L824.273 606.599L824.273 617.878"/>
<path class="l4" d="M218.023 161.076L218.023 172.355"/>
<path class="l4" d="M201.105 161.076L201.105 172.355"/>
<path class="l4" d="M218.023 104.68L218.023 115.959"/>
<path class="l4" d="M229.302 155.436L240.581 155.436"/>
<path class="l4" d="M229.302 121.599L240.581 121.599"/>
<path class="l4" d="M184.186 155.436L195.465 155.436"/>
<path class="l4" d="M184.186 121.599L195.465 121.599"/>
<path class="l4" style="fill:none;" d="M195.465 161.076L229.302 161.076L229.302 115.959L195.465 115.959L195.465 161.076"/>
<path class="l4" d="M398.488 161.076L398.488 172.355"/>
<path class="l4" d="M381.57 161.076L381.57 172.355"/>
<path class="l4" d="M398.488 104.68L398.488 115.959"/>
<path class="l4" d="M409.767 155.436L421.047 155.436"/>
<path class="l4" d="M409.767 121.599L421.047 121.599"/>
<path class="l4" d="M364.651 155.436L375.93 155.436"/>
<path class="l4" d="M364.651 121.599L375.93 121.599"/>
<path class="l4" style="fill:none;" d="M375.93 161.076L409.767 161.076L409.767 115.959L375.93 115.959L375.93 161.076"/>
<path class="l4" d="M573.314 161.076L573.314 172.355"/>
<path class="l4" d="M556.395 161.076L556.395 172.355"/>
<path class="l4" d="M573.314 104.68L573.314 115.959"/>
<path class="l4" d="M584.593 155.436L595.872 155.436"/>
<path class="l4" d="M584.593 121.599L595.872 121.599"/>
<path class="l4" d="M539.477 155.436L550.756 155.436"/>
<path class="l4" d="M539.477 121.599L550.756 121.599"/>
<path class="l4" style="fill:none;" d="M550.756 161.076L584.593 161.076L584.593 115.959L550.756 115.959L550.756 161.076"/>
<path class="l4" d="M748.14 161.076L748.14 172.355"/>
<path class="l4" d="M731.221 161.076L731.221 172.355"/>
<path class="l4" d="M748.14 104.68L748.14 115.959"/>
<path class="l4" d="M759.419 155.436L770.698 155.436"/>
<path class="l4" d="M759.419 121.599L770.698 121.599"/>
<path class="l4" d="M714.302 155.436L725.581 155.436"/>
<path class="l4" d="M714.302 121.599L725.581 121.599"/>
<path class="l4" style="fill:none;" d="M725.581 161.076L759.419 161.076L759.419 115.959L725.581 115.959L725.581 161.076"/>
<path class="l4" d="M212.384 364.099L212.384 375.378"/>
<path class="l4" d="M195.465 364.099L195.465 375.378"/>
<path class="l4" d="M212.384 307.703L212.384 318.983"/>
<path class="l4" d="M223.663 358.459L234.942 358.459"/>
<path class="l4" d="M223.663 324.622L234.942 324.622"/>
<path class="l4" d="M178.547 358.459L189.826 358.459"/>
<path class="l4" d="M178.547 324.622L189.826 324.622"/>
<path class="l4" style="fill:none;" d="M189.826 364.099L223.663 364.099L223.663 318.983L189.826 318.983L189.826 364.099"/>
<path class="l5" d="M217.318 81.4172L218.728 81.4172L218.728 82.827L217.318 82.827L217.318 81.4172z"/>
<path class="l5" d="M217.318 194.208L218.728 194.208L218.728 195.618L217.318 195.618L217.318 194.208z"/>
<path class="l5" d="M85.4942 392.297L88.314 392.297"/>
<path class="l5" d="M85.4942 392.297L83.3794 389.477L78.4448 389.477L80.5596 392.297L78.4448 395.116L83.3794 395.116L85.4942 392.297"/>
<path class="l5" d="M87.609 391.592L89.0189 391.592L89.0189 393.001L87.609 393.001L87.609 391.592z"/>
<path class="l5" d="M85.4942 352.82L88.314 352.82"/>
<path class="l5" d="M85.4942 352.82L83.3794 350L78.4448 350L80.5596 352.82L78.4448 355.64L83.3794 355.64L85.4942 352.82"/>
<path class="l5" d="M87.609 352.115L89.0189 352.115L89.0189 353.525L87.609 353.525L87.609 352.115z"/>
<path class="l5" d="M85.4942 279.506L88.314 279.506"/>
<path class="l5" d="M85.4942 279.506L83.3794 276.686L78.4448 276.686L80.5596 279.506L78.4448 282.326L83.3794 282.326L85.4942 279.506"/>
<path class="l5" d="M87.609 278.801L89.0189 278.801L89.0189 280.211L87.609 280.211L87.609 278.801z"/>
<path class="l5" d="M85.4942 426.134L88.314 426.134"/>
<path class="l5" d="M85.4942 426.134L83.3794 423.314L78.4448 423.314L80.5596 426.134L78.4448 428.953L83.3794 428.953L85.4942 426.134"/>
<path class="l5" d="M87.609 425.429L89.0189 425.429L89.0189 426.839L87.609 426.839L87.609 425.429z"/>
<path class="l5" d="M708.663 330.262L713.597 330.262"/>
<path class="l5" d="M718.532 330.262L716.417 327.442L711.483 327.442L713.597 330.262L711.483 333.081L716.417 333.081L718.532 330.262"/>
<path class="l5" d="M707.958 329.557L709.368 329.557L709.368 330.967L707.958 330.967L707.958 329.557z"/>
<path class="l5" d="M166.562 154.731L167.972 154.731L167.972 156.141L166.562 156.141L166.562 154.731z"/>
<path class="l5" d="M166.562 120.894L167.972 120.894L167.972 122.304L166.562 122.304L166.562 120.894z"/>
<path class="l5" d="M256.795 120.894L258.205 120.894L258.205 122.304L256.795 122.304L256.795 120.894z"/>
<path class="l5" d="M256.795 154.731L258.205 154.731L258.205 156.141L256.795 156.141L256.795 154.731z"/>
<path class="l5" d="M181.93 119.343L186.442 119.343L186.442 123.855L181.93 123.855L181.93 119.343z"/>
<path class="l5" d="M181.93 153.18L186.442 153.18L186.442 157.692L181.93 157.692L181.93 153.18z"/>
<path class="l5" d="M198.849 170.099L203.36 170.099L203.36 174.61L198.849 174.61L198.849 170.099z"/>
<path class="l5" d="M238.326 119.343L242.837 119.343L242.837 123.855L238.326 123.855L238.326 119.343z"/>
<path class="l5" d="M238.326 153.18L242.837 153.18L242.837 157.692L238.326 157.692L238.326 153.18z"/>
<path class="l5" d="M215.767 102.424L220.279 102.424L220.279 106.936L215.767 106.936L215.767 102.424z"/>
<path class="l5" d="M215.767 170.099L220.279 170.099L220.279 174.61L215.767 174.61L215.767 170.099z"/>
<path class="l5" d="M200.4 216.766L201.81 216.766L201.81 218.176L200.4 218.176L200.4 216.766z"/>
<path class="l5" d="M397.783 81.4172L399.193 81.4172L399.193 82.827L397.783 82.827L397.783 81.4172z"/>
<path class="l5" d="M397.783 194.208L399.193 194.208L399.193 195.618L397.783 195.618L397.783 194.208z"/>
<path class="l5" d="M347.028 154.731L348.438 154.731L348.438 156.141L347.028 156.141L347.028 154.731z"/>
<path class="l5" d="M347.028 120.894L348.438 120.894L348.438 122.304L347.028 122.304L347.028 120.894z"/>
<path class="l5" d="M437.26 120.894L438.67 120.894L438.67 122.304L437.26 122.304L437.26 120.894z"/>
<path class="l5" d="M437.26 154.731L438.67 154.731L438.67 156.141L437.26 156.141L437.26 154.731z"/>
<path class="l5" d="M362.395 119.343L366.907 119.343L366.907 123.855L362.395 123.855L362.395 119.343z"/>
<path class="l5" d="M362.395 153.18L366.907 153.18L366.907 157.692L362.395 157.692L362.395 153.18z"/>
<path class="l5" d="M379.314 170.099L383.826 170.099L383.826 174.61L379.314 174.61L379.314 170.099z"/>
<path class="l5" d="M418.791 119.343L423.302 119.343L423.302 123.855L418.791 123.855L418.791 119.343z"/>
<path class="l5" d="M418.791 153.18L423.302 153.18L423.302 157.692L418.791 157.692L418.791 153.18z"/>
<path class="l5" d="M396.233 102.424L400.744 102.424L400.744 106.936L396.233 106.936L396.233 102.424z"/>
<path class="l5" d="M396.233 170.099L400.744 170.099L400.744 174.61L396.233 174.61L396.233 170.099z"/>
<path class="l5" d="M380.865 216.766L382.275 216.766L382.275 218.176L380.865 218.176L380.865 216.766z"/>
<path class="l5" d="M572.609 81.4172L574.019 81.4172L574.019 82.827L572.609 82.827L572.609 81.4172z"/>
<path class="l5" d="M572.609 194.208L574.019 194.208L574.019 195.618L572.609 195.618L572.609 194.208z"/>
<path class="l5" d="M521.853 154.731L523.263 154.731L523.263 156.141L521.853 156.141L521.853 154.731z"/>
<path class="l5" d="M521.853 120.894L523.263 120.894L523.263 122.304L521.853 122.304L521.853 120.894z"/>
<path class="l5" d="M612.086 120.894L613.496 120.894L613.496 122.304L612.086 122.304L612.086 120.894z"/>
<path class="l5" d="M612.086 154.731L613.496 154.731L613.496 156.141L612.086 156.141L612.086 154.731z"/>
<path class="l5" d="M537.221 119.343L541.733 119.343L541.733 123.855L537.221 123.855L537.221 119.343z"/>
<path class="l5" d="M537.221 153.18L541.733 153.18L541.733 157.692L537.221 157.692L537.221 153.18z"/>
<path class="l5" d="M554.14 170.099L558.651 170.099L558.651 174.61L554.14 174.61L554.14 170.099z"/>
<path class="l5" d="M593.616 119.343L598.128 119.343L598.128 123.855L593.616 123.855L593.616 119.343z"/>
<path class="l5" d="M593.616 153.18L598.128 153.18L598.128 157.692L593.616 157.692L593.616 153.18z"/>
<path class="l5" d="M571.058 102.424L575.57 102.424L575.57 106.936L571.058 106.936L571.058 102.424z"/>
<path class="l5" d="M571.058 170.099L575.57 170.099L575.57 174.61L571.058 174.61L571.058 170.099z"/>
<path class="l5" d="M555.69 216.766L557.1 216.766L557.1 218.176L555.69 218.176L555.69 216.766z"/>
<path class="l5" d="M747.435 81.4172L748.844 81.4172L748.844 82.827L747.435 82.827L747.435 81.4172z"/>
<path class="l5" d="M747.435 194.208L748.844 194.208L748.844 195.618L747.435 195.618L747.435 194.208z"/>
<path class="l5" d="M696.679 154.731L698.089 154.731L698.089 156.141L696.679 156.141L696.679 154.731z"/>
<path class="l5" d="M696.679 120.894L698.089 120.894L698.089 122.304L696.679 122.304L696.679 120.894z"/>
<path class="l5" d="M786.911 120.894L788.321 120.894L788.321 122.304L786.911 122.304L786.911 120.894z"/>
<path class="l5" d="M786.911 154.731L788.321 154.731L788.321 156.141L786.911 156.141L786.911 154.731z"/>
<path class="l5" d="M712.047 119.343L716.558 119.343L716.558 123.855L712.047 123.855L712.047 119.343z"/>
<path class="l5" d="M712.047 153.18L716.558 153.18L716.558 157.692L712.047 157.692L712.047 153.18z"/>
<path class="l5" d="M728.965 170.099L733.477 170.099L733.477 174.61L728.965 174.61L728.965 170.099z"/>
<path class="l5" d="M768.442 119.343L772.953 119.343L772.953 123.855L768.442 123.855L768.442 119.343z"/>
<path class="l5" d="M768.442 153.18L772.953 153.18L772.953 157.692L768.442 157.692L768.442 153.18z"/>
<path class="l5" d="M745.884 102.424L750.395 102.424L750.395 106.936L745.884 106.936L745.884 102.424z"/>
<path class="l5" d="M745.884 170.099L750.395 170.099L750.395 174.61L745.884 174.61L745.884 170.099z"/>
<path class="l5" d="M730.516 216.766L731.926 216.766L731.926 218.176L730.516 218.176L730.516 216.766z"/>
<path class="l5" d="M211.679 284.44L213.089 284.44L213.089 285.85L211.679 285.85L211.679 284.44z"/>
<path class="l5" d="M211.679 397.231L213.089 397.231L213.089 398.641L211.679 398.641L211.679 397.231z"/>
<path class="l5" d="M160.923 357.754L162.333 357.754L162.333 359.164L160.923 359.164L160.923 357.754z"/>
<path class="l5" d="M160.923 323.917L162.333 323.917L162.333 325.327L160.923 325.327L160.923 323.917z"/>
<path class="l5" d="M251.156 357.754L252.565 357.754L252.565 359.164L251.156 359.164L251.156 357.754z"/>
<path class="l5" d="M176.291 322.366L180.802 322.366L180.802 326.878L176.291 326.878L176.291 322.366z"/>
<path class="l5" d="M176.291 356.203L180.802 356.203L180.802 360.715L176.291 360.715L176.291 356.203z"/>
<path class="l5" d="M193.209 373.122L197.721 373.122L197.721 377.634L193.209 377.634L193.209 373.122z"/>
<path class="l5" d="M232.686 322.366L237.198 322.366L237.198 326.878L232.686 326.878L232.686 322.366z"/>
<path class="l5" d="M232.686 356.203L237.198 356.203L237.198 360.715L232.686 360.715L232.686 356.203z"/>
<path class="l5" d="M210.128 305.448L214.64 305.448L214.64 309.959L210.128 309.959L210.128 305.448z"/>
<path class="l5" d="M210.128 373.122L214.64 373.122L214.64 377.634L210.128 377.634L210.128 373.122z"/>
<path class="l5" d="M194.76 419.789L196.17 419.789L196.17 421.199L194.76 421.199L194.76 419.789z"/>
<path class="l5" d="M251.156 323.917L252.565 323.917L252.565 325.327L251.156 325.327L251.156 323.917z"/>
<path class="l1" d="M218.023 82.1221L218.023 104.68"/>
<path class="l1" d="M218.023 172.355L218.023 194.913"/>
<path class="l1" d="M201.105 172.355L201.105 194.913"/>
<path class="l1" d="M167.267 121.599L184.186 121.599"/>
<path class="l1" d="M167.267 155.436L184.186 155.436"/>
<path class="l1" d="M240.581 121.599L257.5 121.599"/>
<path class="l1" d="M240.581 155.436L257.5 155.436"/>
<path class="l1" d="M201.105 194.913L201.105 217.471"/>
<path class="l1" d="M398.488 82.1221L398.488 104.68"/>
<path class="l1" d="M398.488 172.355L398.488 194.913"/>
<path class="l1" d="M381.57 172.355L381.57 194.913"/>
<path class="l1" d="M347.733 121.599L364.651 121.599"/>
<path class="l1" d="M347.733 155.436L364.651 155.436"/>
<path class="l1" d="M421.047 121.599L437.965 121.599"/>
<path class="l1" d="M421.047 155.436L437.965 155.436"/>
<path class="l1" d="M381.57 194.913L381.57 217.471"/>
<path class="l1" d="M573.314 82.1221L573.314 104.68"/>
<path class="l1" d="M573.314 172.355L573.314 194.913"/>
<path class="l1" d="M556.395 172.355L556.395 194.913"/>
<path class="l1" d="M522.558 121.599L539.477 121.599"/>
<path class="l1" d="M522.558 155.436L539.477 155.436"/>
<path class="l1" d="M595.872 121.599L612.791 121.599"/>
<path class="l1" d="M595.872 155.436L612.791 155.436"/>
<path class="l1" d="M556.395 194.913L556.395 217.471"/>
<path class="l1" d="M748.14 82.1221L748.14 104.68"/>
<path class="l1" d="M748.14 172.355L748.14 194.913"/>
<path class="l1" d="M731.221 172.355L731.221 194.913"/>
<path class="l1" d="M697.384 121.599L714.302 121.599"/>
<path class="l1" d="M697.384 155.436L714.302 155.436"/>
<path class="l1" d="M770.698 121.599L787.616 121.599"/>
<path class="l1" d="M770.698 155.436L787.616 155.436"/>
<path class="l1" d="M731.221 194.913L731.221 217.471"/>
<path class="l1" d="M212.384 285.145L212.384 307.703"/>
<path class="l1" d="M212.384 375.378L212.384 397.936"/>
<path class="l1" d="M195.465 375.378L195.465 397.936"/>
<path class="l1" d="M161.628 324.622L178.547 324.622"/>
<path class="l1" d="M161.628 358.459L178.547 358.459"/>
<path class="l1" d="M234.942 358.459L251.86 358.459"/>
<path class="l1" d="M195.465 397.936L195.465 420.494"/>
<path class="l1" d="M234.942 324.622L251.86 324.622"/>
<path class="l1" d="M234.942 324.622L251.86 324.622"/>
</svg>
