<svg xmlns="http://www.w3.org/2000/svg" xmlns:xlink="http://www.w3.org/1999/xlink" width="1000" height="700" version="1.1">
<style type="text/css">
.l0{
 fill: #ffffff;
  stroke: #ffffff;
  stroke-linecap:round;
  stroke-linejoin:round;
  stroke-width: 0.60907;
}
.l1{
 fill: #0044ee;
  stroke: #0044ee;
  stroke-linecap:round;
  stroke-linejoin:round;
  stroke-width: 0.60907;
}
.l2{
  fill: none;
  stroke: #aaaaaa;
  stroke-linecap:round;
  stroke-linejoin:round;
  stroke-width: 0.60907;
}
.l3{
 fill: #222222; fill-opacity: 0.5;
  stroke: #222222;
  stroke-linecap:round;
  stroke-linejoin:round;
  stroke-width: 0.60907;
}
.l4{
 fill: #229900;
  stroke: #229900;
  stroke-linecap:round;
  stroke-linejoin:round;
  stroke-width: 0.60907;
}
.l5{
 fill: #bb2200;
  stroke: #bb2200;
  stroke-linecap:round;
  stroke-linejoin:round;
  stroke-width: 0.60907;
}
.l6{
 fill: #00ccee; fill-opacity: 0.5;
  stroke: #00ccee;
  stroke-linecap:round;
  stroke-linejoin:round;
  stroke-width: 0.60907;
}
.l7{
 fill: #ff0000; fill-opacity: 0.5;
  stroke: #ff0000;
  stroke-linecap:round;
  stroke-linejoin:round;
  stroke-width: 0.60907;
}
.l8{
 fill: #888800; fill-opacity: 0.5;
  stroke: #888800;
  stroke-linecap:round;
  stroke-linejoin:round;
  stroke-width: 0.60907;
}
.l9{
 fill: #00aaaa; fill-opacity: 0.5;
  stroke: #00aaaa;
  stroke-linecap:round;
  stroke-linejoin:round;
  stroke-width: 0.60907;
}
.l10{
 fill: #880088;
  stroke: #880088;
  stroke-linecap:round;
  stroke-linejoin:round;
  stroke-width: 0.60907;
}
.l11{
 fill: #00ff00; fill-opacity: 0.5;
  stroke: #00ff00;
  stroke-linecap:round;
  stroke-linejoin:round;
  stroke-width: 0.60907;
}
.l12{
 fill: #0000cc; fill-opacity: 0.5;
  stroke: #0000cc;
  stroke-linecap:round;
  stroke-linejoin:round;
  stroke-width: 0.60907;
}
.l13{
 fill: #666600; fill-opacity: 0.5;
  stroke: #666600;
  stroke-linecap:round;
  stroke-linejoin:round;
  stroke-width: 0.60907;
}
.l14{
  fill: none;
  stroke: #557755;
  stroke-linecap:round;
  stroke-linejoin:round;
  stroke-width: 0.60907;
}
.l15{
 fill: #aa2222; fill-opacity: 0.5;
  stroke: #aa2222;
  stroke-linecap:round;
  stroke-linejoin:round;
  stroke-width: 0.60907;
}
.l16{
 fill: #7ccc40; fill-opacity: 0.5;
  stroke: #7ccc40;
  stroke-linecap:round;
  stroke-linejoin:round;
  stroke-width: 0.60907;
}
.l17{
  fill: none;
  stroke: #00ffcc;
  stroke-linecap:round;
  stroke-linejoin:round;
  stroke-width: 0.60907;
}
.l18{
 fill: #ce0097; fill-opacity: 0.5;
  stroke: #ce0097;
  stroke-linecap:round;
  stroke-linejoin:round;
  stroke-width: 0.60907;
}
.l19{
  fill: none;
  stroke: #d2d46b;
  stroke-linecap:round;
  stroke-linejoin:round;
  stroke-width: 0.60907;
}
.l20{
  fill: none;
  stroke: #ef6158;
  stroke-linecap:round;
  stroke-linejoin:round;
  stroke-width: 0.60907;
}
.l21{
  fill: none;
  stroke: #fdb200;
  stroke-linecap:round;
  stroke-linejoin:round;
  stroke-width: 0.60907;
}
text {font-family: Sans-Serif;}
</style>
<rect class="l0" x="0" y="0" width="1000" height="700"/>
<text fill="#222222"  xml:space="preserve" font-size="29.3256" transform="translate(229.302, 108.75)" >CK_REF x 32 MHz PLL (max 512 MHz)</text>
<text fill="#0044ee"  xml:space="preserve" font-size="9.67744" transform="translate(44.0798, 159.289)" >AVDD</text>
<text fill="#0044ee"  xml:space="preserve" font-size="9.67744" transform="translate(55.3589, 616.091)" >AVSS</text>
<text fill="#0044ee"  xml:space="preserve" font-size="9.67744" transform="translate(18.9234, 576.614)" >PWRUP_1V8</text>
<text fill="#0044ee"  xml:space="preserve" font-size="9.67744" transform="translate(32.8894, 345.393)" >CK_REF</text>
<text fill="#0044ee"  xml:space="preserve" font-size="9.67744" transform="translate(939.884, 356.672)" >CK</text>
<text fill="#0044ee"  xml:space="preserve" font-size="9.67744" transform="translate(287.967, 337.311) rotate(270)" >CP_UP_N</text>
<text fill="#0044ee"  xml:space="preserve" font-size="9.67744" transform="translate(289.903, 415.954) rotate(270)" >CP_DOWN</text>
<text fill="#0044ee"  xml:space="preserve" font-size="9.67744" transform="translate(660.176, 337.311) rotate(270)" >VDD_ROSC</text>
<text fill="#0044ee"  xml:space="preserve" font-size="9.67744" transform="translate(21.6989, 458.184)" >IBPSR_1U</text>
<text fill="#0044ee"  xml:space="preserve" font-size="9.67744" transform="translate(451.513, 348.59) rotate(270)" >VLPF</text>
<text fill="#0044ee"  xml:space="preserve" font-size="9.67744" transform="translate(626.339, 472.66) rotate(270)" >CK_FB</text>
<text fill="#0044ee"  xml:space="preserve" font-size="9.67744" transform="translate(442.17, 416.043) rotate(270)" >VLPFZ</text>
<text fill="#0044ee"  xml:space="preserve" font-size="9.67744" transform="translate(363.241, 422.763)" >KICK</text>
<text fill="#0044ee"  xml:space="preserve" font-size="9.67744" transform="translate(312.461, 635.719) rotate(270)" >PWRUP_1V8_N</text>
<text fill="#222222"  xml:space="preserve" font-size="7.3314" transform="translate(827.093, 614.863)" >Updated</text>
<text fill="#222222"  xml:space="preserve" font-size="7.3314" transform="translate(29.0988, 648.7)" >Library/Cell</text>
<text fill="#222222"  xml:space="preserve" font-size="7.3314" transform="translate(827.093, 603.584)" >Designer</text>
<text fill="#222222"  xml:space="preserve" font-size="7.3314" transform="translate(827.093, 626.142)" >Modified</text>
<text fill="#222222"  xml:space="preserve" font-size="7.3314" transform="translate(829.913, 637.421)" >Copyright</text>
<text fill="#222222"  xml:space="preserve" font-size="7.3314" transform="translate(872.209, 614.863)" >wulff</text>
<text fill="#222222"  xml:space="preserve" font-size="7.3314" transform="translate(872.209, 626.142)" >2024-10-04  14:54:41</text>
<text fill="#222222"  xml:space="preserve" font-size="7.3314" transform="translate(872.209, 637.421)" >Carsten Wulff Software</text>
<text fill="#222222"  xml:space="preserve" font-size="7.3314" transform="translate(93.9535, 648.7)" >SUN_PLL</text>
<text fill="#222222"  xml:space="preserve" font-size="7.3314" transform="translate(872.209, 603.584)" >Carsten Wulff</text>
<text fill="#222222"  xml:space="preserve" font-size="8.79767" transform="translate(730.093, 402.541)" >SUN_PLL_ROSC</text>
<text fill="#222222"  xml:space="preserve" font-size="5.86512" transform="translate(759.419, 300.622)" >xa5</text>
<text fill="#222222"  xml:space="preserve" font-size="5.86512" transform="translate(709.517, 325.284) rotate(270)" >AVDD</text>
<text fill="#222222"  xml:space="preserve" font-size="5.86512" transform="translate(774.597, 355.889)" >CK</text>
<text fill="#222222"  xml:space="preserve" font-size="5.86512" transform="translate(700.203, 344.61)" >VDD_ROSC</text>
<text fill="#222222"  xml:space="preserve" font-size="5.86512" transform="translate(728.651, 389.477) rotate(270)" >PWRUP_1V8</text>
<text fill="#222222"  xml:space="preserve" font-size="5.86512" transform="translate(711.733, 389.477) rotate(270)" >AVSS</text>
<text fill="#222222"  xml:space="preserve" font-size="8.79767" transform="translate(713.863, 520.971)" >SUN_PLL_DIVN</text>
<text fill="#222222"  xml:space="preserve" font-size="5.86512" transform="translate(747.478, 435.971)" >xaa6</text>
<text fill="#222222"  xml:space="preserve" font-size="5.86512" transform="translate(824.523, 460.633) rotate(270)" >AVDD</text>
<text fill="#222222"  xml:space="preserve" font-size="5.86512" transform="translate(745.32, 479.959)" >CK_FB</text>
<text fill="#222222"  xml:space="preserve" font-size="5.86512" transform="translate(819.713, 474.32)" >CK</text>
<text fill="#222222"  xml:space="preserve" font-size="5.86512" transform="translate(811.028, 507.907) rotate(270)" >PWRUP_1V8</text>
<text fill="#222222"  xml:space="preserve" font-size="5.86512" transform="translate(822.308, 507.907) rotate(270)" >AVSS</text>
<text fill="#222222"  xml:space="preserve" font-size="11.7302" transform="translate(777.416, 459.343)" >1</text>
<text fill="#222222"  xml:space="preserve" font-size="11.7302" transform="translate(772.856, 481.901)" >32</text>
<text fill="#222222"  xml:space="preserve" font-size="8.79767" transform="translate(330.374, 560.448)" >SUN_PLL_BIAS</text>
<text fill="#222222"  xml:space="preserve" font-size="5.86512" transform="translate(318.873, 503.645)" >xbb1</text>
<text fill="#222222"  xml:space="preserve" font-size="5.86512" transform="translate(401.558, 548.707) rotate(270)" >IBPSR_1U</text>
<text fill="#222222"  xml:space="preserve" font-size="5.86512" transform="translate(327.994, 539.778)" >PWRUP_1V8_N</text>
<text fill="#222222"  xml:space="preserve" font-size="5.86512" transform="translate(433.18, 547.384) rotate(270)" >AVSS</text>
<text fill="#222222"  xml:space="preserve" font-size="29.3256" transform="translate(290.849, 531.715)" >BIAS</text>
<text fill="#222222"  xml:space="preserve" font-size="8.79767" transform="translate(569.084, 396.901)" >SUN_PLL_BUF</text>
<text fill="#222222"  xml:space="preserve" font-size="5.86512" transform="translate(598.692, 317.541)" >xa4</text>
<text fill="#222222"  xml:space="preserve" font-size="5.86512" transform="translate(551.61, 342.202) rotate(270)" >AVDD</text>
<text fill="#222222"  xml:space="preserve" font-size="5.86512" transform="translate(605.95, 359.313)" >VFB</text>
<text fill="#222222"  xml:space="preserve" font-size="5.86512" transform="translate(536.657, 355.889)" >VI</text>
<text fill="#222222"  xml:space="preserve" font-size="5.86512" transform="translate(611.05, 344.61)" >VO</text>
<text fill="#222222"  xml:space="preserve" font-size="5.86512" transform="translate(565.105, 383.837) rotate(270)" >VBN</text>
<text fill="#222222"  xml:space="preserve" font-size="5.86512" transform="translate(548.186, 383.837) rotate(270)" >AVSS</text>
<text fill="#222222"  xml:space="preserve" font-size="8.79767" transform="translate(484.491, 447.657)" >SUN_PLL_LPF</text>
<text fill="#222222"  xml:space="preserve" font-size="5.86512" transform="translate(485.901, 362.657)" >xd0</text>
<text fill="#222222"  xml:space="preserve" font-size="5.86512" transform="translate(463.343, 406.645)" >VLPFZ</text>
<text fill="#222222"  xml:space="preserve" font-size="5.86512" transform="translate(480.512, 434.593) rotate(270)" >AVSS</text>
<text fill="#222222"  xml:space="preserve" font-size="5.86512" transform="translate(478.296, 387.319) rotate(270)" >VLPF</text>
<text fill="#222222"  xml:space="preserve" font-size="8.79767" transform="translate(374.238, 396.901)" >SUN_PLL_CP</text>
<text fill="#222222"  xml:space="preserve" font-size="5.86512" transform="translate(356.192, 300.622)" >xa1</text>
<text fill="#222222"  xml:space="preserve" font-size="5.86512" transform="translate(320.389, 325.284) rotate(270)" >AVDD</text>
<text fill="#222222"  xml:space="preserve" font-size="5.86512" transform="translate(311.076, 344.61)" >CP_UP_N</text>
<text fill="#222222"  xml:space="preserve" font-size="5.86512" transform="translate(363.45, 355.889)" >LPF</text>
<text fill="#222222"  xml:space="preserve" font-size="5.86512" transform="translate(311.076, 355.889)" >CP_DOWN</text>
<text fill="#222222"  xml:space="preserve" font-size="5.86512" transform="translate(333.884, 383.837) rotate(270)" >VBN</text>
<text fill="#222222"  xml:space="preserve" font-size="5.86512" transform="translate(322.605, 383.837) rotate(270)" >AVSS</text>
<text fill="#222222"  xml:space="preserve" font-size="7.3314" transform="translate(325.174, 320)" >Kcp = Ibp/2pi</text>
<text fill="#222222"  xml:space="preserve" font-size="5.86512" transform="translate(358.35, 372.808)" >LPFZ</text>
<text fill="#222222"  xml:space="preserve" font-size="5.86512" transform="translate(350.802, 383.837) rotate(270)" >PWRUP_1V8</text>
<text fill="#222222"  xml:space="preserve" font-size="5.86512" transform="translate(362.081, 383.837) rotate(270)" >KICK</text>
<text fill="#222222"  xml:space="preserve" font-size="8.79767" transform="translate(179.956, 396.901)" >SUN_PLL_PFD</text>
<text fill="#222222"  xml:space="preserve" font-size="5.86512" transform="translate(232.122, 306.262)" >xa0</text>
<text fill="#222222"  xml:space="preserve" font-size="5.86512" transform="translate(173.761, 330.923) rotate(270)" >AVDD</text>
<text fill="#222222"  xml:space="preserve" font-size="5.86512" transform="translate(218.98, 344.61)" >CP_UP_N</text>
<text fill="#222222"  xml:space="preserve" font-size="5.86512" transform="translate(164.448, 344.61)" >CK_REF</text>
<text fill="#222222"  xml:space="preserve" font-size="5.86512" transform="translate(218.98, 355.889)" >CP_DOWN</text>
<text fill="#222222"  xml:space="preserve" font-size="5.86512" transform="translate(164.448, 355.889)" >CK_FB</text>
<text fill="#222222"  xml:space="preserve" font-size="5.86512" transform="translate(175.977, 383.837) rotate(270)" >AVSS</text>
<text fill="#222222"  xml:space="preserve" font-size="8.79767" transform="translate(205.616, 554.808)" >SUN_PLL_KICK</text>
<text fill="#222222"  xml:space="preserve" font-size="5.86512" transform="translate(299.797, 509.285)" >xaa3</text>
<text fill="#222222"  xml:space="preserve" font-size="5.86512" transform="translate(209.564, 519.436)" >AVDD</text>
<text fill="#222222"  xml:space="preserve" font-size="5.86512" transform="translate(273.757, 519.436)" >KICK</text>
<text fill="#222222"  xml:space="preserve" font-size="5.86512" transform="translate(263.557, 530.715)" >KICK_N</text>
<text fill="#222222"  xml:space="preserve" font-size="5.86512" transform="translate(209.564, 530.715)" >PWRUP_1V8</text>
<text fill="#222222"  xml:space="preserve" font-size="5.86512" transform="translate(209.564, 541.994)" >AVSS</text>
<text fill="#222222"  xml:space="preserve" font-size="5.86512" transform="translate(238.057, 541.994)" >PWRUP_1V8_N</text>
<path class="l4" d="M866.57 606.599L866.57 617.878"/>
<path class="l4" d="M793.256 640.436L793.256 651.715"/>
<path class="l4" d="M906.047 640.436L906.047 651.715"/>
<path class="l4" d="M680.465 640.436L680.465 651.715"/>
<path class="l4" d="M91.1337 640.436L91.1337 651.715"/>
<path class="l4" d="M15 640.436L26.2791 640.436"/>
<path class="l4" d="M26.2791 640.436L26.2791 651.715"/>
<path class="l4" d="M973.721 640.436L985 640.436"/>
<path class="l4" d="M973.721 640.436L973.721 651.715"/>
<path class="l4" d="M866.57 595.32L866.57 606.599"/>
<path class="l4" d="M866.57 617.878L866.57 629.157"/>
<path class="l4" style="fill:none;" d="M824.273 640.436L985 640.436L985 595.32L824.273 595.32L824.273 640.436"/>
<path class="l4" style="fill:none;" d="M15 651.715L985 651.715L985 48.2849L15 48.2849L15 651.715"/>
<path class="l4" style="fill:none;" d="M824.273 606.599L973.721 606.599L973.721 595.32L824.273 595.32L824.273 606.599"/>
<path class="l4" style="fill:none;" d="M15 651.715L985 651.715L985 640.436L15 640.436L15 651.715"/>
<path class="l4" style="fill:none;" d="M824.273 640.436L973.721 640.436L973.721 629.157L824.273 629.157L824.273 640.436"/>
<path class="l4" style="fill:none;" d="M824.273 629.157L973.721 629.157L973.721 617.878L824.273 617.878L824.273 629.157"/>
<path class="l4" style="fill:none;" d="M824.273 617.878L973.721 617.878L973.721 606.599L824.273 606.599L824.273 617.878"/>
<path class="l4" d="M708.663 290.785L708.663 302.064"/>
<path class="l4" d="M787.616 352.82L798.895 352.82"/>
<path class="l4" d="M686.105 341.541L697.384 341.541"/>
<path class="l4" d="M725.581 392.297L725.581 403.576"/>
<path class="l4" d="M708.663 392.297L708.663 403.576"/>
<path class="l4" d="M767.878 352.82L776.337 352.82"/>
<path class="l4" d="M697.384 302.064L697.384 392.297"/>
<path class="l4" d="M697.384 392.297L787.616 392.297"/>
<path class="l4" d="M787.616 304.884L787.616 392.297"/>
<path class="l4" d="M787.616 302.064L787.616 304.884"/>
<path class="l4" d="M697.384 302.064L787.616 302.064"/>
<path class="l4" d="M734.041 341.541L742.5 341.541"/>
<path class="l4" d="M742.5 341.541L748.14 344.36"/>
<circle class="l4" cx="756.599" cy="351.88" r="10.7168" style="fill:none;"/>
<path class="l4" style="fill:none;" d="M756.599 352.82 A2.81977 2.81977 0 0 0 750.959 352.82"/>
<path class="l4" style="fill:none;" d="M756.599 352.82 A2.81977 2.81977 0 0 0 762.238 352.82"/>
<path class="l4" d="M821.453 426.134L821.453 437.413"/>
<path class="l4" d="M731.221 476.89L742.5 476.89"/>
<path class="l4" d="M832.733 471.25L844.012 471.25"/>
<path class="l4" d="M810.174 510.727L810.174 522.006"/>
<path class="l4" d="M821.453 510.727L821.453 522.006"/>
<path class="l4" d="M832.733 437.413L832.733 510.727"/>
<path class="l4" d="M742.5 510.727L832.733 510.727"/>
<path class="l4" d="M742.5 437.413L742.5 510.727"/>
<path class="l4" d="M742.5 437.413L832.733 437.413"/>
<path class="l4" d="M325.174 505.087L449.244 505.087"/>
<path class="l4" d="M325.174 550.203L449.244 550.203"/>
<path class="l4" d="M449.244 505.087L449.244 550.203"/>
<path class="l4" d="M325.174 505.087L325.174 550.203"/>
<path class="l4" d="M398.488 493.808L398.488 505.087"/>
<path class="l4" d="M313.895 538.924L325.174 538.924"/>
<path class="l4" d="M432.326 550.203L432.326 561.483"/>
<path class="l4" d="M550.756 307.703L550.756 318.983"/>
<path class="l4" d="M624.07 358.459L635.349 358.459"/>
<path class="l4" d="M522.558 352.82L533.837 352.82"/>
<path class="l4" d="M624.07 341.541L635.349 341.541"/>
<path class="l4" d="M562.035 386.657L562.035 397.936"/>
<path class="l4" d="M545.116 386.657L545.116 397.936"/>
<path class="l4" d="M533.837 318.983L533.837 386.657"/>
<path class="l4" d="M533.837 386.657L624.07 386.657"/>
<path class="l4" d="M624.07 318.983L624.07 386.657"/>
<path class="l4" d="M533.837 318.983L624.07 318.983"/>
<path class="l4" d="M562.035 341.541L562.035 364.099"/>
<path class="l4" d="M562.035 341.541L595.872 352.82"/>
<path class="l4" d="M562.035 364.099L595.872 352.82"/>
<path class="l4" d="M545.116 352.82L562.035 352.82"/>
<path class="l4" d="M595.872 352.82L601.512 352.82"/>
<path class="l4" d="M460.523 364.099L500 364.099"/>
<path class="l4" d="M460.523 437.413L500 437.413"/>
<path class="l4" d="M460.523 364.099L460.523 437.413"/>
<path class="l4" d="M500 364.099L500 437.413"/>
<path class="l4" d="M449.244 403.576L460.523 403.576"/>
<path class="l4" d="M477.442 437.413L477.442 448.692"/>
<path class="l4" d="M471.802 392.297L483.081 392.297"/>
<path class="l4" d="M483.081 392.297L488.721 409.215"/>
<path class="l4" d="M477.442 352.82L477.442 364.099"/>
<path class="l4" d="M319.535 290.785L319.535 302.064"/>
<path class="l4" d="M296.977 341.541L308.256 341.541"/>
<path class="l4" d="M381.57 352.82L392.849 352.82"/>
<path class="l4" d="M296.977 352.82L308.256 352.82"/>
<path class="l4" d="M330.814 386.657L330.814 397.936"/>
<path class="l4" d="M319.535 386.657L319.535 397.936"/>
<path class="l4" d="M308.256 302.064L308.256 386.657"/>
<path class="l4" d="M308.256 386.657L381.57 386.657"/>
<path class="l4" d="M381.57 302.064L381.57 386.657"/>
<path class="l4" d="M308.256 302.064L381.57 302.064"/>
<path class="l4" d="M381.57 369.738L392.849 369.738"/>
<path class="l4" d="M347.733 386.657L347.733 397.936"/>
<path class="l4" d="M359.012 386.657L359.012 397.936"/>
<path class="l4" d="M172.907 296.424L172.907 307.703"/>
<path class="l4" d="M257.5 341.541L268.779 341.541"/>
<path class="l4" d="M150.349 341.541L161.628 341.541"/>
<path class="l4" d="M257.5 352.82L268.779 352.82"/>
<path class="l4" d="M150.349 352.82L161.628 352.82"/>
<path class="l4" d="M172.907 386.657L172.907 397.936"/>
<path class="l4" d="M161.628 307.703L161.628 386.657"/>
<path class="l4" d="M161.628 386.657L251.86 386.657"/>
<path class="l4" d="M251.86 386.657L257.5 386.657"/>
<path class="l4" d="M257.5 307.703L257.5 386.657"/>
<path class="l4" d="M161.628 307.703L257.5 307.703"/>
<path class="l4" d="M206.744 510.727L296.977 510.727"/>
<path class="l4" d="M206.744 544.564L296.977 544.564"/>
<path class="l4" d="M206.744 510.727L206.744 544.564"/>
<path class="l4" d="M296.977 510.727L296.977 544.564"/>
<path class="l4" d="M195.465 516.366L206.744 516.366"/>
<path class="l4" d="M296.977 516.366L308.256 516.366"/>
<path class="l4" d="M296.977 527.645L308.256 527.645"/>
<path class="l4" d="M195.465 527.645L206.744 527.645"/>
<path class="l4" d="M195.465 538.924L206.744 538.924"/>
<path class="l4" d="M296.977 538.924L308.256 538.924"/>
<path class="l5" d="M85.4942 155.436L88.314 155.436"/>
<path class="l5" d="M85.4942 155.436L83.3794 152.616L78.4448 152.616L80.5596 155.436L78.4448 158.256L83.3794 158.256L85.4942 155.436"/>
<path class="l5" d="M87.609 154.731L89.0189 154.731L89.0189 156.141L87.609 156.141L87.609 154.731z"/>
<path class="l5" d="M96.7733 612.238L99.593 612.238"/>
<path class="l5" d="M96.7733 612.238L94.6584 609.419L89.7238 609.419L91.8387 612.238L89.7238 615.058L94.6584 615.058L96.7733 612.238"/>
<path class="l5" d="M98.8881 611.533L100.298 611.533L100.298 612.943L98.8881 612.943L98.8881 611.533z"/>
<path class="l5" d="M102.413 572.762L105.233 572.762"/>
<path class="l5" d="M102.413 572.762L100.298 569.942L95.3634 569.942L97.4782 572.762L95.3634 575.581L100.298 575.581L102.413 572.762"/>
<path class="l5" d="M104.528 572.057L105.937 572.057L105.937 573.467L104.528 573.467L104.528 572.057z"/>
<path class="l5" d="M91.1337 341.541L93.9535 341.541"/>
<path class="l5" d="M91.1337 341.541L89.0189 338.721L84.0843 338.721L86.1991 341.541L84.0843 344.36L89.0189 344.36L91.1337 341.541"/>
<path class="l5" d="M93.2485 340.836L94.6584 340.836L94.6584 342.246L93.2485 342.246L93.2485 340.836z"/>
<path class="l5" d="M928.605 352.82L933.539 352.82"/>
<path class="l5" d="M938.474 352.82L936.359 350L931.424 350L933.539 352.82L931.424 355.64L936.359 355.64L938.474 352.82"/>
<path class="l5" d="M927.9 352.115L929.31 352.115L929.31 353.525L927.9 353.525L927.9 352.115z"/>
<path class="l5" d="M284.993 340.836L286.403 340.836L286.403 342.246L284.993 342.246L284.993 340.836z"/>
<path class="l5" d="M284.993 352.115L286.403 352.115L286.403 353.525L284.993 353.525L284.993 352.115z"/>
<path class="l5" d="M657.202 340.836L658.612 340.836L658.612 342.246L657.202 342.246L657.202 340.836z"/>
<path class="l5" d="M96.7733 454.331L99.593 454.331"/>
<path class="l5" d="M96.7733 454.331L94.6584 451.512L89.7238 451.512L91.8387 454.331L89.7238 457.151L94.6584 457.151L96.7733 454.331"/>
<path class="l5" d="M98.8881 453.626L100.298 453.626L100.298 455.036L98.8881 455.036L98.8881 453.626z"/>
<path class="l5" d="M707.253 289.375L710.073 289.375L710.073 292.195L707.253 292.195L707.253 289.375z"/>
<path class="l5" d="M797.485 351.41L800.305 351.41L800.305 354.23L797.485 354.23L797.485 351.41z"/>
<path class="l5" d="M684.695 340.131L687.515 340.131L687.515 342.951L684.695 342.951L684.695 340.131z"/>
<path class="l5" d="M724.172 402.166L726.991 402.166L726.991 404.985L724.172 404.985L724.172 402.166z"/>
<path class="l5" d="M707.253 402.166L710.073 402.166L710.073 404.985L707.253 404.985L707.253 402.166z"/>
<path class="l5" d="M820.044 424.724L822.863 424.724L822.863 427.544L820.044 427.544L820.044 424.724z"/>
<path class="l5" d="M729.811 475.48L732.631 475.48L732.631 478.299L729.811 478.299L729.811 475.48z"/>
<path class="l5" d="M842.602 469.84L845.422 469.84L845.422 472.66L842.602 472.66L842.602 469.84z"/>
<path class="l5" d="M808.765 520.596L811.584 520.596L811.584 523.416L808.765 523.416L808.765 520.596z"/>
<path class="l5" d="M820.044 520.596L822.863 520.596L822.863 523.416L820.044 523.416L820.044 520.596z"/>
<path class="l5" d="M397.078 492.398L399.898 492.398L399.898 495.218L397.078 495.218L397.078 492.398z"/>
<path class="l5" d="M312.485 537.515L315.305 537.515L315.305 540.334L312.485 540.334L312.485 537.515z"/>
<path class="l5" d="M430.916 560.073L433.735 560.073L433.735 562.892L430.916 562.892L430.916 560.073z"/>
<path class="l5" d="M549.346 306.294L552.166 306.294L552.166 309.113L549.346 309.113L549.346 306.294z"/>
<path class="l5" d="M633.939 357.049L636.759 357.049L636.759 359.869L633.939 359.869L633.939 357.049z"/>
<path class="l5" d="M521.148 351.41L523.968 351.41L523.968 354.23L521.148 354.23L521.148 351.41z"/>
<path class="l5" d="M633.939 340.131L636.759 340.131L636.759 342.951L633.939 342.951L633.939 340.131z"/>
<path class="l5" d="M560.625 396.526L563.445 396.526L563.445 399.346L560.625 399.346L560.625 396.526z"/>
<path class="l5" d="M543.706 396.526L546.526 396.526L546.526 399.346L543.706 399.346L543.706 396.526z"/>
<path class="l5" d="M447.834 402.166L450.654 402.166L450.654 404.985L447.834 404.985L447.834 402.166z"/>
<path class="l5" d="M476.032 447.282L478.852 447.282L478.852 450.102L476.032 450.102L476.032 447.282z"/>
<path class="l5" d="M476.032 351.41L478.852 351.41L478.852 354.23L476.032 354.23L476.032 351.41z"/>
<path class="l5" d="M318.125 289.375L320.945 289.375L320.945 292.195L318.125 292.195L318.125 289.375z"/>
<path class="l5" d="M295.567 340.131L298.387 340.131L298.387 342.951L295.567 342.951L295.567 340.131z"/>
<path class="l5" d="M391.439 351.41L394.259 351.41L394.259 354.23L391.439 354.23L391.439 351.41z"/>
<path class="l5" d="M295.567 351.41L298.387 351.41L298.387 354.23L295.567 354.23L295.567 351.41z"/>
<path class="l5" d="M329.404 396.526L332.224 396.526L332.224 399.346L329.404 399.346L329.404 396.526z"/>
<path class="l5" d="M318.125 396.526L320.945 396.526L320.945 399.346L318.125 399.346L318.125 396.526z"/>
<path class="l5" d="M391.439 368.328L394.259 368.328L394.259 371.148L391.439 371.148L391.439 368.328z"/>
<path class="l5" d="M346.323 396.526L349.142 396.526L349.142 399.346L346.323 399.346L346.323 396.526z"/>
<path class="l5" d="M357.602 396.526L360.422 396.526L360.422 399.346L357.602 399.346L357.602 396.526z"/>
<path class="l5" d="M171.497 295.015L174.317 295.015L174.317 297.834L171.497 297.834L171.497 295.015z"/>
<path class="l5" d="M267.369 340.131L270.189 340.131L270.189 342.951L267.369 342.951L267.369 340.131z"/>
<path class="l5" d="M148.939 340.131L151.759 340.131L151.759 342.951L148.939 342.951L148.939 340.131z"/>
<path class="l5" d="M267.369 351.41L270.189 351.41L270.189 354.23L267.369 354.23L267.369 351.41z"/>
<path class="l5" d="M148.939 351.41L151.759 351.41L151.759 354.23L148.939 354.23L148.939 351.41z"/>
<path class="l5" d="M171.497 396.526L174.317 396.526L174.317 399.346L171.497 399.346L171.497 396.526z"/>
<path class="l5" d="M448.539 352.115L449.949 352.115L449.949 353.525L448.539 353.525L448.539 352.115z"/>
<path class="l5" d="M623.365 476.185L624.775 476.185L624.775 477.594L623.365 477.594L623.365 476.185z"/>
<path class="l5" d="M194.055 514.956L196.875 514.956L196.875 517.776L194.055 517.776L194.055 514.956z"/>
<path class="l5" d="M306.846 514.956L309.666 514.956L309.666 517.776L306.846 517.776L306.846 514.956z"/>
<path class="l5" d="M306.846 526.235L309.666 526.235L309.666 529.055L306.846 529.055L306.846 526.235z"/>
<path class="l5" d="M194.055 526.235L196.875 526.235L196.875 529.055L194.055 529.055L194.055 526.235z"/>
<path class="l5" d="M194.055 537.515L196.875 537.515L196.875 540.334L194.055 540.334L194.055 537.515z"/>
<path class="l5" d="M306.846 537.515L309.666 537.515L309.666 540.334L306.846 540.334L306.846 537.515z"/>
<path class="l5" d="M437.26 369.033L438.67 369.033L438.67 370.443L437.26 370.443L437.26 369.033z"/>
<path class="l5" d="M358.307 419.789L359.717 419.789L359.717 421.199L358.307 421.199L358.307 419.789z"/>
<path class="l5" d="M307.551 538.219L308.961 538.219L308.961 539.629L307.551 539.629L307.551 538.219z"/>
<path class="l9" d="M770.698 465.61L793.256 465.61"/>
<path class="l1" d="M844.012 352.82L844.012 471.25"/>
<path class="l1" d="M798.895 352.82L844.012 352.82"/>
<path class="l1" d="M573.314 572.762L725.581 572.762"/>
<path class="l1" d="M725.581 397.936L725.581 572.762"/>
<path class="l1" d="M708.663 403.576L708.663 544.564"/>
<path class="l1" d="M708.663 544.564L708.663 612.238"/>
<path class="l1" d="M155.988 612.238L590.233 612.238"/>
<path class="l1" d="M139.07 476.89L516.919 476.89"/>
<path class="l1" d="M139.07 409.215L139.07 476.89"/>
<path class="l1" d="M139.07 352.82L150.349 352.82"/>
<path class="l1" d="M139.07 352.82L139.07 409.215"/>
<path class="l1" d="M172.907 155.436L172.907 296.424"/>
<path class="l1" d="M172.907 155.436L590.233 155.436"/>
<path class="l1" d="M708.663 155.436L708.663 290.785"/>
<path class="l1" d="M99.593 612.238L150.349 612.238"/>
<path class="l1" d="M150.349 612.238L155.988 612.238"/>
<path class="l1" d="M105.233 572.762L573.314 572.762"/>
<path class="l1" d="M82.6744 155.436L178.547 155.436"/>
<path class="l1" d="M88.314 341.541L150.349 341.541"/>
<path class="l1" d="M172.907 397.936L172.907 612.238"/>
<path class="l1" d="M844.012 352.82L928.605 352.82"/>
<path class="l1" d="M590.233 155.436L708.663 155.436"/>
<path class="l1" d="M590.233 612.238L708.663 612.238"/>
<path class="l1" d="M268.779 341.541L296.977 341.541"/>
<path class="l1" d="M268.779 352.82L296.977 352.82"/>
<path class="l1" d="M516.919 476.89L731.221 476.89"/>
<path class="l1" d="M810.174 527.645L810.174 572.762"/>
<path class="l1" d="M725.581 572.762L810.174 572.762"/>
<path class="l1" d="M635.349 341.541L686.105 341.541"/>
<path class="l1" d="M635.349 358.459L646.628 358.459"/>
<path class="l1" d="M646.628 341.541L646.628 358.459"/>
<path class="l1" d="M810.174 522.006L810.174 527.645"/>
<path class="l1" d="M821.453 522.006L821.453 612.238"/>
<path class="l1" d="M708.663 612.238L821.453 612.238"/>
<path class="l1" d="M821.453 155.436L821.453 426.134"/>
<path class="l1" d="M708.663 155.436L821.453 155.436"/>
<path class="l1" d="M319.535 155.436L319.535 290.785"/>
<path class="l1" d="M550.756 155.436L550.756 307.703"/>
<path class="l1" d="M330.814 397.936L330.814 454.331"/>
<path class="l1" d="M562.035 397.936L562.035 454.331"/>
<path class="l1" d="M99.593 454.331L562.035 454.331"/>
<path class="l1" d="M398.488 454.331L398.488 493.808"/>
<path class="l1" d="M477.442 352.82L522.558 352.82"/>
<path class="l1" d="M392.849 352.82L477.442 352.82"/>
<path class="l1" d="M477.442 448.692L477.442 612.238"/>
<path class="l1" d="M545.116 397.936L545.116 612.238"/>
<path class="l1" d="M392.849 369.738L449.244 369.738"/>
<path class="l1" d="M449.244 369.738L449.244 403.576"/>
<path class="l1" d="M347.733 397.936L347.733 488.169"/>
<path class="l1" d="M189.826 488.169L347.733 488.169"/>
<path class="l1" d="M189.826 488.169L189.826 572.762"/>
<path class="l1" d="M133.43 516.366L195.465 516.366"/>
<path class="l1" d="M133.43 155.436L133.43 516.366"/>
<path class="l1" d="M195.465 538.924L195.465 612.238"/>
<path class="l1" d="M189.826 527.645L195.465 527.645"/>
<path class="l1" d="M308.256 516.366L313.895 516.366"/>
<path class="l1" d="M313.895 493.808L313.895 516.366"/>
<path class="l1" d="M313.895 493.808L359.012 493.808"/>
<path class="l1" d="M359.012 397.936L359.012 493.808"/>
<path class="l1" d="M319.535 397.936L319.535 414.855"/>
<path class="l1" d="M172.907 414.855L319.535 414.855"/>
<path class="l1" d="M432.326 561.483L432.326 612.238"/>
<path class="l1" d="M308.256 538.924L313.895 538.924"/>
<path class="l1" d="M308.256 527.645L313.895 527.645"/>
<circle class="l1" cx="178.547" cy="155.436" r="2.25581"/>
<circle class="l1" cx="133.43" cy="155.436" r="2.25581"/>
<circle class="l1" cx="319.535" cy="155.436" r="2.25581"/>
<circle class="l1" cx="172.907" cy="155.436" r="2.25581"/>
<circle class="l1" cx="172.907" cy="155.436" r="2.25581"/>
<circle class="l1" cx="172.907" cy="414.855" r="2.25581"/>
<circle class="l1" cx="189.826" cy="527.645" r="2.25581"/>
<circle class="l1" cx="195.465" cy="612.238" r="2.25581"/>
<circle class="l1" cx="189.826" cy="572.762" r="2.25581"/>
<circle class="l1" cx="330.814" cy="454.331" r="2.25581"/>
<circle class="l1" cx="172.907" cy="612.238" r="2.25581"/>
<circle class="l1" cx="550.756" cy="155.436" r="2.25581"/>
<circle class="l1" cx="432.326" cy="612.238" r="2.25581"/>
<circle class="l1" cx="545.116" cy="612.238" r="2.25581"/>
<circle class="l1" cx="477.442" cy="612.238" r="2.25581"/>
<circle class="l1" cx="398.488" cy="454.331" r="2.25581"/>
<circle class="l1" cx="725.581" cy="572.762" r="2.25581"/>
<circle class="l1" cx="708.663" cy="155.436" r="2.25581"/>
<circle class="l1" cx="708.663" cy="155.436" r="2.25581"/>
<circle class="l1" cx="708.663" cy="155.436" r="2.25581"/>
<circle class="l1" cx="646.628" cy="341.541" r="2.25581"/>
<circle class="l1" cx="844.012" cy="352.82" r="2.25581"/>
<circle class="l1" cx="708.663" cy="612.238" r="2.25581"/>
<circle class="l1" cx="725.581" cy="572.762" r="2.25581"/>
<circle class="l1" cx="708.663" cy="612.238" r="2.25581"/>
<circle class="l1" cx="708.663" cy="612.238" r="2.25581"/>
<circle class="l1" cx="725.581" cy="572.762" r="2.25581"/>
<circle class="l1" cx="844.012" cy="352.82" r="2.25581"/>
<circle class="l1" cx="844.012" cy="352.82" r="2.25581"/>
</svg>
