<svg xmlns="http://www.w3.org/2000/svg" xmlns:xlink="http://www.w3.org/1999/xlink" width="1000" height="700" version="1.1">
<style type="text/css">
.l0{
 fill: #ffffff;
  stroke: #ffffff;
  stroke-linecap:round;
  stroke-linejoin:round;
  stroke-width: 0.60907;
}
.l1{
 fill: #0044ee;
  stroke: #0044ee;
  stroke-linecap:round;
  stroke-linejoin:round;
  stroke-width: 0.60907;
}
.l2{
  fill: none;
  stroke: #aaaaaa;
  stroke-linecap:round;
  stroke-linejoin:round;
  stroke-width: 0.60907;
}
.l3{
 fill: #222222; fill-opacity: 0.5;
  stroke: #222222;
  stroke-linecap:round;
  stroke-linejoin:round;
  stroke-width: 0.60907;
}
.l4{
 fill: #229900;
  stroke: #229900;
  stroke-linecap:round;
  stroke-linejoin:round;
  stroke-width: 0.60907;
}
.l5{
 fill: #bb2200;
  stroke: #bb2200;
  stroke-linecap:round;
  stroke-linejoin:round;
  stroke-width: 0.60907;
}
.l6{
 fill: #00ccee; fill-opacity: 0.5;
  stroke: #00ccee;
  stroke-linecap:round;
  stroke-linejoin:round;
  stroke-width: 0.60907;
}
.l7{
 fill: #ff0000; fill-opacity: 0.5;
  stroke: #ff0000;
  stroke-linecap:round;
  stroke-linejoin:round;
  stroke-width: 0.60907;
}
.l8{
 fill: #888800; fill-opacity: 0.5;
  stroke: #888800;
  stroke-linecap:round;
  stroke-linejoin:round;
  stroke-width: 0.60907;
}
.l9{
 fill: #00aaaa; fill-opacity: 0.5;
  stroke: #00aaaa;
  stroke-linecap:round;
  stroke-linejoin:round;
  stroke-width: 0.60907;
}
.l10{
 fill: #880088;
  stroke: #880088;
  stroke-linecap:round;
  stroke-linejoin:round;
  stroke-width: 0.60907;
}
.l11{
 fill: #00ff00; fill-opacity: 0.5;
  stroke: #00ff00;
  stroke-linecap:round;
  stroke-linejoin:round;
  stroke-width: 0.60907;
}
.l12{
 fill: #0000cc; fill-opacity: 0.5;
  stroke: #0000cc;
  stroke-linecap:round;
  stroke-linejoin:round;
  stroke-width: 0.60907;
}
.l13{
 fill: #666600; fill-opacity: 0.5;
  stroke: #666600;
  stroke-linecap:round;
  stroke-linejoin:round;
  stroke-width: 0.60907;
}
.l14{
  fill: none;
  stroke: #557755;
  stroke-linecap:round;
  stroke-linejoin:round;
  stroke-width: 0.60907;
}
.l15{
 fill: #aa2222; fill-opacity: 0.5;
  stroke: #aa2222;
  stroke-linecap:round;
  stroke-linejoin:round;
  stroke-width: 0.60907;
}
.l16{
 fill: #7ccc40; fill-opacity: 0.5;
  stroke: #7ccc40;
  stroke-linecap:round;
  stroke-linejoin:round;
  stroke-width: 0.60907;
}
.l17{
  fill: none;
  stroke: #00ffcc;
  stroke-linecap:round;
  stroke-linejoin:round;
  stroke-width: 0.60907;
}
.l18{
 fill: #ce0097; fill-opacity: 0.5;
  stroke: #ce0097;
  stroke-linecap:round;
  stroke-linejoin:round;
  stroke-width: 0.60907;
}
.l19{
  fill: none;
  stroke: #d2d46b;
  stroke-linecap:round;
  stroke-linejoin:round;
  stroke-width: 0.60907;
}
.l20{
  fill: none;
  stroke: #ef6158;
  stroke-linecap:round;
  stroke-linejoin:round;
  stroke-width: 0.60907;
}
.l21{
  fill: none;
  stroke: #fdb200;
  stroke-linecap:round;
  stroke-linejoin:round;
  stroke-width: 0.60907;
}
text {font-family: Sans-Serif;}
</style>
<rect class="l0" x="0" y="0" width="1000" height="700"/>
<text fill="#0044ee"  xml:space="preserve" font-size="9.67744" transform="translate(280.94, 232.603)" >AVDD</text>
<text fill="#0044ee"  xml:space="preserve" font-size="9.67744" transform="translate(544.411, 338.523)" >VFB</text>
<text fill="#0044ee"  xml:space="preserve" font-size="9.67744" transform="translate(297.77, 339.754)" >VI</text>
<text fill="#0044ee"  xml:space="preserve" font-size="9.67744" transform="translate(652.267, 339.754)" >VO</text>
<text fill="#0044ee"  xml:space="preserve" font-size="9.67744" transform="translate(289.355, 413.068)" >VBN</text>
<text fill="#0044ee"  xml:space="preserve" font-size="9.67744" transform="translate(280.94, 429.986)" >AVSS</text>
<text fill="#0044ee"  xml:space="preserve" font-size="9.67744" transform="translate(422.545, 373.943)" >VS</text>
<text fill="#0044ee"  xml:space="preserve" font-size="9.67744" transform="translate(369.014, 300.629)" >VGP</text>
<text fill="#0044ee"  xml:space="preserve" font-size="9.67744" transform="translate(459.246, 300.629)" >VDP</text>
<text fill="#222222"  xml:space="preserve" font-size="7.3314" transform="translate(827.093, 614.863)" >Updated</text>
<text fill="#222222"  xml:space="preserve" font-size="7.3314" transform="translate(29.0988, 648.7)" >Library/Cell</text>
<text fill="#222222"  xml:space="preserve" font-size="7.3314" transform="translate(827.093, 603.584)" >Designer</text>
<text fill="#222222"  xml:space="preserve" font-size="7.3314" transform="translate(827.093, 626.142)" >Modified</text>
<text fill="#222222"  xml:space="preserve" font-size="7.3314" transform="translate(829.913, 637.421)" >Copyright</text>
<text fill="#222222"  xml:space="preserve" font-size="7.3314" transform="translate(872.209, 614.863)" >wulff</text>
<text fill="#222222"  xml:space="preserve" font-size="7.3314" transform="translate(872.209, 626.142)" >2024-08-18  16:32:28</text>
<text fill="#222222"  xml:space="preserve" font-size="7.3314" transform="translate(872.209, 637.421)" >Carsten Wulff Software</text>
<text fill="#222222"  xml:space="preserve" font-size="7.3314" transform="translate(93.9535, 648.7)" >SUN_PLL_BUF</text>
<text fill="#222222"  xml:space="preserve" font-size="7.3314" transform="translate(872.209, 603.584)" >Carsten Wulff</text>
<text fill="#222222"  xml:space="preserve" font-size="4.69209" transform="translate(398.488, 326.302)" >SUNTR_NCHDLCM</text>
<text fill="#222222"  xml:space="preserve" font-size="4.69209" transform="translate(398.488, 351.68)" >xa4[1:0]</text>
<text fill="#222222"  xml:space="preserve" font-size="4.69209" transform="translate(435.681, 326.302)" >SUNTR_NCHDLCM</text>
<text fill="#222222"  xml:space="preserve" font-size="4.69209" transform="translate(456.081, 351.68)" >xa2[1:0]</text>
<text fill="#222222"  xml:space="preserve" font-size="4.69209" transform="translate(443.605, 399.616)" >SUNTR_NCHDLCM</text>
<text fill="#222222"  xml:space="preserve" font-size="4.69209" transform="translate(443.605, 424.994)" >xa1</text>
<text fill="#222222"  xml:space="preserve" font-size="4.69209" transform="translate(357.688, 258.627)" >SUNTR_PCHL</text>
<text fill="#222222"  xml:space="preserve" font-size="4.69209" transform="translate(365.848, 233.25)" >xc2[3:0]</text>
<text fill="#222222"  xml:space="preserve" font-size="4.69209" transform="translate(488.721, 258.627)" >SUNTR_PCHL</text>
<text fill="#222222"  xml:space="preserve" font-size="4.69209" transform="translate(488.721, 233.25)" >xc1[3:0]</text>
<text fill="#222222"  xml:space="preserve" font-size="4.69209" transform="translate(607.151, 292.465)" >SUNTR_PCHL</text>
<text fill="#222222"  xml:space="preserve" font-size="4.69209" transform="translate(607.151, 267.087)" >xc3[12:0]</text>
<text fill="#222222"  xml:space="preserve" font-size="5.86512" transform="translate(602.93, 372.019) rotate(270)" >A</text>
<text fill="#222222"  xml:space="preserve" font-size="5.86512" transform="translate(604.017, 400.756) rotate(270)" >B</text>
<text fill="#222222"  xml:space="preserve" font-size="7.3314" transform="translate(624.07, 393.314)" >SUNSAR_CAP_BSSW_CV</text>
<text fill="#222222"  xml:space="preserve" font-size="7.3314" transform="translate(624.07, 401.773)" >M=</text>
<text fill="#222222"  xml:space="preserve" font-size="5.86512" transform="translate(624.07, 383.523)" >xd2</text>
<text fill="#222222"  xml:space="preserve" font-size="5.86512" transform="translate(772.116, 377.658) rotate(270)" >A</text>
<text fill="#222222"  xml:space="preserve" font-size="5.86512" transform="translate(773.203, 406.395) rotate(270)" >B</text>
<text fill="#222222"  xml:space="preserve" font-size="7.3314" transform="translate(793.256, 398.953)" >SUNSAR_CAP_BSSW_CV</text>
<text fill="#222222"  xml:space="preserve" font-size="7.3314" transform="translate(793.256, 407.413)" >M=</text>
<text fill="#222222"  xml:space="preserve" font-size="5.86512" transform="translate(793.256, 389.163)" >xd3[9:0]</text>
<path class="l4" d="M866.57 606.599L866.57 617.878"/>
<path class="l4" d="M793.256 640.436L793.256 651.715"/>
<path class="l4" d="M906.047 640.436L906.047 651.715"/>
<path class="l4" d="M680.465 640.436L680.465 651.715"/>
<path class="l4" d="M91.1337 640.436L91.1337 651.715"/>
<path class="l4" d="M15 640.436L26.2791 640.436"/>
<path class="l4" d="M26.2791 640.436L26.2791 651.715"/>
<path class="l4" d="M973.721 640.436L985 640.436"/>
<path class="l4" d="M973.721 640.436L973.721 651.715"/>
<path class="l4" d="M866.57 595.32L866.57 606.599"/>
<path class="l4" d="M866.57 617.878L866.57 629.157"/>
<path class="l4" style="fill:none;" d="M824.273 640.436L985 640.436L985 595.32L824.273 595.32L824.273 640.436"/>
<path class="l4" style="fill:none;" d="M15 651.715L985 651.715L985 48.2849L15 48.2849L15 651.715"/>
<path class="l4" style="fill:none;" d="M824.273 606.599L973.721 606.599L973.721 595.32L824.273 595.32L824.273 606.599"/>
<path class="l4" style="fill:none;" d="M15 651.715L985 651.715L985 640.436L15 640.436L15 651.715"/>
<path class="l4" style="fill:none;" d="M824.273 640.436L973.721 640.436L973.721 629.157L824.273 629.157L824.273 640.436"/>
<path class="l4" style="fill:none;" d="M824.273 629.157L973.721 629.157L973.721 617.878L824.273 617.878L824.273 629.157"/>
<path class="l4" style="fill:none;" d="M824.273 617.878L973.721 617.878L973.721 606.599L824.273 606.599L824.273 617.878"/>
<path class="l4" d="M392.849 341.541L398.488 344.36"/>
<path class="l4" d="M392.849 347.18L398.488 344.36"/>
<path class="l4" d="M387.209 327.442L398.488 327.442"/>
<path class="l4" d="M398.488 318.983L398.488 327.442"/>
<path class="l4" d="M387.209 344.36L398.488 344.36"/>
<path class="l4" d="M398.488 344.36L398.488 352.82"/>
<path class="l4" d="M387.209 335.901L398.488 335.901"/>
<path class="l4" d="M387.209 327.442L387.209 344.36"/>
<path class="l4" d="M384.39 327.442L384.39 344.36"/>
<path class="l4" d="M375.93 335.901L384.39 335.901"/>
<path class="l4" d="M488.721 344.36L494.36 341.541"/>
<path class="l4" d="M488.721 344.36L494.36 347.18"/>
<path class="l4" d="M488.721 327.442L500 327.442"/>
<path class="l4" d="M488.721 318.983L488.721 327.442"/>
<path class="l4" d="M488.721 344.36L500 344.36"/>
<path class="l4" d="M488.721 344.36L488.721 352.82"/>
<path class="l4" d="M488.721 335.901L500 335.901"/>
<path class="l4" d="M500 327.442L500 344.36"/>
<path class="l4" d="M502.82 327.442L502.82 344.36"/>
<path class="l4" d="M502.82 335.901L511.279 335.901"/>
<path class="l4" d="M437.965 414.855L443.605 417.674"/>
<path class="l4" d="M437.965 420.494L443.605 417.674"/>
<path class="l4" d="M432.326 400.756L443.605 400.756"/>
<path class="l4" d="M443.605 392.297L443.605 400.756"/>
<path class="l4" d="M432.326 417.674L443.605 417.674"/>
<path class="l4" d="M443.605 417.674L443.605 426.134"/>
<path class="l4" d="M432.326 409.215L443.605 409.215"/>
<path class="l4" d="M432.326 400.756L432.326 417.674"/>
<path class="l4" d="M429.506 400.756L429.506 417.674"/>
<path class="l4" d="M421.047 409.215L429.506 409.215"/>
<path class="l4" d="M398.488 254.128L409.767 254.128"/>
<path class="l4" d="M398.488 254.128L398.488 262.587"/>
<path class="l4" d="M398.488 237.209L409.767 237.209"/>
<path class="l4" d="M398.488 228.75L398.488 237.209"/>
<path class="l4" d="M398.488 245.669L409.767 245.669"/>
<path class="l4" d="M400.18 234.39L405.82 237.209"/>
<path class="l4" d="M400.18 240.029L405.82 237.209"/>
<path class="l4" d="M409.767 237.209L409.767 254.128"/>
<path class="l4" d="M412.587 237.209L412.587 254.128"/>
<path class="l4" d="M417.099 245.669L421.047 245.669"/>
<circle class="l4" cx="414.843" cy="245.669" r="2.25581" style="fill:none;"/>
<path class="l4" d="M477.442 254.128L488.721 254.128"/>
<path class="l4" d="M488.721 254.128L488.721 262.587"/>
<path class="l4" d="M477.442 237.209L488.721 237.209"/>
<path class="l4" d="M488.721 228.75L488.721 237.209"/>
<path class="l4" d="M477.442 245.669L488.721 245.669"/>
<path class="l4" d="M481.39 237.209L487.029 234.39"/>
<path class="l4" d="M481.39 237.209L487.029 240.029"/>
<path class="l4" d="M477.442 237.209L477.442 254.128"/>
<path class="l4" d="M474.622 237.209L474.622 254.128"/>
<path class="l4" d="M466.163 245.669L470.11 245.669"/>
<circle class="l4" cx="472.366" cy="245.669" r="2.25581" style="fill:none;"/>
<path class="l4" d="M595.872 287.965L607.151 287.965"/>
<path class="l4" d="M607.151 287.965L607.151 296.424"/>
<path class="l4" d="M595.872 271.047L607.151 271.047"/>
<path class="l4" d="M607.151 262.587L607.151 271.047"/>
<path class="l4" d="M595.872 279.506L607.151 279.506"/>
<path class="l4" d="M599.82 271.047L605.459 268.227"/>
<path class="l4" d="M599.82 271.047L605.459 273.866"/>
<path class="l4" d="M595.872 271.047L595.872 287.965"/>
<path class="l4" d="M593.052 271.047L593.052 287.965"/>
<path class="l4" d="M584.593 279.506L588.541 279.506"/>
<circle class="l4" cx="590.797" cy="279.506" r="2.25581" style="fill:none;"/>
<path class="l4" d="M607.151 364.099L607.151 375.378"/>
<path class="l4" d="M607.151 392.297L607.151 403.576"/>
<path class="l4" d="M595.872 381.017L618.43 381.017"/>
<path class="l4" d="M595.872 386.657L618.43 386.657"/>
<path class="l4" d="M607.151 375.378L607.151 381.017"/>
<path class="l4" d="M607.151 386.657L607.151 392.297"/>
<path class="l4" d="M776.337 369.738L776.337 381.017"/>
<path class="l4" d="M776.337 397.936L776.337 409.215"/>
<path class="l4" d="M765.058 386.657L787.616 386.657"/>
<path class="l4" d="M765.058 392.297L787.616 392.297"/>
<path class="l4" d="M776.337 381.017L776.337 386.657"/>
<path class="l4" d="M776.337 392.297L776.337 397.936"/>
<path class="l5" d="M322.355 228.75L325.174 228.75"/>
<path class="l5" d="M322.355 228.75L320.24 225.93L315.305 225.93L317.42 228.75L315.305 231.57L320.24 231.57L322.355 228.75"/>
<path class="l5" d="M324.469 228.045L325.879 228.045L325.879 229.455L324.469 229.455L324.469 228.045z"/>
<path class="l5" d="M533.837 335.901L536.657 335.901"/>
<path class="l5" d="M536.657 335.901L538.772 338.721L543.706 338.721L541.592 335.901L543.706 333.081L538.772 333.081L536.657 335.901"/>
<path class="l5" d="M533.132 335.196L534.542 335.196L534.542 336.606L533.132 336.606L533.132 335.196z"/>
<path class="l5" d="M322.355 335.901L325.174 335.901"/>
<path class="l5" d="M322.355 335.901L320.24 333.081L315.305 333.081L317.42 335.901L315.305 338.721L320.24 338.721L322.355 335.901"/>
<path class="l5" d="M324.469 335.196L325.879 335.196L325.879 336.606L324.469 336.606L324.469 335.196z"/>
<path class="l5" d="M640.988 335.901L645.923 335.901"/>
<path class="l5" d="M650.858 335.901L648.743 333.081L643.808 333.081L645.923 335.901L643.808 338.721L648.743 338.721L650.858 335.901"/>
<path class="l5" d="M640.283 335.196L641.693 335.196L641.693 336.606L640.283 336.606L640.283 335.196z"/>
<path class="l5" d="M322.355 409.215L325.174 409.215"/>
<path class="l5" d="M322.355 409.215L320.24 406.395L315.305 406.395L317.42 409.215L315.305 412.035L320.24 412.035L322.355 409.215"/>
<path class="l5" d="M324.469 408.51L325.879 408.51L325.879 409.92L324.469 409.92L324.469 408.51z"/>
<path class="l5" d="M322.355 426.134L325.174 426.134"/>
<path class="l5" d="M322.355 426.134L320.24 423.314L315.305 423.314L317.42 426.134L315.305 428.953L320.24 428.953L322.355 426.134"/>
<path class="l5" d="M324.469 425.429L325.879 425.429L325.879 426.839L324.469 426.839L324.469 425.429z"/>
<path class="l5" d="M396.233 316.727L400.744 316.727L400.744 321.238L396.233 321.238L396.233 316.727z"/>
<path class="l5" d="M373.674 333.645L378.186 333.645L378.186 338.157L373.674 338.157L373.674 333.645z"/>
<path class="l5" d="M396.233 350.564L400.744 350.564L400.744 355.076L396.233 355.076L396.233 350.564z"/>
<path class="l5" d="M396.233 333.645L400.744 333.645L400.744 338.157L396.233 338.157L396.233 333.645z"/>
<path class="l5" d="M486.465 316.727L490.977 316.727L490.977 321.238L486.465 321.238L486.465 316.727z"/>
<path class="l5" d="M509.023 333.645L513.535 333.645L513.535 338.157L509.023 338.157L509.023 333.645z"/>
<path class="l5" d="M486.465 350.564L490.977 350.564L490.977 355.076L486.465 355.076L486.465 350.564z"/>
<path class="l5" d="M486.465 333.645L490.977 333.645L490.977 338.157L486.465 338.157L486.465 333.645z"/>
<path class="l5" d="M441.349 390.041L445.86 390.041L445.86 394.552L441.349 394.552L441.349 390.041z"/>
<path class="l5" d="M418.791 406.959L423.302 406.959L423.302 411.471L418.791 411.471L418.791 406.959z"/>
<path class="l5" d="M441.349 423.878L445.86 423.878L445.86 428.39L441.349 428.39L441.349 423.878z"/>
<path class="l5" d="M441.349 406.959L445.86 406.959L445.86 411.471L441.349 411.471L441.349 406.959z"/>
<path class="l5" d="M396.233 260.331L400.744 260.331L400.744 264.843L396.233 264.843L396.233 260.331z"/>
<path class="l5" d="M418.791 243.413L423.302 243.413L423.302 247.924L418.791 247.924L418.791 243.413z"/>
<path class="l5" d="M396.233 226.494L400.744 226.494L400.744 231.006L396.233 231.006L396.233 226.494z"/>
<path class="l5" d="M396.233 243.413L400.744 243.413L400.744 247.924L396.233 247.924L396.233 243.413z"/>
<path class="l5" d="M486.465 260.331L490.977 260.331L490.977 264.843L486.465 264.843L486.465 260.331z"/>
<path class="l5" d="M463.907 243.413L468.419 243.413L468.419 247.924L463.907 247.924L463.907 243.413z"/>
<path class="l5" d="M486.465 226.494L490.977 226.494L490.977 231.006L486.465 231.006L486.465 226.494z"/>
<path class="l5" d="M486.465 243.413L490.977 243.413L490.977 247.924L486.465 247.924L486.465 243.413z"/>
<path class="l5" d="M604.895 294.169L609.407 294.169L609.407 298.68L604.895 298.68L604.895 294.169z"/>
<path class="l5" d="M582.337 277.25L586.849 277.25L586.849 281.762L582.337 281.762L582.337 277.25z"/>
<path class="l5" d="M604.895 260.331L609.407 260.331L609.407 264.843L604.895 264.843L604.895 260.331z"/>
<path class="l5" d="M604.895 277.25L609.407 277.25L609.407 281.762L604.895 281.762L604.895 277.25z"/>
<path class="l5" d="M442.9 369.033L444.31 369.033L444.31 370.443L442.9 370.443L442.9 369.033z"/>
<path class="l5" d="M397.783 295.719L399.193 295.719L399.193 297.129L397.783 297.129L397.783 295.719z"/>
<path class="l5" d="M488.016 295.719L489.426 295.719L489.426 297.129L488.016 297.129L488.016 295.719z"/>
<path class="l5" d="M605.741 362.689L608.561 362.689L608.561 365.509L605.741 365.509L605.741 362.689z"/>
<path class="l5" d="M605.741 402.166L608.561 402.166L608.561 404.985L605.741 404.985L605.741 402.166z"/>
<path class="l5" d="M774.927 368.328L777.747 368.328L777.747 371.148L774.927 371.148L774.927 368.328z"/>
<path class="l5" d="M774.927 407.805L777.747 407.805L777.747 410.625L774.927 410.625L774.927 407.805z"/>
<path class="l1" d="M398.488 352.82L488.721 352.82"/>
<path class="l1" d="M443.605 352.82L443.605 392.297"/>
<path class="l1" d="M443.605 409.215L466.163 409.215"/>
<path class="l1" d="M443.605 426.134L466.163 426.134"/>
<path class="l1" d="M466.163 409.215L466.163 426.134"/>
<path class="l1" d="M375.93 409.215L421.047 409.215"/>
<path class="l1" d="M488.721 262.587L488.721 318.983"/>
<path class="l1" d="M398.488 262.587L398.488 318.983"/>
<path class="l1" d="M375.93 245.669L398.488 245.669"/>
<path class="l1" d="M375.93 228.75L375.93 245.669"/>
<path class="l1" d="M375.93 228.75L398.488 228.75"/>
<path class="l1" d="M398.488 228.75L488.721 228.75"/>
<path class="l1" d="M488.721 228.75L511.279 228.75"/>
<path class="l1" d="M511.279 228.75L511.279 245.669"/>
<path class="l1" d="M488.721 245.669L511.279 245.669"/>
<path class="l1" d="M421.047 245.669L466.163 245.669"/>
<path class="l1" d="M443.605 245.669L443.605 262.587"/>
<path class="l1" d="M443.605 262.587L443.605 273.866"/>
<path class="l1" d="M398.488 279.506L584.593 279.506"/>
<path class="l1" d="M607.151 228.75L607.151 262.587"/>
<path class="l1" d="M511.279 228.75L607.151 228.75"/>
<path class="l1" d="M607.151 279.506L624.07 279.506"/>
<path class="l1" d="M624.07 228.75L624.07 279.506"/>
<path class="l1" d="M607.151 228.75L624.07 228.75"/>
<path class="l1" d="M398.488 335.901L488.721 335.901"/>
<path class="l1" d="M375.93 426.134L443.605 426.134"/>
<path class="l1" d="M319.535 228.75L375.93 228.75"/>
<path class="l1" d="M319.535 409.215L375.93 409.215"/>
<path class="l1" d="M319.535 426.134L375.93 426.134"/>
<path class="l1" d="M607.151 296.424L607.151 335.901"/>
<path class="l1" d="M607.151 335.901L607.151 364.099"/>
<path class="l1" d="M607.151 403.576L607.151 426.134"/>
<path class="l1" d="M466.163 426.134L607.151 426.134"/>
<path class="l1" d="M319.535 335.901L375.93 335.901"/>
<path class="l1" d="M607.151 335.901L646.628 335.901"/>
<path class="l1" d="M511.279 335.901L539.477 335.901"/>
<path class="l1" d="M466.163 335.901L466.163 409.215"/>
<path class="l1" d="M776.337 352.82L776.337 369.738"/>
<path class="l1" d="M612.791 352.82L776.337 352.82"/>
<path class="l1" d="M607.151 352.82L612.791 352.82"/>
<path class="l1" d="M776.337 409.215L776.337 426.134"/>
<path class="l1" d="M607.151 426.134L776.337 426.134"/>
<path class="l1" d="M443.605 273.866L488.721 273.866"/>
<circle class="l1" cx="375.93" cy="228.75" r="2.25581"/>
<circle class="l1" cx="398.488" cy="279.506" r="2.25581"/>
<circle class="l1" cx="375.93" cy="228.75" r="2.25581"/>
<circle class="l1" cx="375.93" cy="228.75" r="2.25581"/>
<circle class="l1" cx="488.721" cy="273.866" r="2.25581"/>
<circle class="l1" cx="607.151" cy="335.901" r="2.25581"/>
<circle class="l1" cx="607.151" cy="228.75" r="2.25581"/>
<circle class="l1" cx="511.279" cy="228.75" r="2.25581"/>
<circle class="l1" cx="607.151" cy="228.75" r="2.25581"/>
<circle class="l1" cx="607.151" cy="228.75" r="2.25581"/>
<circle class="l1" cx="443.605" cy="245.669" r="2.25581"/>
<circle class="l1" cx="511.279" cy="228.75" r="2.25581"/>
<circle class="l1" cx="511.279" cy="228.75" r="2.25581"/>
<circle class="l1" cx="607.151" cy="426.134" r="2.25581"/>
<circle class="l1" cx="607.151" cy="352.82" r="2.25581"/>
<circle class="l1" cx="466.163" cy="335.901" r="2.25581"/>
<circle class="l1" cx="466.163" cy="409.215" r="2.25581"/>
<circle class="l1" cx="607.151" cy="335.901" r="2.25581"/>
<circle class="l1" cx="466.163" cy="426.134" r="2.25581"/>
<circle class="l1" cx="607.151" cy="426.134" r="2.25581"/>
<circle class="l1" cx="607.151" cy="426.134" r="2.25581"/>
<circle class="l1" cx="607.151" cy="335.901" r="2.25581"/>
<circle class="l1" cx="466.163" cy="409.215" r="2.25581"/>
<circle class="l1" cx="466.163" cy="426.134" r="2.25581"/>
<circle class="l1" cx="466.163" cy="426.134" r="2.25581"/>
<circle class="l1" cx="466.163" cy="409.215" r="2.25581"/>
<circle class="l1" cx="443.605" cy="352.82" r="2.25581"/>
</svg>
