<svg xmlns="http://www.w3.org/2000/svg" xmlns:xlink="http://www.w3.org/1999/xlink" width="1000" height="700" version="1.1">
<style type="text/css">
.l0{
 fill: #ffffff;
  stroke: #ffffff;
  stroke-linecap:round;
  stroke-linejoin:round;
  stroke-width: 0.60907;
}
.l1{
 fill: #0044ee;
  stroke: #0044ee;
  stroke-linecap:round;
  stroke-linejoin:round;
  stroke-width: 0.60907;
}
.l2{
  fill: none;
  stroke: #aaaaaa;
  stroke-linecap:round;
  stroke-linejoin:round;
  stroke-width: 0.60907;
}
.l3{
 fill: #222222; fill-opacity: 0.5;
  stroke: #222222;
  stroke-linecap:round;
  stroke-linejoin:round;
  stroke-width: 0.60907;
}
.l4{
 fill: #229900;
  stroke: #229900;
  stroke-linecap:round;
  stroke-linejoin:round;
  stroke-width: 0.60907;
}
.l5{
 fill: #bb2200;
  stroke: #bb2200;
  stroke-linecap:round;
  stroke-linejoin:round;
  stroke-width: 0.60907;
}
.l6{
 fill: #00ccee; fill-opacity: 0.5;
  stroke: #00ccee;
  stroke-linecap:round;
  stroke-linejoin:round;
  stroke-width: 0.60907;
}
.l7{
 fill: #ff0000; fill-opacity: 0.5;
  stroke: #ff0000;
  stroke-linecap:round;
  stroke-linejoin:round;
  stroke-width: 0.60907;
}
.l8{
 fill: #888800; fill-opacity: 0.5;
  stroke: #888800;
  stroke-linecap:round;
  stroke-linejoin:round;
  stroke-width: 0.60907;
}
.l9{
 fill: #00aaaa; fill-opacity: 0.5;
  stroke: #00aaaa;
  stroke-linecap:round;
  stroke-linejoin:round;
  stroke-width: 0.60907;
}
.l10{
 fill: #880088;
  stroke: #880088;
  stroke-linecap:round;
  stroke-linejoin:round;
  stroke-width: 0.60907;
}
.l11{
 fill: #00ff00; fill-opacity: 0.5;
  stroke: #00ff00;
  stroke-linecap:round;
  stroke-linejoin:round;
  stroke-width: 0.60907;
}
.l12{
 fill: #0000cc; fill-opacity: 0.5;
  stroke: #0000cc;
  stroke-linecap:round;
  stroke-linejoin:round;
  stroke-width: 0.60907;
}
.l13{
 fill: #666600; fill-opacity: 0.5;
  stroke: #666600;
  stroke-linecap:round;
  stroke-linejoin:round;
  stroke-width: 0.60907;
}
.l14{
  fill: none;
  stroke: #557755;
  stroke-linecap:round;
  stroke-linejoin:round;
  stroke-width: 0.60907;
}
.l15{
 fill: #aa2222; fill-opacity: 0.5;
  stroke: #aa2222;
  stroke-linecap:round;
  stroke-linejoin:round;
  stroke-width: 0.60907;
}
.l16{
 fill: #7ccc40; fill-opacity: 0.5;
  stroke: #7ccc40;
  stroke-linecap:round;
  stroke-linejoin:round;
  stroke-width: 0.60907;
}
.l17{
  fill: none;
  stroke: #00ffcc;
  stroke-linecap:round;
  stroke-linejoin:round;
  stroke-width: 0.60907;
}
.l18{
 fill: #ce0097; fill-opacity: 0.5;
  stroke: #ce0097;
  stroke-linecap:round;
  stroke-linejoin:round;
  stroke-width: 0.60907;
}
.l19{
  fill: none;
  stroke: #d2d46b;
  stroke-linecap:round;
  stroke-linejoin:round;
  stroke-width: 0.60907;
}
.l20{
  fill: none;
  stroke: #ef6158;
  stroke-linecap:round;
  stroke-linejoin:round;
  stroke-width: 0.60907;
}
.l21{
  fill: none;
  stroke: #fdb200;
  stroke-linecap:round;
  stroke-linejoin:round;
  stroke-width: 0.60907;
}
text {font-family: Sans-Serif;}
</style>
<rect class="l0" x="0" y="0" width="1000" height="700"/>
<text fill="#222222"  xml:space="preserve" font-size="29.3256" transform="translate(257.5, 125.668)" >Phase-Frequency Detector (PFD)</text>
<text fill="#0044ee"  xml:space="preserve" font-size="9.67744" transform="translate(349.32, 390.862)" >AVDD</text>
<text fill="#0044ee"  xml:space="preserve" font-size="9.67744" transform="translate(546.703, 385.222)" >AVDD</text>
<text fill="#0044ee"  xml:space="preserve" font-size="9.67744" transform="translate(552.343, 232.955)" >AVDD</text>
<text fill="#0044ee"  xml:space="preserve" font-size="9.67744" transform="translate(349.32, 238.595)" >AVDD</text>
<text fill="#0044ee"  xml:space="preserve" font-size="9.67744" transform="translate(450.831, 323.188)" >AVDD</text>
<text fill="#0044ee"  xml:space="preserve" font-size="9.67744" transform="translate(492.951, 400.205)" >AVSS</text>
<text fill="#0044ee"  xml:space="preserve" font-size="9.67744" transform="translate(588.823, 462.24)" >AVSS</text>
<text fill="#0044ee"  xml:space="preserve" font-size="9.67744" transform="translate(391.439, 490.438)" >AVSS</text>
<text fill="#0044ee"  xml:space="preserve" font-size="9.67744" transform="translate(235.824, 226.963)" >AVDD</text>
<text fill="#0044ee"  xml:space="preserve" font-size="9.67744" transform="translate(731.221, 272.079)" >CP_UP_N</text>
<text fill="#0044ee"  xml:space="preserve" font-size="9.67744" transform="translate(224.634, 305.916)" >CK_REF</text>
<text fill="#0044ee"  xml:space="preserve" font-size="9.67744" transform="translate(663.547, 424.347)" >CP_DOWN</text>
<text fill="#0044ee"  xml:space="preserve" font-size="9.67744" transform="translate(233.049, 458.184)" >CK_FB</text>
<text fill="#0044ee"  xml:space="preserve" font-size="9.67744" transform="translate(241.464, 531.498)" >AVSS</text>
<text fill="#0044ee"  xml:space="preserve" font-size="9.67744" transform="translate(594.462, 309.973)" >AVSS</text>
<text fill="#0044ee"  xml:space="preserve" font-size="9.67744" transform="translate(391.439, 338.17)" >AVSS</text>
<text fill="#0044ee"  xml:space="preserve" font-size="9.67744" transform="translate(479.711, 263.997) rotate(270)" >CP_DUP_N</text>
<text fill="#0044ee"  xml:space="preserve" font-size="9.67744" transform="translate(504.205, 500.459) rotate(270)" >CP_DOWN_N</text>
<text fill="#0044ee"  xml:space="preserve" font-size="9.67744" transform="translate(335.044, 343.81)" >CFB</text>
<text fill="#0044ee"  xml:space="preserve" font-size="9.67744" transform="translate(806.122, 216.036)" >AVDD</text>
<text fill="#0044ee"  xml:space="preserve" font-size="9.67744" transform="translate(848.241, 270.496)" >AVSS</text>
<text fill="#0044ee"  xml:space="preserve" font-size="9.67744" transform="translate(631.296, 232.955)" >AVDD</text>
<text fill="#0044ee"  xml:space="preserve" font-size="9.67744" transform="translate(673.416, 309.973)" >AVSS</text>
<text fill="#0044ee"  xml:space="preserve" font-size="9.67744" transform="translate(626.339, 263.997) rotate(270)" >CP_UP</text>
<text fill="#222222"  xml:space="preserve" font-size="4.39884" transform="translate(490.089, 339.285) rotate(270)" >AVDD</text>
<text fill="#222222"  xml:space="preserve" font-size="4.39884" transform="translate(492.791, 354.395)" >A</text>
<text fill="#222222"  xml:space="preserve" font-size="3.6657" transform="translate(487.213, 390.384) rotate(270)" >AVSS</text>
<text fill="#222222"  xml:space="preserve" font-size="4.39884" transform="translate(492.791, 365.674)" >B</text>
<text fill="#222222"  xml:space="preserve" font-size="4.39884" transform="translate(475.186, 359.827)" >Y</text>
<text fill="#222222"  xml:space="preserve" font-size="4.39884" transform="translate(427.717, 371.313)" >SUNTR_NRX1_CV</text>
<text fill="#222222"  xml:space="preserve" font-size="4.39884" transform="translate(465.967, 365.674)" >xa3</text>
<text fill="#222222"  xml:space="preserve" font-size="4.39884" transform="translate(595.308, 269.802)" >Y</text>
<text fill="#222222"  xml:space="preserve" font-size="4.39884" transform="translate(579.517, 269.802)" >A</text>
<text fill="#222222"  xml:space="preserve" font-size="2.93256" transform="translate(585.643, 249.052) rotate(270)" >AVDD</text>
<text fill="#222222"  xml:space="preserve" font-size="2.93256" transform="translate(585.505, 297.601) rotate(270)" >AVSS</text>
<text fill="#222222"  xml:space="preserve" font-size="4.39884" transform="translate(595.872, 281.081)" >SUNTR_IVX1_CV</text>
<text fill="#222222"  xml:space="preserve" font-size="4.39884" transform="translate(595.872, 275.441)" >xa2</text>
<text fill="#222222"  xml:space="preserve" font-size="4.39884" transform="translate(589.669, 422.069)" >Y</text>
<text fill="#222222"  xml:space="preserve" font-size="4.39884" transform="translate(573.878, 422.069)" >A</text>
<text fill="#222222"  xml:space="preserve" font-size="2.93256" transform="translate(580.003, 401.32) rotate(270)" >AVDD</text>
<text fill="#222222"  xml:space="preserve" font-size="2.93256" transform="translate(579.866, 449.869) rotate(270)" >AVSS</text>
<text fill="#222222"  xml:space="preserve" font-size="4.39884" transform="translate(590.233, 433.348)" >SUNTR_IVX1_CV</text>
<text fill="#222222"  xml:space="preserve" font-size="4.39884" transform="translate(590.233, 427.709)" >xa6</text>
<text fill="#222222"  xml:space="preserve" font-size="7.3314" transform="translate(827.093, 614.863)" >Updated</text>
<text fill="#222222"  xml:space="preserve" font-size="7.3314" transform="translate(29.0988, 648.7)" >Library/Cell</text>
<text fill="#222222"  xml:space="preserve" font-size="7.3314" transform="translate(827.093, 603.584)" >Designer</text>
<text fill="#222222"  xml:space="preserve" font-size="7.3314" transform="translate(827.093, 626.142)" >Modified</text>
<text fill="#222222"  xml:space="preserve" font-size="7.3314" transform="translate(829.913, 637.421)" >Copyright</text>
<text fill="#222222"  xml:space="preserve" font-size="7.3314" transform="translate(872.209, 614.863)" >wulff</text>
<text fill="#222222"  xml:space="preserve" font-size="7.3314" transform="translate(872.209, 626.142)" >2023-04-09  23:18:38</text>
<text fill="#222222"  xml:space="preserve" font-size="7.3314" transform="translate(872.209, 637.421)" >Carsten Wulff Software</text>
<text fill="#222222"  xml:space="preserve" font-size="7.3314" transform="translate(93.9535, 648.7)" >SUN_PLL_PFD</text>
<text fill="#222222"  xml:space="preserve" font-size="7.3314" transform="translate(872.209, 603.584)" >Carsten Wulff</text>
<text fill="#222222"  xml:space="preserve" font-size="4.39884" transform="translate(394.217, 336.538) rotate(270)" >AVSS</text>
<text fill="#222222"  xml:space="preserve" font-size="4.39884" transform="translate(394.424, 249.052) rotate(270)" >AVDD</text>
<text fill="#222222"  xml:space="preserve" font-size="4.39884" transform="translate(391.28, 269.595)" >Q</text>
<text fill="#222222"  xml:space="preserve" font-size="4.39884" transform="translate(368.035, 303.639)" >CK</text>
<text fill="#222222"  xml:space="preserve" font-size="4.39884" transform="translate(368.035, 269.802)" >D</text>
<text fill="#222222"  xml:space="preserve" font-size="7.3314" transform="translate(404.128, 304.125)" >SUNTR_DFTSPCX1_CV</text>
<text fill="#222222"  xml:space="preserve" font-size="7.3314" transform="translate(404.128, 292.846)" >xa1</text>
<text fill="#222222"  xml:space="preserve" font-size="4.39884" transform="translate(394.217, 488.806) rotate(270)" >AVSS</text>
<text fill="#222222"  xml:space="preserve" font-size="4.39884" transform="translate(394.424, 401.32) rotate(270)" >AVDD</text>
<text fill="#222222"  xml:space="preserve" font-size="4.39884" transform="translate(391.28, 421.862)" >Q</text>
<text fill="#222222"  xml:space="preserve" font-size="4.39884" transform="translate(368.035, 455.906)" >CK</text>
<text fill="#222222"  xml:space="preserve" font-size="4.39884" transform="translate(368.035, 422.069)" >D</text>
<text fill="#222222"  xml:space="preserve" font-size="7.3314" transform="translate(404.128, 456.392)" >SUNTR_DFTSPCX1_CV</text>
<text fill="#222222"  xml:space="preserve" font-size="7.3314" transform="translate(404.128, 445.113)" >xa5</text>
<text fill="#222222"  xml:space="preserve" font-size="4.39884" transform="translate(849.651, 247.243)" >xa0</text>
<text fill="#222222"  xml:space="preserve" font-size="4.39884" transform="translate(849.651, 252.883)" >SUNTR_TAPCELLB_CV</text>
<text fill="#222222"  xml:space="preserve" font-size="2.93256" transform="translate(833.782, 237.773) rotate(270)" >AVDD</text>
<text fill="#222222"  xml:space="preserve" font-size="2.93256" transform="translate(833.645, 252.485) rotate(270)" >AVSS</text>
<text fill="#222222"  xml:space="preserve" font-size="4.39884" transform="translate(674.262, 269.802)" >Y</text>
<text fill="#222222"  xml:space="preserve" font-size="4.39884" transform="translate(658.471, 269.802)" >A</text>
<text fill="#222222"  xml:space="preserve" font-size="2.93256" transform="translate(664.596, 249.052) rotate(270)" >AVDD</text>
<text fill="#222222"  xml:space="preserve" font-size="2.93256" transform="translate(664.459, 297.601) rotate(270)" >AVSS</text>
<text fill="#222222"  xml:space="preserve" font-size="4.39884" transform="translate(674.826, 281.081)" >SUNTR_IVX1_CV</text>
<text fill="#222222"  xml:space="preserve" font-size="4.39884" transform="translate(674.826, 275.441)" >xa2a</text>
<path class="l4" d="M488.721 347.18L500 347.18"/>
<path class="l4" d="M500 364.099L511.279 364.099"/>
<path class="l4" d="M497.18 352.82L500 352.82"/>
<path class="l4" d="M497.18 364.099L500 364.099"/>
<path class="l4" d="M500 352.82L511.279 352.82"/>
<path class="l4" d="M488.721 335.901L488.721 347.18"/>
<path class="l4" d="M488.721 369.738L488.721 381.017"/>
<path class="l4" d="M488.721 369.738L500 369.738"/>
<path class="l4" d="M460.523 358.459L468.983 358.459"/>
<circle class="l4" cx="471.802" cy="358.459" r="2.81977" style="fill:none;"/>
<path class="l4" style="fill:none;" d="M488.721 347.191 A15.2267 15.2267 0 0 0 474.582 358.448"/>
<path class="l4" style="fill:none;" d="M474.463 358.497 A14.6628 14.6628 0 0 0 488.721 369.738"/>
<path class="l4" style="fill:none;" d="M499.971 347.165 A24.25 24.25 0 0 0 499.971 369.754"/>
<path class="l4" d="M590.233 273.866L590.233 285.145"/>
<path class="l4" d="M590.233 245.669L590.233 251.308"/>
<path class="l4" d="M578.953 256.948L578.953 279.506"/>
<path class="l4" d="M578.953 279.506L601.512 268.227"/>
<path class="l4" d="M578.953 256.948L601.512 268.227"/>
<path class="l4" d="M607.151 268.227L612.791 268.227"/>
<path class="l4" d="M567.674 268.227L578.953 268.227"/>
<path class="l4" d="M590.233 251.308L590.233 262.587"/>
<path class="l4" d="M590.233 285.145L590.233 290.785"/>
<circle class="l4" cx="604.331" cy="268.227" r="2.81977" style="fill:none;"/>
<path class="l4" d="M584.593 426.134L584.593 437.413"/>
<path class="l4" d="M584.593 397.936L584.593 403.576"/>
<path class="l4" d="M573.314 409.215L573.314 431.773"/>
<path class="l4" d="M573.314 431.773L595.872 420.494"/>
<path class="l4" d="M573.314 409.215L595.872 420.494"/>
<path class="l4" d="M601.512 420.494L607.151 420.494"/>
<path class="l4" d="M562.035 420.494L573.314 420.494"/>
<path class="l4" d="M584.593 403.576L584.593 414.855"/>
<path class="l4" d="M584.593 437.413L584.593 443.052"/>
<circle class="l4" cx="598.692" cy="420.494" r="2.81977" style="fill:none;"/>
<path class="l4" d="M866.57 606.599L866.57 617.878"/>
<path class="l4" d="M793.256 640.436L793.256 651.715"/>
<path class="l4" d="M906.047 640.436L906.047 651.715"/>
<path class="l4" d="M680.465 640.436L680.465 651.715"/>
<path class="l4" d="M91.1337 640.436L91.1337 651.715"/>
<path class="l4" d="M15 640.436L26.2791 640.436"/>
<path class="l4" d="M26.2791 640.436L26.2791 651.715"/>
<path class="l4" d="M973.721 640.436L985 640.436"/>
<path class="l4" d="M973.721 640.436L973.721 651.715"/>
<path class="l4" d="M866.57 595.32L866.57 606.599"/>
<path class="l4" d="M866.57 617.878L866.57 629.157"/>
<path class="l4" style="fill:none;" d="M824.273 640.436L985 640.436L985 595.32L824.273 595.32L824.273 640.436"/>
<path class="l4" style="fill:none;" d="M15 651.715L985 651.715L985 48.2849L15 48.2849L15 651.715"/>
<path class="l4" style="fill:none;" d="M824.273 606.599L973.721 606.599L973.721 595.32L824.273 595.32L824.273 606.599"/>
<path class="l4" style="fill:none;" d="M15 651.715L985 651.715L985 640.436L15 640.436L15 651.715"/>
<path class="l4" style="fill:none;" d="M824.273 640.436L973.721 640.436L973.721 629.157L824.273 629.157L824.273 640.436"/>
<path class="l4" style="fill:none;" d="M824.273 629.157L973.721 629.157L973.721 617.878L824.273 617.878L824.273 629.157"/>
<path class="l4" style="fill:none;" d="M824.273 617.878L973.721 617.878L973.721 606.599L824.273 606.599L824.273 617.878"/>
<path class="l4" d="M387.209 251.308L387.209 262.587"/>
<path class="l4" d="M398.488 268.227L409.767 268.227"/>
<path class="l4" d="M353.372 268.227L364.651 268.227"/>
<path class="l4" d="M353.372 302.064L364.651 302.064"/>
<path class="l4" d="M387.209 307.703L387.209 318.983"/>
<path class="l4" style="fill:none;" d="M364.651 307.703L398.488 307.703L398.488 262.587L364.651 262.587L364.651 307.703"/>
<path class="l4" d="M387.209 403.576L387.209 414.855"/>
<path class="l4" d="M398.488 420.494L409.767 420.494"/>
<path class="l4" d="M353.372 420.494L364.651 420.494"/>
<path class="l4" d="M353.372 454.331L364.651 454.331"/>
<path class="l4" d="M387.209 459.971L387.209 471.25"/>
<path class="l4" style="fill:none;" d="M364.651 459.971L398.488 459.971L398.488 414.855L364.651 414.855L364.651 459.971"/>
<path class="l4" d="M844.012 245.669L844.012 251.308"/>
<path class="l4" d="M844.012 228.75L844.012 234.39"/>
<path class="l4" d="M838.372 234.39L849.651 234.39"/>
<path class="l4" d="M849.651 234.39L849.651 245.669"/>
<path class="l4" d="M838.372 245.669L849.651 245.669"/>
<path class="l4" d="M838.372 234.39L838.372 245.669"/>
<path class="l4" d="M838.372 234.39L849.651 245.669"/>
<path class="l4" d="M838.372 245.669L849.651 234.39"/>
<path class="l4" d="M669.186 273.866L669.186 285.145"/>
<path class="l4" d="M669.186 245.669L669.186 251.308"/>
<path class="l4" d="M657.907 256.948L657.907 279.506"/>
<path class="l4" d="M657.907 279.506L680.465 268.227"/>
<path class="l4" d="M657.907 256.948L680.465 268.227"/>
<path class="l4" d="M686.105 268.227L691.744 268.227"/>
<path class="l4" d="M646.628 268.227L657.907 268.227"/>
<path class="l4" d="M669.186 251.308L669.186 262.587"/>
<path class="l4" d="M669.186 285.145L669.186 290.785"/>
<circle class="l4" cx="683.285" cy="268.227" r="2.81977" style="fill:none;"/>
<path class="l5" d="M509.023 350.564L513.535 350.564L513.535 355.076L509.023 355.076L509.023 350.564z"/>
<path class="l5" d="M509.023 361.843L513.535 361.843L513.535 366.355L509.023 366.355L509.023 361.843z"/>
<path class="l5" d="M458.267 356.203L462.779 356.203L462.779 360.715L458.267 360.715L458.267 356.203z"/>
<path class="l5" d="M486.465 333.645L490.977 333.645L490.977 338.157L486.465 338.157L486.465 333.645z"/>
<path class="l5" d="M486.465 378.762L490.977 378.762L490.977 383.273L486.465 383.273L486.465 378.762z"/>
<path class="l5" d="M565.419 265.971L569.93 265.971L569.93 270.483L565.419 270.483L565.419 265.971z"/>
<path class="l5" d="M610.535 265.971L615.047 265.971L615.047 270.483L610.535 270.483L610.535 265.971z"/>
<path class="l5" d="M587.977 243.413L592.488 243.413L592.488 247.924L587.977 247.924L587.977 243.413z"/>
<path class="l5" d="M587.977 288.529L592.488 288.529L592.488 293.041L587.977 293.041L587.977 288.529z"/>
<path class="l5" d="M559.779 418.238L564.291 418.238L564.291 422.75L559.779 422.75L559.779 418.238z"/>
<path class="l5" d="M604.895 418.238L609.407 418.238L609.407 422.75L604.895 422.75L604.895 418.238z"/>
<path class="l5" d="M582.337 395.68L586.849 395.68L586.849 400.192L582.337 400.192L582.337 395.68z"/>
<path class="l5" d="M582.337 440.797L586.849 440.797L586.849 445.308L582.337 445.308L582.337 440.797z"/>
<path class="l5" d="M386.504 385.952L387.914 385.952L387.914 387.362L386.504 387.362L386.504 385.952z"/>
<path class="l5" d="M583.888 380.312L585.298 380.312L585.298 381.722L583.888 381.722L583.888 380.312z"/>
<path class="l5" d="M589.528 228.045L590.938 228.045L590.938 229.455L589.528 229.455L589.528 228.045z"/>
<path class="l5" d="M386.504 233.685L387.914 233.685L387.914 235.094L386.504 235.094L386.504 233.685z"/>
<path class="l5" d="M488.016 318.278L489.426 318.278L489.426 319.688L488.016 319.688L488.016 318.278z"/>
<path class="l5" d="M488.016 397.231L489.426 397.231L489.426 398.641L488.016 398.641L488.016 397.231z"/>
<path class="l5" d="M583.888 459.266L585.298 459.266L585.298 460.676L583.888 460.676L583.888 459.266z"/>
<path class="l5" d="M386.504 487.464L387.914 487.464L387.914 488.874L386.504 488.874L386.504 487.464z"/>
<path class="l5" d="M277.238 223.11L280.058 223.11"/>
<path class="l5" d="M277.238 223.11L275.124 220.291L270.189 220.291L272.304 223.11L270.189 225.93L275.124 225.93L277.238 223.11"/>
<path class="l5" d="M279.353 222.406L280.763 222.406L280.763 223.815L279.353 223.815L279.353 222.406z"/>
<path class="l5" d="M719.942 268.227L724.876 268.227"/>
<path class="l5" d="M729.811 268.227L727.696 265.407L722.762 265.407L724.876 268.227L722.762 271.047L727.696 271.047L729.811 268.227"/>
<path class="l5" d="M719.237 267.522L720.647 267.522L720.647 268.932L719.237 268.932L719.237 267.522z"/>
<path class="l5" d="M282.878 302.064L285.698 302.064"/>
<path class="l5" d="M282.878 302.064L280.763 299.244L275.828 299.244L277.943 302.064L275.828 304.884L280.763 304.884L282.878 302.064"/>
<path class="l5" d="M284.993 301.359L286.403 301.359L286.403 302.769L284.993 302.769L284.993 301.359z"/>
<path class="l5" d="M652.267 420.494L657.202 420.494"/>
<path class="l5" d="M662.137 420.494L660.022 417.674L655.087 417.674L657.202 420.494L655.087 423.314L660.022 423.314L662.137 420.494"/>
<path class="l5" d="M651.562 419.789L652.972 419.789L652.972 421.199L651.562 421.199L651.562 419.789z"/>
<path class="l5" d="M282.878 454.331L285.698 454.331"/>
<path class="l5" d="M282.878 454.331L280.763 451.512L275.828 451.512L277.943 454.331L275.828 457.151L280.763 457.151L282.878 454.331"/>
<path class="l5" d="M284.993 453.626L286.403 453.626L286.403 455.036L284.993 455.036L284.993 453.626z"/>
<path class="l5" d="M282.878 527.645L285.698 527.645"/>
<path class="l5" d="M282.878 527.645L280.763 524.826L275.828 524.826L277.943 527.645L275.828 530.465L280.763 530.465L282.878 527.645"/>
<path class="l5" d="M284.993 526.94L286.403 526.94L286.403 528.35L284.993 528.35L284.993 526.94z"/>
<path class="l5" d="M589.528 306.999L590.938 306.999L590.938 308.408L589.528 308.408L589.528 306.999z"/>
<path class="l5" d="M386.504 335.196L387.914 335.196L387.914 336.606L386.504 336.606L386.504 335.196z"/>
<path class="l5" d="M351.116 265.971L355.628 265.971L355.628 270.483L351.116 270.483L351.116 265.971z"/>
<path class="l5" d="M351.116 299.808L355.628 299.808L355.628 304.32L351.116 304.32L351.116 299.808z"/>
<path class="l5" d="M407.512 265.971L412.023 265.971L412.023 270.483L407.512 270.483L407.512 265.971z"/>
<path class="l5" d="M384.953 249.052L389.465 249.052L389.465 253.564L384.953 253.564L384.953 249.052z"/>
<path class="l5" d="M384.953 316.727L389.465 316.727L389.465 321.238L384.953 321.238L384.953 316.727z"/>
<path class="l5" d="M351.116 418.238L355.628 418.238L355.628 422.75L351.116 422.75L351.116 418.238z"/>
<path class="l5" d="M351.116 452.076L355.628 452.076L355.628 456.587L351.116 456.587L351.116 452.076z"/>
<path class="l5" d="M407.512 418.238L412.023 418.238L412.023 422.75L407.512 422.75L407.512 418.238z"/>
<path class="l5" d="M384.953 401.32L389.465 401.32L389.465 405.831L384.953 405.831L384.953 401.32z"/>
<path class="l5" d="M384.953 468.994L389.465 468.994L389.465 473.506L384.953 473.506L384.953 468.994z"/>
<path class="l5" d="M476.737 267.522L478.147 267.522L478.147 268.932L476.737 268.932L476.737 267.522z"/>
<path class="l5" d="M499.295 419.789L500.705 419.789L500.705 421.199L499.295 421.199L499.295 419.789z"/>
<path class="l5" d="M330.109 340.836L331.519 340.836L331.519 342.246L330.109 342.246L330.109 340.836z"/>
<path class="l5" d="M841.756 226.494L846.267 226.494L846.267 231.006L841.756 231.006L841.756 226.494z"/>
<path class="l5" d="M841.756 249.052L846.267 249.052L846.267 253.564L841.756 253.564L841.756 249.052z"/>
<path class="l5" d="M843.307 211.126L844.717 211.126L844.717 212.536L843.307 212.536L843.307 211.126z"/>
<path class="l5" d="M843.307 267.522L844.717 267.522L844.717 268.932L843.307 268.932L843.307 267.522z"/>
<path class="l5" d="M644.372 265.971L648.884 265.971L648.884 270.483L644.372 270.483L644.372 265.971z"/>
<path class="l5" d="M689.488 265.971L694 265.971L694 270.483L689.488 270.483L689.488 265.971z"/>
<path class="l5" d="M666.93 243.413L671.442 243.413L671.442 247.924L666.93 247.924L666.93 243.413z"/>
<path class="l5" d="M666.93 288.529L671.442 288.529L671.442 293.041L666.93 293.041L666.93 288.529z"/>
<path class="l5" d="M668.481 228.045L669.891 228.045L669.891 229.455L668.481 229.455L668.481 228.045z"/>
<path class="l5" d="M668.481 306.999L669.891 306.999L669.891 308.408L668.481 308.408L668.481 306.999z"/>
<path class="l5" d="M623.365 267.522L624.775 267.522L624.775 268.932L623.365 268.932L623.365 267.522z"/>
<path class="l1" d="M409.767 268.227L567.674 268.227"/>
<path class="l1" d="M409.767 420.494L562.035 420.494"/>
<path class="l1" d="M387.209 386.657L387.209 403.576"/>
<path class="l1" d="M584.593 381.017L584.593 397.936"/>
<path class="l1" d="M590.233 228.75L590.233 245.669"/>
<path class="l1" d="M387.209 234.39L387.209 251.308"/>
<path class="l1" d="M488.721 318.983L488.721 335.901"/>
<path class="l1" d="M488.721 381.017L488.721 397.936"/>
<path class="l1" d="M584.593 443.052L584.593 459.971"/>
<path class="l1" d="M387.209 471.25L387.209 488.169"/>
<path class="l1" d="M330.814 358.459L460.523 358.459"/>
<path class="l1" d="M330.814 268.227L353.372 268.227"/>
<path class="l1" d="M330.814 358.459L330.814 420.494"/>
<path class="l1" d="M330.814 420.494L353.372 420.494"/>
<path class="l1" d="M280.058 454.331L353.372 454.331"/>
<path class="l1" d="M280.058 302.064L353.372 302.064"/>
<path class="l1" d="M511.279 352.82L528.198 352.82"/>
<path class="l1" d="M528.198 268.227L528.198 352.82"/>
<path class="l1" d="M511.279 364.099L528.198 364.099"/>
<path class="l1" d="M528.198 364.099L528.198 420.494"/>
<path class="l1" d="M612.791 268.227L646.628 268.227"/>
<path class="l1" d="M607.151 420.494L652.267 420.494"/>
<path class="l1" d="M590.233 290.785L590.233 307.703"/>
<path class="l1" d="M387.209 318.983L387.209 335.901"/>
<path class="l1" d="M330.814 268.227L330.814 358.459"/>
<path class="l1" d="M844.012 211.831L844.012 228.75"/>
<path class="l1" d="M844.012 251.308L844.012 268.227"/>
<path class="l1" d="M669.186 228.75L669.186 245.669"/>
<path class="l1" d="M691.744 268.227L725.581 268.227"/>
<path class="l1" d="M669.186 290.785L669.186 307.703"/>
<circle class="l1" cx="330.814" cy="358.459" r="2.25581"/>
<circle class="l1" cx="330.814" cy="358.459" r="2.25581"/>
<circle class="l1" cx="330.814" cy="358.459" r="2.25581"/>
<circle class="l1" cx="528.198" cy="420.494" r="2.25581"/>
<circle class="l1" cx="528.198" cy="268.227" r="2.25581"/>
</svg>
