<svg xmlns="http://www.w3.org/2000/svg" xmlns:xlink="http://www.w3.org/1999/xlink" width="1000" height="700" version="1.1">
<style type="text/css">
.l0{
 fill: #ffffff;
  stroke: #ffffff;
  stroke-linecap:round;
  stroke-linejoin:round;
  stroke-width: 0.60907;
}
.l1{
 fill: #0044ee;
  stroke: #0044ee;
  stroke-linecap:round;
  stroke-linejoin:round;
  stroke-width: 0.60907;
}
.l2{
  fill: none;
  stroke: #aaaaaa;
  stroke-linecap:round;
  stroke-linejoin:round;
  stroke-width: 0.60907;
}
.l3{
 fill: #222222; fill-opacity: 0.5;
  stroke: #222222;
  stroke-linecap:round;
  stroke-linejoin:round;
  stroke-width: 0.60907;
}
.l4{
 fill: #229900;
  stroke: #229900;
  stroke-linecap:round;
  stroke-linejoin:round;
  stroke-width: 0.60907;
}
.l5{
 fill: #bb2200;
  stroke: #bb2200;
  stroke-linecap:round;
  stroke-linejoin:round;
  stroke-width: 0.60907;
}
.l6{
 fill: #00ccee; fill-opacity: 0.5;
  stroke: #00ccee;
  stroke-linecap:round;
  stroke-linejoin:round;
  stroke-width: 0.60907;
}
.l7{
 fill: #ff0000; fill-opacity: 0.5;
  stroke: #ff0000;
  stroke-linecap:round;
  stroke-linejoin:round;
  stroke-width: 0.60907;
}
.l8{
 fill: #888800; fill-opacity: 0.5;
  stroke: #888800;
  stroke-linecap:round;
  stroke-linejoin:round;
  stroke-width: 0.60907;
}
.l9{
 fill: #00aaaa; fill-opacity: 0.5;
  stroke: #00aaaa;
  stroke-linecap:round;
  stroke-linejoin:round;
  stroke-width: 0.60907;
}
.l10{
 fill: #880088;
  stroke: #880088;
  stroke-linecap:round;
  stroke-linejoin:round;
  stroke-width: 0.60907;
}
.l11{
 fill: #00ff00; fill-opacity: 0.5;
  stroke: #00ff00;
  stroke-linecap:round;
  stroke-linejoin:round;
  stroke-width: 0.60907;
}
.l12{
 fill: #0000cc; fill-opacity: 0.5;
  stroke: #0000cc;
  stroke-linecap:round;
  stroke-linejoin:round;
  stroke-width: 0.60907;
}
.l13{
 fill: #666600; fill-opacity: 0.5;
  stroke: #666600;
  stroke-linecap:round;
  stroke-linejoin:round;
  stroke-width: 0.60907;
}
.l14{
  fill: none;
  stroke: #557755;
  stroke-linecap:round;
  stroke-linejoin:round;
  stroke-width: 0.60907;
}
.l15{
 fill: #aa2222; fill-opacity: 0.5;
  stroke: #aa2222;
  stroke-linecap:round;
  stroke-linejoin:round;
  stroke-width: 0.60907;
}
.l16{
 fill: #7ccc40; fill-opacity: 0.5;
  stroke: #7ccc40;
  stroke-linecap:round;
  stroke-linejoin:round;
  stroke-width: 0.60907;
}
.l17{
  fill: none;
  stroke: #00ffcc;
  stroke-linecap:round;
  stroke-linejoin:round;
  stroke-width: 0.60907;
}
.l18{
 fill: #ce0097; fill-opacity: 0.5;
  stroke: #ce0097;
  stroke-linecap:round;
  stroke-linejoin:round;
  stroke-width: 0.60907;
}
.l19{
  fill: none;
  stroke: #d2d46b;
  stroke-linecap:round;
  stroke-linejoin:round;
  stroke-width: 0.60907;
}
.l20{
  fill: none;
  stroke: #ef6158;
  stroke-linecap:round;
  stroke-linejoin:round;
  stroke-width: 0.60907;
}
.l21{
  fill: none;
  stroke: #fdb200;
  stroke-linecap:round;
  stroke-linejoin:round;
  stroke-width: 0.60907;
}
text {font-family: Sans-Serif;}
</style>
<rect class="l0" x="0" y="0" width="1000" height="700"/>
<text fill="#0044ee"  xml:space="preserve" font-size="9.67744" transform="translate(100.475, 446.905)" >VLPF</text>
<text fill="#0044ee"  xml:space="preserve" font-size="9.67744" transform="translate(100.475, 576.614)" >AVSS</text>
<text fill="#0044ee"  xml:space="preserve" font-size="9.67744" transform="translate(492.951, 242.298)" >VN5</text>
<text fill="#0044ee"  xml:space="preserve" font-size="9.67744" transform="translate(92.0602, 520.219)" >VLPFZ</text>
<text fill="#222222"  xml:space="preserve" font-size="7.3314" transform="translate(827.093, 614.863)" >Updated</text>
<text fill="#222222"  xml:space="preserve" font-size="7.3314" transform="translate(29.0988, 648.7)" >Library/Cell</text>
<text fill="#222222"  xml:space="preserve" font-size="7.3314" transform="translate(827.093, 603.584)" >Designer</text>
<text fill="#222222"  xml:space="preserve" font-size="7.3314" transform="translate(827.093, 626.142)" >Modified</text>
<text fill="#222222"  xml:space="preserve" font-size="7.3314" transform="translate(829.913, 637.421)" >Copyright</text>
<text fill="#222222"  xml:space="preserve" font-size="7.3314" transform="translate(872.209, 614.863)" >wulff</text>
<text fill="#222222"  xml:space="preserve" font-size="7.3314" transform="translate(872.209, 626.142)" >2023-04-15  00:25:51</text>
<text fill="#222222"  xml:space="preserve" font-size="7.3314" transform="translate(93.9535, 648.7)" >SUN_PLL_LPF</text>
<text fill="#222222"  xml:space="preserve" font-size="5.86512" transform="translate(484.499, 541.205) rotate(270)" >A</text>
<text fill="#222222"  xml:space="preserve" font-size="5.86512" transform="translate(485.587, 569.942) rotate(270)" >B</text>
<text fill="#222222"  xml:space="preserve" font-size="7.3314" transform="translate(505.64, 562.5)" >CAP_LPF</text>
<text fill="#222222"  xml:space="preserve" font-size="7.3314" transform="translate(505.64, 570.959)" >M=</text>
<text fill="#222222"  xml:space="preserve" font-size="5.86512" transform="translate(505.64, 552.709)" >xb3[21:0]</text>
<text fill="#222222"  xml:space="preserve" font-size="5.86512" transform="translate(320.953, 541.205) rotate(270)" >A</text>
<text fill="#222222"  xml:space="preserve" font-size="5.86512" transform="translate(322.041, 569.942) rotate(270)" >B</text>
<text fill="#222222"  xml:space="preserve" font-size="7.3314" transform="translate(342.093, 562.5)" >CAP_LPF</text>
<text fill="#222222"  xml:space="preserve" font-size="7.3314" transform="translate(342.093, 570.959)" >M=</text>
<text fill="#222222"  xml:space="preserve" font-size="5.86512" transform="translate(342.093, 552.709)" >xb2[1:0]</text>
<text fill="#222222"  xml:space="preserve" font-size="5.86512" transform="translate(191.244, 541.205) rotate(270)" >A</text>
<text fill="#222222"  xml:space="preserve" font-size="5.86512" transform="translate(192.331, 569.942) rotate(270)" >B</text>
<text fill="#222222"  xml:space="preserve" font-size="7.3314" transform="translate(212.384, 562.5)" >CAP_LPF</text>
<text fill="#222222"  xml:space="preserve" font-size="7.3314" transform="translate(212.384, 570.959)" >M=1</text>
<text fill="#222222"  xml:space="preserve" font-size="5.86512" transform="translate(212.384, 552.709)" >xb1</text>
<text fill="#222222"  xml:space="preserve" font-size="4.39884" transform="translate(501.368, 290.785) rotate(270)" >xa2</text>
<text fill="#222222"  xml:space="preserve" font-size="4.39884" transform="translate(507.008, 290.785) rotate(270)" >SUNTR_RPPO8</text>
<text fill="#222222"  xml:space="preserve" font-size="4.39884" transform="translate(501.368, 200.748) rotate(270)" >xa1</text>
<text fill="#222222"  xml:space="preserve" font-size="4.39884" transform="translate(507.008, 231.348) rotate(270)" >SUNTR_RPPO8</text>
<path class="l4" d="M866.57 606.599L866.57 617.878"/>
<path class="l4" d="M793.256 640.436L793.256 651.715"/>
<path class="l4" d="M906.047 640.436L906.047 651.715"/>
<path class="l4" d="M680.465 640.436L680.465 651.715"/>
<path class="l4" d="M91.1337 640.436L91.1337 651.715"/>
<path class="l4" d="M15 640.436L26.2791 640.436"/>
<path class="l4" d="M26.2791 640.436L26.2791 651.715"/>
<path class="l4" d="M973.721 640.436L985 640.436"/>
<path class="l4" d="M973.721 640.436L973.721 651.715"/>
<path class="l4" d="M866.57 595.32L866.57 606.599"/>
<path class="l4" d="M866.57 617.878L866.57 629.157"/>
<path class="l4" style="fill:none;" d="M824.273 640.436L985 640.436L985 595.32L824.273 595.32L824.273 640.436"/>
<path class="l4" style="fill:none;" d="M15 651.715L985 651.715L985 48.2849L15 48.2849L15 651.715"/>
<path class="l4" style="fill:none;" d="M824.273 606.599L973.721 606.599L973.721 595.32L824.273 595.32L824.273 606.599"/>
<path class="l4" style="fill:none;" d="M15 651.715L985 651.715L985 640.436L15 640.436L15 651.715"/>
<path class="l4" style="fill:none;" d="M824.273 640.436L973.721 640.436L973.721 629.157L824.273 629.157L824.273 640.436"/>
<path class="l4" style="fill:none;" d="M824.273 629.157L973.721 629.157L973.721 617.878L824.273 617.878L824.273 629.157"/>
<path class="l4" style="fill:none;" d="M824.273 617.878L973.721 617.878L973.721 606.599L824.273 606.599L824.273 617.878"/>
<path class="l4" d="M488.721 533.285L488.721 544.564"/>
<path class="l4" d="M488.721 561.483L488.721 572.762"/>
<path class="l4" d="M477.442 550.203L500 550.203"/>
<path class="l4" d="M477.442 555.843L500 555.843"/>
<path class="l4" d="M488.721 544.564L488.721 550.203"/>
<path class="l4" d="M488.721 555.843L488.721 561.483"/>
<path class="l4" d="M325.174 533.285L325.174 544.564"/>
<path class="l4" d="M325.174 561.483L325.174 572.762"/>
<path class="l4" d="M313.895 550.203L336.453 550.203"/>
<path class="l4" d="M313.895 555.843L336.453 555.843"/>
<path class="l4" d="M325.174 544.564L325.174 550.203"/>
<path class="l4" d="M325.174 555.843L325.174 561.483"/>
<path class="l4" d="M195.465 533.285L195.465 544.564"/>
<path class="l4" d="M195.465 561.483L195.465 572.762"/>
<path class="l4" d="M184.186 550.203L206.744 550.203"/>
<path class="l4" d="M184.186 555.843L206.744 555.843"/>
<path class="l4" d="M195.465 544.564L195.465 550.203"/>
<path class="l4" d="M195.465 555.843L195.465 561.483"/>
<path class="l4" d="M477.442 273.866L485.901 273.866"/>
<path class="l4" d="M488.721 251.308L488.721 256.948"/>
<path class="l4" d="M488.721 290.785L488.721 296.424"/>
<path class="l4" d="M484.773 267.099L484.773 280.634"/>
<path class="l4" d="M488.721 256.948L488.721 260.331"/>
<path class="l4" d="M488.721 287.401L488.721 290.785"/>
<path class="l4" d="M485.337 285.709L488.721 287.401"/>
<path class="l4" d="M485.337 285.709L492.105 282.326"/>
<path class="l4" d="M485.337 278.942L492.105 282.326"/>
<path class="l4" d="M485.337 278.942L492.105 275.558"/>
<path class="l4" d="M485.337 272.174L492.105 275.558"/>
<path class="l4" d="M485.337 272.174L492.105 268.791"/>
<path class="l4" d="M485.337 265.407L492.105 268.791"/>
<path class="l4" d="M485.337 265.407L492.105 262.023"/>
<path class="l4" d="M488.721 260.331L492.105 262.023"/>
<path class="l4" d="M477.442 206.192L485.901 206.192"/>
<path class="l4" d="M488.721 223.11L488.721 228.75"/>
<path class="l4" d="M488.721 183.634L488.721 189.273"/>
<path class="l4" d="M484.773 199.424L484.773 212.959"/>
<path class="l4" d="M488.721 219.727L488.721 223.11"/>
<path class="l4" d="M488.721 189.273L488.721 192.657"/>
<path class="l4" d="M485.337 194.349L488.721 192.657"/>
<path class="l4" d="M485.337 194.349L492.105 197.733"/>
<path class="l4" d="M485.337 201.116L492.105 197.733"/>
<path class="l4" d="M485.337 201.116L492.105 204.5"/>
<path class="l4" d="M485.337 207.884L492.105 204.5"/>
<path class="l4" d="M485.337 207.884L492.105 211.267"/>
<path class="l4" d="M485.337 214.651L492.105 211.267"/>
<path class="l4" d="M485.337 214.651L492.105 218.035"/>
<path class="l4" d="M488.721 219.727L492.105 218.035"/>
<path class="l5" d="M141.89 443.052L144.709 443.052"/>
<path class="l5" d="M141.89 443.052L139.775 440.233L134.84 440.233L136.955 443.052L134.84 445.872L139.775 445.872L141.89 443.052"/>
<path class="l5" d="M144.004 442.347L145.414 442.347L145.414 443.757L144.004 443.757L144.004 442.347z"/>
<path class="l5" d="M141.89 572.762L144.709 572.762"/>
<path class="l5" d="M141.89 572.762L139.775 569.942L134.84 569.942L136.955 572.762L134.84 575.581L139.775 575.581L141.89 572.762"/>
<path class="l5" d="M144.004 572.057L145.414 572.057L145.414 573.467L144.004 573.467L144.004 572.057z"/>
<path class="l5" d="M487.311 531.875L490.131 531.875L490.131 534.695L487.311 534.695L487.311 531.875z"/>
<path class="l5" d="M487.311 571.352L490.131 571.352L490.131 574.172L487.311 574.172L487.311 571.352z"/>
<path class="l5" d="M323.765 531.875L326.584 531.875L326.584 534.695L323.765 534.695L323.765 531.875z"/>
<path class="l5" d="M323.765 571.352L326.584 571.352L326.584 574.172L323.765 574.172L323.765 571.352z"/>
<path class="l5" d="M194.055 531.875L196.875 531.875L196.875 534.695L194.055 534.695L194.055 531.875z"/>
<path class="l5" d="M194.055 571.352L196.875 571.352L196.875 574.172L194.055 574.172L194.055 571.352z"/>
<path class="l5" d="M486.465 249.052L490.977 249.052L490.977 253.564L486.465 253.564L486.465 249.052z"/>
<path class="l5" d="M486.465 294.169L490.977 294.169L490.977 298.68L486.465 298.68L486.465 294.169z"/>
<path class="l5" d="M475.186 271.61L479.698 271.61L479.698 276.122L475.186 276.122L475.186 271.61z"/>
<path class="l5" d="M486.465 226.494L490.977 226.494L490.977 231.006L486.465 231.006L486.465 226.494z"/>
<path class="l5" d="M486.465 181.378L490.977 181.378L490.977 185.89L486.465 185.89L486.465 181.378z"/>
<path class="l5" d="M475.186 203.936L479.698 203.936L479.698 208.448L475.186 208.448L475.186 203.936z"/>
<path class="l5" d="M488.016 239.324L489.426 239.324L489.426 240.734L488.016 240.734L488.016 239.324z"/>
<path class="l5" d="M141.89 516.366L144.709 516.366"/>
<path class="l5" d="M141.89 516.366L139.775 513.547L134.84 513.547L136.955 516.366L134.84 519.186L139.775 519.186L141.89 516.366"/>
<path class="l5" d="M144.004 515.661L145.414 515.661L145.414 517.071L144.004 517.071L144.004 515.661z"/>
<path class="l1" d="M488.721 488.169L488.721 533.285"/>
<path class="l1" d="M443.605 465.61L443.605 572.762"/>
<path class="l1" d="M443.605 572.762L488.721 572.762"/>
<path class="l1" d="M195.465 572.762L443.605 572.762"/>
<path class="l1" d="M195.465 443.052L195.465 533.285"/>
<path class="l1" d="M139.07 572.762L195.465 572.762"/>
<path class="l1" d="M139.07 443.052L195.465 443.052"/>
<path class="l1" d="M325.174 443.052L325.174 533.285"/>
<path class="l1" d="M325.174 375.378L325.174 443.052"/>
<path class="l1" d="M195.465 375.378L195.465 443.052"/>
<path class="l1" d="M195.465 375.378L325.174 375.378"/>
<path class="l1" d="M443.605 273.866L477.442 273.866"/>
<path class="l1" d="M443.605 273.866L443.605 397.936"/>
<path class="l1" d="M488.721 296.424L488.721 313.343"/>
<path class="l1" d="M325.174 251.308L325.174 375.378"/>
<path class="l1" d="M443.605 206.192L477.442 206.192"/>
<path class="l1" d="M443.605 206.192L443.605 273.866"/>
<path class="l1" d="M325.174 183.634L488.721 183.634"/>
<path class="l1" d="M325.174 183.634L325.174 251.308"/>
<path class="l1" d="M488.721 228.75L488.721 251.308"/>
<path class="l1" d="M139.07 516.366L488.721 516.366"/>
<path class="l1" d="M488.721 313.343L488.721 488.169"/>
<path class="l1" d="M443.605 397.936L443.605 465.61"/>
<circle class="l1" cx="325.174" cy="375.378" r="2.25581"/>
<circle class="l1" cx="195.465" cy="443.052" r="2.25581"/>
<circle class="l1" cx="488.721" cy="516.366" r="2.25581"/>
<circle class="l1" cx="195.465" cy="443.052" r="2.25581"/>
<circle class="l1" cx="195.465" cy="443.052" r="2.25581"/>
<circle class="l1" cx="443.605" cy="572.762" r="2.25581"/>
<circle class="l1" cx="443.605" cy="273.866" r="2.25581"/>
<circle class="l1" cx="325.174" cy="375.378" r="2.25581"/>
<circle class="l1" cx="443.605" cy="273.866" r="2.25581"/>
<circle class="l1" cx="443.605" cy="273.866" r="2.25581"/>
<circle class="l1" cx="325.174" cy="375.378" r="2.25581"/>
<circle class="l1" cx="443.605" cy="572.762" r="2.25581"/>
<circle class="l1" cx="443.605" cy="572.762" r="2.25581"/>
</svg>
